{"glyphs":{"0":{"ha":991,"x_min":11,"x_max":943,"o":"m 568 -10 q 767 63 669 -10 q 859 210 850 175 l 855 218 q 861 225 855 225 q 859 236 861 229 q 890 391 890 340 l 887 398 q 901 465 898 398 l 901 486 l 915 582 l 912 589 q 921 707 915 658 q 918 736 921 716 q 926 862 923 736 q 924 884 924 881 l 929 920 q 935 1215 926 946 q 926 1862 943 1558 l 915 1984 l 918 1984 q 884 2245 904 2138 q 790 2488 862 2386 q 676 2598 757 2557 l 591 2616 l 580 2609 q 540 2616 572 2612 q 531 2609 540 2613 q 480 2624 531 2615 l 475 2620 q 471 2624 475 2624 l 469 2624 l 463 2620 l 463 2624 q 452 2620 456 2624 l 446 2624 q 387 2620 396 2620 q 241 2561 256 2583 q 113 2403 172 2513 q 56 2223 56 2261 q 59 2219 59 2223 q 37 2090 48 2182 l 39 2072 l 31 1999 q 28 1873 31 1950 l 31 1866 q 25 1829 25 1866 l 25 1782 q 16 1653 16 1748 l 16 1642 l 14 1624 q 16 1619 16 1624 q 14 1583 16 1615 q 16 1568 14 1575 l 14 1546 l 14 1476 l 11 1457 q 14 1454 14 1457 l 11 1454 l 14 1428 l 14 1413 l 11 1395 q 14 1392 14 1395 l 11 1384 l 14 1377 l 11 1369 l 14 1355 l 11 1348 l 14 1340 l 11 1322 q 14 1307 11 1313 l 11 1299 q 14 1284 11 1291 q 11 1270 11 1278 l 11 1009 l 14 990 q 11 987 11 990 q 16 891 11 964 l 14 884 q 20 785 16 884 l 22 777 l 20 777 q 28 715 25 722 l 25 707 q 28 608 28 617 q 57 319 31 410 q 170 140 109 197 q 318 31 227 83 q 488 -10 394 -6 q 497 -7 492 -10 q 500 -10 497 -10 l 506 -7 q 509 -10 506 -10 l 554 -10 l 559 -7 q 562 -10 559 -10 l 568 -7 l 568 -10 m 616 711 q 596 486 596 544 q 539 336 561 336 l 536 336 q 511 383 532 336 q 456 626 486 456 l 462 630 q 454 656 460 656 q 456 671 454 664 q 442 773 454 680 l 445 773 l 442 799 l 442 810 l 445 836 l 439 836 l 439 854 l 437 862 l 439 862 q 428 987 439 887 q 431 998 431 994 q 428 1009 431 1002 q 431 1013 431 1009 q 422 1046 426 1021 q 428 1053 427 1046 q 422 1061 428 1061 q 425 1064 422 1064 l 422 1101 l 422 1167 l 425 1193 l 416 1248 q 420 1252 420 1248 l 420 1255 l 416 1263 q 422 1355 422 1263 l 422 1369 l 425 1392 q 420 1509 422 1392 l 422 1542 q 420 1546 420 1542 q 425 1616 423 1546 l 422 1634 q 425 1638 425 1634 q 422 1660 422 1657 q 425 1678 422 1672 l 422 1700 l 422 1715 q 425 1792 422 1767 q 422 1862 422 1828 q 428 1958 422 1922 q 425 1962 425 1958 q 434 2043 434 1996 q 525 2256 477 2260 q 572 2208 552 2257 q 621 1630 617 2091 q 618 1619 618 1624 q 624 1598 624 1607 l 624 1560 l 621 1542 q 624 1539 624 1542 l 621 1539 q 627 1395 621 1525 q 624 1384 624 1388 q 627 1380 627 1384 q 624 1329 624 1349 l 627 1322 l 624 1322 q 627 1296 624 1310 q 621 1226 621 1248 q 624 1215 621 1222 l 621 1215 q 624 1193 624 1196 q 621 1178 624 1185 q 624 1163 624 1172 l 624 1035 l 627 1027 l 624 1027 q 627 1016 624 1023 q 616 747 621 921 l 616 733 l 613 715 q 616 711 616 715 "},"1":{"ha":757,"x_min":20,"x_max":743,"o":"m 725 2293 q 500 2270 581 2283 q 403 2262 460 2262 q 227 2267 281 2270 q 191 2066 208 2131 q 194 2056 194 2062 l 194 2050 q 178 1985 187 1985 q 148 1874 155 1879 q 121 1792 134 1807 q 80 1665 119 1752 q 20 1442 20 1473 q 134 1448 72 1445 q 289 1448 258 1448 l 289 1432 q 286 1421 289 1426 q 289 1410 289 1416 l 289 1394 q 283 1377 289 1386 q 286 1367 286 1373 l 286 1339 q 278 1272 286 1309 q 281 1263 281 1266 l 278 1239 l 281 1234 l 278 1234 l 281 1220 l 281 1182 l 278 1166 q 281 1152 281 1161 l 281 1147 q 275 1109 281 1129 l 278 1103 l 267 1006 q 270 998 270 1000 q 267 995 267 998 l 270 989 l 267 984 q 270 935 267 973 l 262 884 l 264 870 q 248 715 264 800 q 229 485 248 613 q 232 463 232 470 q 224 371 232 410 q 227 368 227 371 q 213 303 224 368 l 216 298 q 208 265 212 265 q 191 119 200 140 l 194 113 q 178 35 183 96 q 180 26 178 32 q 170 -1 176 25 l 172 -6 q 167 -17 172 -10 l 167 -20 l 170 -25 q 481 43 374 43 q 514 51 484 43 l 519 48 q 566 59 552 54 l 566 56 q 617 67 608 63 l 636 64 q 663 70 659 67 q 674 64 663 66 q 696 92 696 74 q 693 102 693 96 l 693 111 q 696 135 693 120 q 693 143 693 140 q 696 178 696 177 q 690 205 694 201 l 693 205 q 690 300 690 269 l 690 352 l 688 357 l 690 357 q 688 406 688 395 l 690 420 q 688 422 688 420 l 690 422 l 685 479 q 690 504 688 486 q 688 507 688 504 q 692 557 690 507 q 696 621 693 607 q 693 623 693 621 q 696 626 696 623 l 696 699 l 701 707 l 699 713 q 704 743 701 713 q 701 745 701 743 q 715 1003 707 902 l 715 1036 q 709 1074 715 1044 q 715 1133 709 1110 q 712 1141 712 1139 q 715 1177 712 1154 l 712 1182 q 715 1193 715 1187 l 715 1198 l 712 1217 q 715 1220 715 1217 q 712 1231 712 1225 l 712 1236 q 720 1337 712 1260 q 718 1339 718 1337 q 720 1377 720 1362 l 720 1402 l 718 1407 q 720 1410 720 1407 l 720 1464 l 718 1470 q 726 1527 720 1470 q 723 1548 723 1537 l 723 1567 l 720 1573 q 723 1575 723 1573 l 723 1581 l 720 1586 l 723 1586 q 720 1673 720 1650 l 718 1689 q 723 1725 721 1689 q 720 1727 720 1725 l 723 1727 q 720 1771 723 1743 q 726 1830 720 1782 q 723 1833 723 1830 q 726 1836 726 1833 l 726 1839 q 723 1925 726 1881 q 731 2015 731 1973 q 728 2023 731 2018 q 731 2026 731 2023 l 731 2028 l 728 2034 q 731 2037 731 2034 l 731 2056 q 734 2083 731 2068 l 731 2096 q 736 2172 734 2163 q 725 2293 743 2258 "},"2":{"ha":1112,"x_min":16,"x_max":1078,"o":"m 708 2601 q 553 2601 625 2606 q 304 2572 361 2585 q 296 2574 298 2574 l 277 2561 q 241 2550 262 2561 q 201 2523 208 2523 q 157 2490 165 2490 q 52 2327 84 2439 q 35 2233 43 2249 l 38 2227 q 35 2216 35 2222 l 35 2189 q 27 2170 35 2180 l 27 2154 l 24 2135 q 27 2132 27 2135 l 24 2132 l 27 2119 l 27 2094 q 24 2070 27 2085 q 30 2026 26 2063 q 24 2007 25 2026 l 24 1978 q 30 1948 24 1959 q 24 1926 24 1931 q 27 1923 27 1926 q 22 1893 24 1918 q 27 1872 22 1889 q 22 1850 22 1872 l 24 1836 q 22 1834 22 1836 l 24 1817 l 24 1799 q 16 1766 24 1789 q 19 1755 19 1761 l 19 1744 l 16 1725 q 19 1723 19 1725 q 16 1712 16 1718 l 19 1695 l 16 1690 l 22 1660 q 19 1657 19 1660 l 19 1638 l 22 1633 q 19 1630 19 1633 l 19 1611 l 22 1592 q 19 1590 19 1592 q 22 1581 19 1587 q 19 1573 22 1579 q 27 1535 19 1561 q 22 1508 24 1535 q 43 1468 26 1468 l 49 1470 q 52 1468 49 1468 l 60 1468 l 68 1473 q 106 1470 83 1473 l 111 1473 l 111 1470 q 119 1473 114 1470 q 171 1470 141 1473 l 198 1473 q 247 1470 218 1470 l 258 1470 l 263 1473 l 263 1470 l 296 1473 l 350 1473 l 355 1476 q 358 1473 355 1473 l 382 1473 l 396 1470 q 399 1473 396 1473 l 486 1465 q 518 1468 500 1468 l 526 1468 q 540 1492 534 1468 l 540 1500 q 543 1560 540 1537 l 537 1641 q 540 1763 540 1705 l 540 1831 l 537 1850 q 540 1855 540 1850 l 537 1869 q 540 1872 540 1869 q 534 1912 537 1874 q 540 2002 540 1963 l 540 2013 l 543 2026 q 540 2029 540 2026 q 543 2059 543 2047 l 543 2072 l 548 2081 l 548 2091 q 567 2146 548 2119 q 624 2197 585 2197 l 629 2197 q 659 2162 659 2197 l 659 2159 q 662 2070 659 2116 q 659 2040 659 2051 q 662 2018 662 2021 q 659 1983 659 2005 l 662 1978 q 659 1975 659 1978 l 659 1912 q 656 1869 659 1897 q 659 1858 659 1864 q 646 1611 646 1693 l 646 1600 l 643 1587 q 646 1584 646 1587 q 629 1443 640 1518 l 632 1438 q 591 1324 623 1380 q 510 1204 574 1276 q 464 1153 494 1174 q 407 1093 464 1143 q 345 1050 347 1057 q 236 974 263 997 l 187 947 l 109 906 q 62 890 62 897 l 62 884 q 65 857 62 871 q 62 849 65 854 q 68 730 68 779 q 62 681 62 685 q 65 659 62 674 q 62 656 62 659 q 65 648 65 651 q 62 629 65 640 l 65 616 l 62 602 q 65 594 65 597 q 60 551 65 590 l 60 518 q 57 464 60 500 q 60 461 60 464 q 57 458 57 461 l 57 401 q 54 372 57 390 q 57 363 57 366 l 49 263 q 52 260 52 263 q 38 209 42 209 l 41 195 q 35 141 41 180 l 38 136 q 30 84 35 130 q 33 81 33 84 q 27 52 29 81 q 31 -22 26 24 q 334 35 91 13 q 578 49 433 43 q 803 33 735 43 l 817 35 q 825 33 822 33 l 830 35 q 836 30 830 30 l 860 30 q 1078 -16 897 30 q 1066 49 1072 49 q 1072 73 1066 53 q 1063 133 1066 101 q 1066 141 1066 138 l 1063 146 l 1069 149 q 1061 203 1066 188 q 1063 214 1061 210 q 1053 320 1061 256 q 1055 353 1055 339 q 1050 385 1055 375 l 1053 401 l 1053 412 l 1050 418 q 1053 420 1053 418 l 1053 423 q 1050 434 1053 429 l 1053 439 q 1050 469 1050 458 l 1050 510 l 1047 515 l 1050 515 q 1044 572 1050 539 l 1047 572 q 1063 757 1053 677 l 1063 817 q 1069 838 1063 819 l 1069 854 l 1066 860 q 936 846 1032 854 l 930 849 q 857 838 922 849 q 846 841 852 841 l 841 838 q 838 841 841 841 q 827 838 832 841 l 822 841 l 817 838 q 808 841 814 838 l 798 836 q 787 838 791 836 q 700 833 759 833 l 684 833 l 665 830 q 662 833 665 833 q 553 817 644 825 l 553 819 l 529 817 l 515 819 q 469 808 489 811 l 469 811 q 442 808 446 808 l 437 808 q 469 827 444 819 q 548 871 536 871 q 586 898 579 898 q 651 949 640 949 q 711 1015 663 974 l 781 1099 q 798 1118 781 1107 l 825 1153 q 895 1261 884 1261 l 960 1386 q 985 1438 985 1417 q 1020 1568 1006 1468 l 1017 1581 q 1023 1595 1017 1586 l 1020 1600 q 1025 1695 1023 1619 l 1023 1701 l 1025 1701 q 1031 1812 1028 1790 q 1028 1826 1028 1817 q 1031 1836 1031 1835 q 1028 1839 1028 1836 q 1031 1842 1031 1839 l 1031 1855 l 1028 1861 q 1031 1864 1031 1861 l 1031 1869 q 1028 1883 1031 1878 l 1036 1950 l 1036 1969 q 1034 1980 1036 1976 q 1039 2029 1036 1988 q 1036 2032 1036 2029 l 1042 2091 q 1036 2135 1039 2094 l 1039 2146 l 1036 2151 l 1039 2165 l 1036 2170 q 1039 2173 1039 2170 l 1039 2178 q 1034 2195 1039 2186 q 1036 2230 1034 2212 q 1034 2292 1034 2266 q 1031 2300 1034 2295 l 1034 2300 q 1028 2336 1031 2333 q 1031 2338 1031 2336 l 1031 2346 l 1028 2352 l 1031 2352 q 1028 2376 1031 2376 q 958 2542 1028 2504 q 906 2563 912 2553 q 708 2601 831 2588 "},"3":{"ha":996,"x_min":20,"x_max":975,"o":"m 449 2454 q 321 2449 416 2454 l 316 2452 l 300 2449 l 262 2449 l 243 2446 q 240 2449 243 2449 q 232 2446 235 2446 q 221 2449 226 2446 q 186 2438 195 2443 q 178 2441 183 2438 q 75 2416 140 2440 q 20 2367 20 2404 l 20 2340 l 23 2335 q 20 2332 20 2335 l 20 2316 q 26 2300 20 2308 l 23 2281 q 26 2226 26 2241 l 23 2202 q 28 2169 25 2197 q 26 2167 26 2169 q 28 2156 28 2162 l 28 2134 l 26 2121 q 31 2096 28 2121 q 28 2094 28 2096 l 28 2083 q 26 2053 28 2071 l 31 2037 q 26 1993 26 2006 q 31 1947 26 1978 l 28 1933 q 31 1898 31 1916 l 31 1879 l 28 1852 q 31 1849 31 1852 q 28 1841 31 1847 q 31 1811 31 1823 l 31 1801 q 28 1790 31 1794 q 31 1779 31 1785 l 31 1725 q 28 1684 31 1711 q 31 1678 31 1684 q 26 1627 26 1649 q 37 1613 26 1619 q 186 1635 180 1635 l 186 1632 q 218 1638 216 1635 q 229 1635 223 1635 q 289 1643 256 1635 l 389 1638 q 392 1640 389 1640 q 403 1638 397 1638 l 406 1638 l 411 1640 q 506 1622 470 1632 q 509 1624 506 1624 q 544 1605 544 1610 q 560 1584 550 1605 l 560 1573 q 416 1499 560 1518 l 397 1505 l 378 1499 q 362 1508 378 1506 l 359 1508 l 349 1499 l 332 1499 l 324 1505 l 319 1502 l 316 1508 q 308 1505 313 1508 q 281 1508 304 1505 l 278 1508 q 281 1434 281 1457 l 281 1432 q 289 1394 281 1429 l 289 1296 q 294 1274 294 1277 l 294 1209 q 300 1187 300 1190 l 300 1133 q 406 1160 380 1160 l 419 1158 l 444 1160 l 454 1158 q 463 1160 460 1160 q 473 1158 469 1160 q 490 1160 488 1160 q 663 1101 590 1160 q 723 995 704 1074 q 712 970 720 980 q 623 870 699 920 q 500 835 605 848 q 479 838 498 835 q 463 835 465 835 l 444 840 q 435 835 437 835 l 433 835 q 378 838 409 835 q 370 835 376 838 l 305 840 q 302 838 305 838 l 302 840 q 210 862 237 851 q 202 859 208 862 q 148 876 194 859 l 142 873 q 91 889 134 883 l 83 889 q 66 859 75 889 q 69 848 69 854 l 69 767 q 77 707 69 740 l 75 702 l 77 696 q 75 631 75 636 q 77 585 75 617 q 72 539 72 546 q 75 509 72 533 q 69 444 69 475 l 69 390 q 66 368 69 379 l 69 352 q 72 138 69 279 q 75 116 75 123 q 61 37 68 60 l 66 35 l 102 35 q 132 37 113 35 l 159 32 q 170 35 163 35 l 178 35 q 227 37 201 35 l 240 35 q 275 37 263 37 q 316 32 290 37 q 362 35 353 35 q 403 29 366 35 l 416 32 q 419 29 416 29 l 425 32 l 430 29 l 446 32 l 452 29 q 490 35 462 29 q 492 32 490 32 q 574 43 504 37 q 699 86 680 70 q 769 132 766 132 q 834 197 829 197 q 926 338 882 256 q 964 501 964 494 l 962 515 q 964 517 964 515 l 962 523 q 970 566 967 535 q 967 569 967 566 l 975 607 q 970 637 975 623 q 975 672 972 643 q 972 675 972 672 l 975 680 l 972 707 q 975 715 972 710 l 970 778 q 972 800 972 781 l 972 802 l 970 808 q 972 810 972 808 l 972 819 l 970 824 q 975 838 975 824 q 972 846 975 840 l 975 846 q 972 903 975 855 q 970 911 972 905 l 972 911 q 967 943 972 930 q 972 960 970 943 q 964 995 968 989 q 970 1000 970 995 l 970 1003 q 967 1014 970 1009 l 970 1019 q 959 1082 964 1072 l 962 1087 q 951 1158 956 1158 q 954 1168 951 1164 l 951 1174 l 954 1179 q 943 1204 946 1202 q 875 1301 941 1227 q 764 1375 811 1360 l 764 1377 q 856 1451 828 1412 q 910 1516 898 1485 q 959 1640 945 1553 l 956 1654 q 964 1697 956 1657 l 962 1703 l 972 1776 l 970 1787 l 975 1841 l 970 1879 q 972 1904 972 1894 q 970 1912 972 1906 l 972 1912 q 970 1925 972 1921 q 972 1950 972 1940 l 972 1990 q 964 2099 972 2049 q 910 2264 943 2229 q 845 2340 884 2309 q 720 2416 808 2389 q 452 2454 621 2435 q 449 2452 452 2452 l 449 2454 "},"4":{"ha":982,"x_min":20,"x_max":962,"o":"m 848 2458 q 826 2450 826 2455 q 788 2439 788 2443 q 688 2412 688 2417 q 617 2403 643 2412 l 536 2403 l 460 2417 l 452 2417 q 438 2379 446 2417 l 438 2374 q 441 2363 438 2367 q 433 2325 435 2325 q 411 2219 427 2317 q 414 2216 414 2219 q 406 2181 406 2205 l 408 2176 l 403 2173 q 338 1921 403 2165 l 340 1915 q 332 1902 335 1902 q 289 1790 317 1835 l 292 1785 q 281 1766 281 1781 l 227 1625 l 229 1619 q 216 1600 225 1600 q 121 1392 161 1461 q 20 1240 56 1282 q 34 1134 28 1240 q 31 1126 31 1128 q 34 1123 34 1126 l 31 1107 q 37 1034 31 1099 l 37 1023 l 39 1009 q 37 1006 37 1009 q 39 998 37 1004 q 37 974 37 983 l 37 879 l 34 865 q 39 819 39 865 q 23 670 23 697 l 23 662 q 31 654 27 654 l 42 654 q 91 665 71 662 l 91 662 q 324 700 232 700 q 332 703 327 700 q 338 700 332 700 l 338 572 q 332 475 338 525 q 335 467 335 469 q 332 453 332 462 l 332 445 l 335 439 q 332 437 332 439 l 332 426 q 335 412 332 417 l 332 396 l 332 350 q 324 298 332 340 l 327 293 q 300 16 314 205 q 343 0 321 0 q 351 3 349 3 l 357 0 q 376 8 376 3 l 381 5 l 406 5 l 419 8 q 422 5 419 5 q 465 14 446 9 q 468 11 465 11 l 481 11 q 511 16 500 11 l 511 14 l 536 16 l 549 14 q 582 22 576 19 q 585 19 582 19 l 601 22 l 606 19 l 636 24 q 639 22 636 22 q 644 27 644 22 q 647 24 647 27 l 658 27 q 690 24 671 27 q 774 33 705 29 q 780 30 774 30 q 810 57 807 40 q 804 81 810 69 q 807 84 807 81 l 807 87 q 802 92 807 92 l 804 98 l 802 103 l 804 103 q 796 122 802 122 q 799 125 796 125 q 793 138 799 130 q 796 141 796 138 l 796 149 q 788 157 792 157 q 793 171 788 162 q 772 380 772 303 l 774 393 q 772 396 772 393 q 774 418 772 415 q 772 448 772 436 l 772 502 l 769 515 q 772 518 772 515 q 769 526 772 521 q 772 537 772 531 l 769 543 l 772 543 q 769 553 772 549 q 772 578 772 568 l 772 635 l 774 654 q 772 656 772 654 q 774 659 774 656 q 894 648 857 656 q 897 651 894 651 q 951 643 897 648 q 962 673 958 643 q 956 686 957 673 l 956 703 q 954 732 956 714 q 956 741 956 738 q 951 762 951 754 q 954 784 951 769 l 948 806 q 951 814 948 808 q 945 836 945 831 q 948 838 948 836 l 943 849 l 945 854 q 943 863 945 857 l 948 865 q 945 873 948 868 q 948 882 948 879 q 940 922 948 895 q 943 925 943 922 l 943 928 l 940 933 l 943 933 l 940 952 l 940 996 l 937 1009 q 940 1012 940 1009 l 937 1028 l 937 1031 q 940 1042 937 1037 q 937 1053 937 1046 l 937 1061 q 940 1072 937 1067 q 937 1082 937 1076 l 937 1120 l 940 1153 q 937 1158 937 1153 l 940 1164 q 935 1191 935 1185 l 935 1196 q 937 1329 935 1245 q 932 1335 937 1334 q 926 1329 927 1335 q 924 1332 924 1329 l 850 1313 q 840 1316 846 1316 l 837 1316 q 821 1310 829 1316 q 810 1313 814 1310 q 755 1305 800 1309 q 753 1308 755 1308 l 731 1302 q 728 1305 731 1305 l 658 1305 l 631 1302 q 628 1305 631 1305 l 623 1302 l 617 1305 q 481 1299 576 1299 l 473 1299 l 460 1302 q 457 1299 460 1299 l 457 1302 l 430 1299 l 425 1299 l 425 1302 l 492 1424 q 547 1522 537 1522 l 601 1633 q 696 1855 669 1809 q 783 2116 750 2045 l 826 2308 q 850 2452 831 2327 l 848 2458 m 669 2431 l 669 2425 l 680 2425 l 680 2431 l 669 2431 m 397 2333 l 397 2327 l 403 2327 l 403 2333 l 397 2333 "},"5":{"ha":1123,"x_min":20,"x_max":1103,"o":"m 1014 2648 q 856 2637 978 2642 q 848 2639 850 2639 q 840 2637 845 2639 l 834 2639 q 772 2634 810 2639 q 750 2639 755 2639 q 747 2637 750 2637 q 736 2639 743 2639 l 720 2639 l 715 2637 q 712 2639 715 2639 l 674 2639 l 669 2637 l 666 2642 q 655 2639 660 2642 q 644 2642 649 2639 q 633 2639 635 2639 q 623 2642 627 2639 q 612 2639 613 2639 q 503 2637 511 2637 l 492 2639 q 490 2637 492 2637 q 392 2634 479 2637 q 357 2637 358 2637 q 349 2634 351 2634 q 308 2637 321 2637 q 275 2634 290 2637 q 39 2643 193 2635 q 47 2466 37 2606 l 47 2412 l 50 2406 q 45 2365 45 2406 l 45 2314 l 47 2300 q 42 2273 45 2300 q 45 2271 45 2273 l 42 2260 q 50 2241 47 2252 l 47 2241 q 50 2233 47 2238 q 45 2216 45 2221 q 50 2165 45 2211 l 50 2140 q 53 2051 50 2097 l 47 1988 q 50 1975 50 1984 l 50 1950 q 56 1899 50 1921 q 50 1877 50 1889 l 50 1858 l 53 1853 l 50 1853 q 53 1817 50 1841 l 50 1804 q 56 1766 56 1773 q 50 1728 50 1737 q 53 1676 50 1713 l 50 1657 l 53 1641 l 50 1630 q 53 1622 53 1625 l 50 1617 l 53 1611 l 50 1606 q 56 1571 52 1600 q 50 1544 51 1571 l 50 1492 l 47 1473 q 50 1470 50 1473 l 42 1397 q 45 1389 45 1392 q 31 1286 37 1389 q 77 1275 31 1277 q 85 1278 80 1275 l 85 1275 l 164 1302 q 273 1326 244 1317 q 275 1324 273 1324 l 281 1326 l 281 1324 q 338 1335 316 1329 l 338 1332 q 368 1335 344 1332 q 519 1324 435 1335 q 522 1326 519 1326 q 582 1316 522 1322 q 690 1253 646 1298 q 707 1142 707 1191 q 709 1134 707 1139 l 707 1134 q 712 1066 712 1090 q 715 1058 712 1063 q 712 1055 712 1058 l 712 1042 l 715 1025 l 712 1020 q 715 987 712 1002 q 712 895 712 935 l 712 819 l 715 806 q 707 700 712 806 l 709 689 q 701 635 706 646 l 704 629 q 701 621 704 627 l 704 616 q 685 545 696 574 q 574 420 637 420 q 536 458 564 420 q 514 505 521 499 q 503 556 514 520 l 506 583 l 503 608 q 506 616 503 610 q 500 648 504 623 q 503 651 503 648 l 500 665 q 503 675 500 671 q 500 686 500 680 l 500 692 q 506 708 500 699 l 503 713 q 509 732 503 719 l 506 738 q 511 762 509 744 q 509 765 509 762 q 511 773 511 770 q 509 784 511 779 l 511 789 q 509 806 511 802 q 517 852 512 846 l 511 852 l 514 884 l 511 903 q 517 917 517 903 l 517 947 l 514 952 q 525 1015 525 976 l 525 1017 l 522 1023 q 533 1074 533 1023 l 533 1101 l 536 1115 q 533 1118 533 1115 l 536 1123 q 528 1145 536 1133 q 481 1137 497 1142 l 481 1139 q 308 1123 433 1131 q 292 1126 294 1126 q 191 1115 292 1118 l 151 1115 l 151 1123 l 148 1123 l 134 1112 q 123 1115 128 1112 q 85 1112 100 1112 l 77 1112 q 69 1096 71 1112 q 72 1072 69 1086 q 64 1028 69 1066 l 66 1017 q 53 930 56 1017 q 56 928 56 930 q 42 795 48 928 q 28 716 33 795 l 31 711 q 26 629 26 679 q 31 624 26 624 q 20 496 26 595 q 28 475 22 496 q 23 469 24 475 l 23 461 q 31 336 31 347 q 28 331 28 336 l 42 258 q 113 117 48 205 q 281 8 187 50 q 289 11 283 8 q 408 -11 323 -11 l 414 -8 q 444 -16 414 -10 l 449 -14 q 473 -16 464 -16 l 490 -16 l 495 -14 q 509 -19 495 -19 l 511 -19 q 576 -22 538 -19 l 582 -19 l 582 -22 q 590 -19 585 -22 q 633 -24 602 -24 l 658 -24 q 669 -27 664 -24 q 680 -24 673 -24 l 690 -24 q 812 -14 728 -24 q 932 35 909 7 q 1038 171 995 58 q 1065 388 1059 302 l 1065 404 q 1070 410 1065 409 q 1073 464 1070 424 l 1070 469 q 1076 477 1073 469 q 1073 505 1076 490 q 1078 540 1076 534 q 1076 551 1076 545 l 1078 567 l 1076 572 l 1078 589 l 1078 643 q 1076 665 1078 654 q 1078 675 1078 674 q 1081 884 1081 829 q 1084 906 1081 891 q 1081 909 1081 906 l 1086 958 q 1081 1001 1081 969 l 1081 1020 l 1084 1034 q 1078 1093 1080 1034 l 1078 1099 l 1081 1112 q 1076 1164 1078 1112 l 1078 1177 l 1073 1226 l 1076 1232 l 1073 1248 l 1073 1256 l 1076 1270 q 1073 1272 1073 1270 l 1076 1286 q 1065 1356 1071 1305 q 1067 1359 1067 1356 q 1065 1370 1065 1364 l 1065 1383 l 1067 1400 l 1054 1459 l 1057 1465 q 1010 1619 1054 1514 q 831 1717 970 1717 q 764 1701 764 1706 l 753 1706 l 745 1701 l 736 1701 q 677 1690 694 1701 l 650 1690 q 362 1617 502 1663 q 359 1619 362 1619 q 362 1622 359 1622 l 359 1636 l 359 1655 q 370 1723 367 1662 l 368 1728 q 376 1799 372 1745 q 419 1812 376 1807 q 422 1809 419 1809 q 560 1831 473 1820 l 590 1831 l 606 1834 q 620 1831 611 1831 l 639 1831 l 644 1834 q 647 1831 644 1831 l 655 1831 l 669 1834 q 671 1831 669 1831 l 677 1834 q 693 1831 689 1834 q 701 1834 696 1831 q 755 1831 741 1831 q 777 1834 767 1831 q 804 1831 791 1831 l 823 1831 q 1002 1826 949 1831 q 1019 1839 1002 1829 q 1008 1940 1013 1929 l 1010 1940 q 1008 1948 1010 1948 q 994 2081 999 2062 l 997 2091 q 991 2138 991 2113 l 991 2159 l 994 2173 q 991 2176 991 2173 q 994 2203 991 2188 q 991 2219 994 2205 l 994 2233 l 991 2246 q 994 2257 991 2252 l 989 2279 q 994 2341 994 2293 l 994 2393 q 1000 2466 994 2400 l 1000 2474 l 1002 2488 q 1000 2490 1000 2488 l 1002 2490 q 1014 2648 1002 2537 m 1097 1326 l 1097 1321 l 1103 1321 l 1103 1326 l 1097 1326 "},"6":{"ha":1004,"x_min":20,"x_max":983,"o":"m 856 2620 q 853 2618 856 2618 q 774 2612 801 2618 q 761 2615 770 2615 l 747 2615 l 728 2612 q 726 2615 728 2615 l 712 2607 q 707 2612 712 2612 l 690 2612 l 677 2610 q 674 2612 677 2612 l 658 2610 l 639 2610 l 625 2612 l 511 2588 l 511 2591 q 481 2582 481 2587 q 359 2534 441 2582 q 256 2452 328 2528 l 191 2371 q 194 2368 191 2368 q 156 2284 176 2335 l 159 2279 l 156 2279 q 96 2072 96 2110 l 96 2070 l 99 2064 q 85 2032 92 2064 l 85 2029 l 88 2024 q 56 1823 69 1890 l 58 1817 q 45 1714 50 1802 l 45 1690 l 47 1676 q 42 1644 45 1676 q 45 1641 45 1644 l 42 1641 l 45 1609 l 45 1590 q 47 1579 45 1584 q 45 1568 45 1574 l 45 1552 q 50 1516 45 1529 l 47 1497 q 50 1443 47 1480 q 47 1408 47 1409 l 56 1326 q 50 1308 50 1313 q 56 1264 50 1299 q 50 1237 51 1264 q 53 1226 50 1231 l 50 1221 q 56 1164 50 1193 q 50 1145 53 1164 q 53 1134 53 1140 l 53 1099 l 50 1072 q 56 1058 53 1072 q 50 1028 52 1058 q 53 1012 53 1014 q 50 996 50 998 q 56 930 56 961 l 56 928 l 58 922 q 53 882 54 922 l 53 873 l 56 868 q 50 833 52 868 l 53 819 l 50 808 q 56 779 53 804 l 53 765 l 56 760 l 50 743 l 53 724 l 50 708 q 53 705 53 708 q 50 703 50 705 l 50 659 q 47 629 50 648 q 50 621 50 624 q 47 553 47 581 l 47 537 l 50 521 q 47 507 47 516 l 47 491 q 50 461 47 479 l 45 437 l 53 399 l 50 393 q 56 334 50 368 q 99 198 72 227 q 96 195 99 195 q 107 163 99 174 q 240 41 166 66 q 419 8 284 24 l 422 8 q 433 11 428 8 q 495 0 469 7 l 566 5 q 590 3 576 3 q 609 5 598 3 q 620 3 614 3 q 677 8 652 3 q 693 3 677 5 q 745 14 712 11 q 848 79 823 44 q 899 141 871 102 q 916 179 908 174 q 954 320 932 232 l 951 326 l 954 339 q 951 374 951 357 l 951 380 q 962 434 956 384 l 959 439 q 964 491 961 445 q 962 494 962 491 q 964 502 962 496 q 956 575 962 564 q 962 667 962 605 l 962 746 q 956 768 962 758 l 959 768 q 954 806 959 782 q 956 808 956 806 q 951 836 954 813 q 956 852 951 841 q 948 882 951 864 l 951 887 q 943 944 945 911 q 945 949 945 944 q 943 971 945 956 q 945 979 945 977 q 886 1183 924 1128 q 802 1278 873 1217 q 677 1310 743 1310 q 669 1308 674 1310 q 658 1310 664 1310 l 639 1310 q 525 1294 607 1310 l 522 1294 q 519 1326 522 1308 q 522 1348 522 1341 l 519 1359 q 522 1362 522 1359 l 519 1367 q 522 1370 522 1367 l 522 1389 q 525 1419 522 1400 q 522 1430 522 1423 l 525 1435 l 522 1440 q 528 1476 525 1473 q 525 1487 525 1480 q 552 1652 525 1569 q 623 1706 569 1688 q 747 1733 737 1723 l 755 1733 q 834 1744 783 1733 l 845 1742 l 850 1744 l 856 1742 q 918 1752 901 1745 l 924 1750 l 932 1755 l 962 1755 l 975 1769 q 962 1855 964 1817 q 964 1858 964 1855 q 962 1866 964 1861 q 964 1869 964 1866 l 964 1872 q 962 1885 964 1881 l 964 1902 l 964 1918 l 962 1923 q 967 1980 967 1923 q 970 2390 967 2079 q 975 2403 970 2395 q 978 2569 975 2457 q 983 2593 983 2587 l 983 2612 q 978 2618 983 2617 q 943 2612 955 2618 q 897 2618 943 2617 l 869 2618 l 856 2620 m 544 868 q 593 958 578 951 l 606 958 q 699 694 699 880 q 696 670 696 680 l 699 659 q 696 656 696 659 l 699 643 q 696 621 696 624 q 701 586 696 618 q 699 575 701 580 l 701 570 q 677 407 701 456 q 593 315 636 315 q 574 320 574 315 q 533 491 541 320 l 536 505 q 530 529 533 505 q 533 532 533 529 l 530 537 q 533 594 530 547 q 530 635 533 611 q 533 689 533 654 l 533 711 q 536 722 533 717 q 533 732 533 726 l 533 770 l 530 803 q 547 863 535 803 l 544 868 m 20 160 l 20 155 l 26 155 q 20 160 26 159 "},"7":{"ha":1036,"x_min":18,"x_max":1015,"o":"m 44 2345 q 64 2227 39 2311 l 61 2227 q 72 2162 66 2162 q 66 2146 72 2155 q 69 2121 69 2131 l 69 2091 l 72 2086 q 66 2059 69 2086 q 69 2056 69 2059 q 66 2045 66 2051 l 66 2037 l 69 2021 l 61 1956 q 64 1910 64 1927 q 53 1847 64 1876 q 56 1839 53 1845 q 53 1828 53 1834 l 53 1785 l 50 1771 q 53 1769 53 1771 l 50 1763 q 53 1755 50 1761 q 50 1752 50 1755 l 50 1744 q 42 1657 42 1672 l 45 1652 q 18 1396 33 1524 q 153 1402 117 1394 q 197 1400 181 1400 q 221 1405 212 1400 l 221 1402 q 232 1405 227 1402 l 248 1402 q 392 1411 263 1402 q 582 1408 454 1418 l 582 1405 q 568 1359 582 1402 q 530 1275 554 1337 l 495 1191 q 468 1126 468 1136 q 454 1090 460 1090 q 419 1004 435 1030 q 346 806 376 876 q 324 724 336 754 q 270 553 270 562 l 235 429 q 216 391 216 400 l 218 385 q 191 312 216 372 l 191 309 l 194 304 q 175 247 183 294 q 178 244 178 247 q 164 184 164 208 q 151 119 151 168 q 137 60 140 101 l 142 57 q 137 27 140 53 q 153 0 150 0 l 159 0 l 159 5 q 161 3 161 5 q 332 33 236 22 l 368 33 l 373 35 q 376 33 373 33 l 378 33 q 403 35 388 33 q 411 33 408 33 q 416 38 411 37 l 422 38 q 427 33 427 38 q 444 35 439 33 l 487 30 q 498 33 492 33 q 547 22 534 26 q 557 24 553 22 q 571 22 562 22 q 620 5 609 5 l 623 5 l 631 11 l 631 14 q 601 298 608 107 q 604 301 604 298 l 601 307 q 604 317 601 313 q 601 388 601 363 l 601 399 q 606 439 601 414 l 604 445 q 606 456 606 450 l 606 458 l 604 464 q 609 475 607 464 l 606 494 q 609 515 609 513 q 606 524 609 518 q 636 705 608 597 q 671 838 650 765 q 726 987 695 928 l 810 1191 q 867 1316 867 1310 q 907 1389 907 1379 q 937 1438 916 1398 q 1010 1549 1010 1541 q 1008 1560 1008 1554 l 1015 1581 l 1012 1587 l 1015 1587 q 1012 1603 1015 1599 q 1015 1614 1012 1609 q 1012 1693 1012 1662 l 1012 1750 l 1015 1769 q 1009 1826 1010 1769 q 1012 1847 1009 1832 q 1009 1855 1009 1853 q 1010 1893 1008 1874 q 1008 1896 1008 1893 q 1010 1899 1010 1896 l 1010 1923 q 1013 1994 1010 1948 q 1008 2010 1008 2005 q 1013 2021 1008 2014 l 1013 2108 l 1010 2113 q 1013 2116 1013 2113 l 1013 2151 l 1010 2157 l 1013 2157 q 1010 2167 1013 2163 q 1011 2335 1010 2176 q 880 2314 906 2317 q 878 2317 880 2317 q 872 2311 873 2317 q 864 2314 869 2311 l 840 2311 l 834 2314 q 674 2306 809 2306 q 533 2306 539 2306 l 528 2303 l 528 2306 l 514 2303 q 506 2306 511 2303 l 500 2303 q 490 2306 496 2306 l 473 2306 q 44 2345 217 2309 "},"8":{"ha":1028,"x_min":20,"x_max":1008,"o":"m 498 2588 q 457 2582 492 2585 q 449 2585 452 2585 q 438 2582 439 2582 q 430 2585 435 2582 q 359 2572 410 2577 q 189 2507 224 2541 q 104 2433 141 2488 q 37 2167 82 2433 l 39 2162 q 26 2081 31 2093 l 28 2075 q 26 2067 28 2072 l 28 2062 l 26 2062 l 28 2048 l 26 2043 l 28 2037 l 23 2007 q 26 2005 26 2007 l 23 1999 l 26 1967 l 23 1953 q 26 1950 26 1953 l 23 1950 q 26 1942 23 1948 l 23 1923 q 26 1912 23 1917 q 23 1902 23 1908 l 23 1899 l 26 1893 q 23 1891 23 1893 q 26 1880 23 1885 q 20 1834 24 1876 l 23 1828 l 20 1823 q 23 1804 20 1815 q 20 1782 20 1794 l 20 1780 l 23 1766 q 20 1761 20 1766 q 26 1739 26 1742 l 26 1706 l 28 1693 q 26 1690 26 1693 q 31 1674 26 1685 q 28 1649 28 1659 l 28 1641 q 34 1625 28 1634 q 31 1614 34 1619 l 34 1609 q 31 1587 34 1602 l 34 1573 l 31 1563 l 37 1560 q 34 1538 37 1553 l 45 1468 q 42 1465 42 1468 q 53 1408 47 1427 q 50 1405 50 1408 q 53 1402 50 1402 q 66 1356 62 1356 q 64 1354 66 1354 q 153 1234 76 1291 q 251 1177 242 1177 l 251 1172 q 194 1145 203 1145 q 96 1053 98 1072 q 66 990 66 1010 q 39 827 47 933 l 42 814 q 26 662 26 718 l 26 624 q 28 600 26 614 q 26 581 26 596 l 26 548 q 31 526 26 536 q 28 515 28 522 l 28 513 q 31 502 28 507 q 28 491 28 497 l 28 442 l 31 429 q 28 426 28 429 l 31 410 l 31 388 q 42 312 31 351 q 39 304 42 309 q 61 222 51 235 q 134 117 63 186 q 210 60 197 60 q 359 8 296 8 q 368 11 362 8 q 387 3 368 7 q 473 0 429 3 q 490 3 488 3 l 506 0 l 522 3 q 536 0 527 0 l 538 0 l 650 19 q 742 52 701 33 l 747 49 q 785 68 785 58 q 894 146 832 79 q 916 182 894 156 q 972 309 959 256 l 970 315 q 994 412 970 317 l 991 423 l 1000 505 l 997 518 l 1002 551 q 1000 553 1000 551 q 1008 578 1004 569 q 1005 602 1008 592 l 1008 621 q 1005 670 1008 637 q 1008 686 1005 672 l 1002 754 q 1005 784 1005 764 l 1005 792 l 1002 798 q 1005 800 1005 798 l 1005 814 l 1002 827 q 1005 830 1005 827 q 1002 854 1002 845 l 1002 868 l 1000 873 l 1002 873 q 989 939 994 933 q 991 941 991 939 l 991 947 q 983 990 983 979 q 945 1088 983 1007 q 796 1245 886 1207 q 745 1264 746 1258 q 807 1297 798 1287 q 907 1381 832 1301 q 959 1557 959 1478 l 959 1560 q 970 1622 964 1563 q 967 1625 967 1622 q 970 1628 967 1628 q 997 1790 983 1738 q 991 1893 997 1812 l 994 1904 q 991 1907 991 1904 l 994 1907 q 989 1926 994 1912 l 994 1929 q 991 1948 994 1937 q 997 1983 997 1976 q 991 2013 994 2009 q 997 2035 995 2013 q 989 2102 997 2048 q 991 2105 991 2102 q 986 2135 989 2110 q 989 2138 989 2135 q 975 2200 982 2200 q 978 2203 975 2203 q 964 2254 971 2254 q 940 2360 956 2302 q 880 2460 916 2424 q 818 2512 818 2509 q 761 2547 761 2542 q 636 2582 670 2582 l 609 2582 l 595 2585 q 587 2582 595 2582 l 574 2585 q 571 2582 574 2582 l 571 2585 l 544 2582 q 498 2588 500 2585 m 454 2108 q 487 2219 471 2174 q 557 2284 517 2270 q 609 2257 598 2284 q 642 2078 620 2257 q 639 2075 639 2078 l 639 2072 l 642 2056 l 639 2051 q 647 1978 644 1980 q 644 1967 644 1973 l 644 1956 l 647 1950 q 644 1948 644 1950 q 647 1937 644 1942 l 644 1931 l 647 1926 q 644 1915 644 1921 l 644 1893 q 647 1883 644 1887 l 644 1877 q 647 1780 647 1790 l 644 1769 q 647 1766 647 1769 q 636 1554 642 1719 q 579 1397 636 1440 l 566 1397 q 495 1459 536 1397 q 449 1619 479 1485 l 452 1625 q 444 1714 446 1664 q 446 1723 446 1720 l 438 1817 q 441 1839 441 1828 l 441 1880 l 438 1885 q 441 1888 441 1885 l 441 1902 l 438 1918 q 444 1969 441 1921 q 441 1978 444 1972 q 457 2102 452 2094 l 454 2108 m 476 914 l 503 985 q 552 1036 516 1021 q 598 979 583 1036 l 595 979 q 614 890 614 899 q 612 846 614 867 q 614 819 614 832 l 612 808 q 617 792 615 808 q 614 784 617 789 l 617 779 q 614 732 617 764 l 617 713 q 614 703 614 709 l 617 697 q 614 686 614 692 l 614 654 l 617 648 l 614 648 q 620 635 614 644 l 617 635 q 620 624 617 629 q 617 616 620 621 l 620 602 q 614 559 614 568 l 617 540 q 614 534 614 540 l 617 529 q 604 475 614 501 l 612 475 l 612 453 q 595 407 603 407 q 525 347 595 376 q 468 404 468 391 l 454 540 l 457 540 l 454 572 l 454 637 q 479 906 465 871 q 476 914 479 909 "},"9":{"ha":1180,"x_min":20,"x_max":1160,"o":"m 623 2668 q 606 2662 615 2668 l 593 2665 l 587 2662 q 585 2665 587 2665 l 579 2662 l 579 2665 q 541 2662 564 2665 l 528 2665 q 519 2662 522 2662 l 509 2665 l 476 2660 q 473 2662 476 2662 q 468 2657 469 2662 q 465 2660 465 2657 q 457 2657 463 2660 l 452 2660 q 305 2638 420 2660 q 167 2543 222 2604 q 61 2351 116 2509 q 64 2340 64 2346 l 64 2323 q 58 2310 64 2310 q 37 2150 45 2191 q 39 2134 39 2136 l 34 2109 l 37 2104 q 26 2047 26 2060 l 26 1922 l 23 1903 q 26 1900 26 1903 l 20 1851 q 23 1849 23 1851 l 20 1849 q 23 1805 20 1833 q 20 1797 23 1803 q 23 1786 23 1792 l 23 1770 l 20 1754 q 23 1746 23 1748 q 20 1727 23 1737 l 23 1721 l 20 1708 q 23 1697 20 1702 q 20 1672 20 1682 l 20 1618 l 23 1613 l 20 1613 q 28 1515 23 1539 l 26 1510 q 37 1428 32 1440 q 34 1426 34 1428 l 34 1423 l 39 1415 l 39 1404 q 50 1366 42 1366 l 47 1350 q 53 1312 53 1324 q 91 1217 63 1248 q 189 1133 109 1166 q 349 1097 300 1097 q 425 1105 399 1100 l 425 1103 q 644 1143 644 1128 q 736 1171 702 1155 l 742 1162 l 742 1133 q 745 1108 742 1118 q 742 1081 742 1094 l 742 986 l 745 981 l 742 981 q 745 848 745 868 q 736 736 736 753 l 736 690 q 720 606 736 650 q 620 533 696 533 l 601 571 q 582 715 590 625 q 585 718 585 715 q 582 731 585 726 l 585 747 l 585 818 q 579 823 585 823 l 582 829 l 582 840 q 566 845 576 840 q 555 842 561 842 l 544 842 q 481 837 496 842 q 479 840 481 840 l 430 840 q 387 837 414 840 q 378 840 381 840 l 362 837 l 338 840 q 335 837 338 837 q 332 840 335 840 l 327 837 q 113 856 140 856 l 102 856 q 80 802 85 856 q 83 793 80 799 q 80 755 80 770 l 80 655 q 83 609 80 641 q 80 604 80 609 q 83 601 83 604 q 80 598 80 601 l 80 593 q 83 582 80 587 l 80 576 q 113 248 94 295 q 186 99 149 132 q 264 26 221 41 q 425 -20 332 -20 q 444 -15 425 -18 l 444 -18 q 452 -15 446 -18 l 471 -18 q 517 -12 488 -18 q 519 -15 517 -15 q 541 -9 531 -15 q 544 -12 541 -12 q 560 -7 551 -12 l 571 -9 q 680 12 644 0 l 680 9 q 753 34 753 26 q 755 31 755 34 q 818 58 764 31 q 918 145 850 83 q 943 186 936 185 q 975 256 975 245 q 1021 332 988 273 q 1038 381 1031 374 l 1038 403 q 1048 414 1046 403 q 1046 422 1048 416 q 1051 444 1049 422 q 1048 446 1048 444 q 1067 511 1055 446 l 1067 514 l 1065 519 q 1067 522 1067 519 l 1067 528 l 1065 533 l 1067 533 l 1078 604 l 1076 609 l 1078 614 l 1076 620 l 1078 625 q 1073 652 1078 635 q 1078 666 1073 657 q 1076 674 1078 669 l 1078 693 q 1076 701 1078 696 l 1078 718 l 1078 734 l 1076 739 l 1078 739 q 1076 758 1078 755 q 1078 788 1078 777 l 1078 791 q 1070 883 1078 827 q 1073 907 1073 898 l 1070 913 q 1076 918 1076 913 l 1073 924 l 1076 924 q 1070 940 1070 932 l 1070 962 q 1067 1000 1070 983 q 1070 1027 1070 1014 q 1065 1073 1070 1058 q 1067 1116 1067 1101 l 1067 1173 l 1070 1187 q 1067 1190 1067 1187 q 1073 1260 1073 1234 l 1073 1282 q 1078 1287 1073 1286 q 1076 1339 1078 1302 q 1078 1366 1076 1342 l 1076 1371 l 1078 1377 q 1076 1404 1078 1380 l 1078 1415 q 1076 1417 1076 1415 q 1081 1423 1076 1422 q 1078 1434 1081 1429 l 1081 1439 l 1076 1463 q 1078 1493 1076 1470 q 1073 1529 1078 1504 q 1078 1545 1078 1537 l 1078 1588 l 1076 1594 q 1081 1621 1078 1594 l 1078 1637 l 1078 1651 q 1081 1675 1078 1660 q 1078 1683 1078 1681 q 1081 1710 1078 1687 l 1078 1721 q 1081 1729 1081 1721 l 1078 1735 q 1084 1743 1081 1735 q 1081 1751 1084 1746 q 1084 1754 1084 1751 l 1084 1759 q 1078 1765 1084 1764 q 1081 1794 1078 1771 q 1076 1816 1081 1806 l 1081 1841 l 1078 1860 l 1081 1879 q 1073 1960 1073 1924 q 1076 2028 1073 1983 q 1073 2030 1073 2028 l 1076 2030 l 1073 2044 q 1076 2063 1073 2052 q 1073 2074 1073 2068 q 1076 2085 1073 2080 q 1067 2147 1074 2090 l 1070 2153 l 1051 2283 q 1013 2429 1031 2397 q 994 2470 994 2462 q 948 2527 962 2504 q 894 2589 907 2566 q 761 2646 799 2639 l 755 2644 q 669 2654 694 2654 l 658 2654 q 623 2668 649 2654 m 815 2654 l 815 2652 l 821 2652 l 821 2654 l 815 2654 m 530 1830 q 547 2174 530 2105 q 571 2277 547 2187 q 620 2340 603 2328 l 628 2340 l 633 2337 q 707 2106 707 2234 l 704 2101 l 712 2030 q 709 2001 709 2007 q 715 1889 709 1982 q 699 1588 709 1692 q 701 1586 701 1588 q 590 1442 654 1442 q 582 1444 585 1444 q 538 1613 555 1446 l 541 1613 l 533 1675 q 536 1678 536 1675 q 530 1713 532 1707 l 533 1713 q 530 1803 533 1729 q 533 1816 530 1811 l 530 1830 m 1154 1803 l 1154 1800 l 1160 1800 l 1160 1803 l 1154 1803 "}," ":{"ha":459,"x_min":0,"x_max":0,"o":""},"!":{"ha":575,"x_min":17,"x_max":555,"o":"m 549 2493 q 422 2452 494 2493 l 302 2417 l 178 2393 q 175 2395 178 2395 l 161 2395 l 156 2393 q 94 2398 156 2397 q 72 2374 77 2398 l 72 2363 q 80 2287 77 2337 l 77 2271 q 83 2189 83 2207 l 80 2157 q 88 2094 85 2157 q 85 2035 85 2047 q 91 1980 85 2020 q 88 1975 88 1980 l 91 1969 q 88 1967 88 1969 l 88 1937 l 91 1931 l 88 1931 q 91 1904 91 1908 q 85 1883 91 1893 l 88 1872 q 83 1847 88 1858 q 94 1733 87 1836 l 94 1728 l 96 1723 q 94 1720 94 1723 l 94 1712 q 88 1660 94 1706 l 88 1628 q 94 1622 88 1622 q 88 1600 94 1617 q 91 1530 91 1555 l 91 1525 q 80 1392 91 1456 q 85 1364 82 1369 q 75 1278 83 1306 q 77 1275 77 1278 q 69 1256 72 1274 l 69 1237 l 72 1204 q 69 1202 69 1204 q 72 1194 72 1196 q 69 1172 72 1187 l 72 1166 l 69 1156 q 66 1042 69 1128 l 69 1023 l 66 1009 q 69 903 69 938 q 72 895 69 901 q 66 863 68 895 l 66 860 q 104 879 104 871 q 340 952 278 939 l 438 977 q 473 1004 473 977 l 471 1015 l 473 1028 q 471 1031 473 1031 q 463 1112 467 1103 q 465 1123 465 1117 l 465 1128 l 463 1142 q 468 1150 465 1142 q 465 1158 468 1153 q 468 1161 468 1158 l 468 1188 l 465 1194 l 468 1194 q 471 1245 468 1219 q 468 1261 471 1247 l 473 1302 l 471 1308 q 476 1332 471 1312 l 473 1337 q 476 1345 473 1340 q 471 1362 476 1351 l 473 1373 q 471 1389 473 1375 l 476 1397 q 468 1427 468 1426 q 473 1432 473 1427 l 473 1484 q 471 1530 473 1498 q 473 1535 473 1530 q 468 1541 469 1535 q 476 1609 476 1548 q 471 1641 476 1631 q 481 1685 474 1669 q 479 1693 481 1687 q 490 1796 479 1721 l 487 1801 q 495 1834 492 1817 l 492 1839 l 503 2007 l 500 2013 q 503 2016 503 2013 l 500 2021 q 517 2143 517 2085 l 511 2151 l 511 2154 q 522 2176 518 2154 q 530 2276 522 2218 q 528 2279 528 2276 l 530 2279 q 544 2422 530 2343 q 541 2425 541 2422 q 555 2485 555 2474 l 549 2493 m 443 570 q 142 548 388 553 q 64 556 115 549 q 69 415 71 473 q 39 155 52 200 q 17 -7 22 54 q 305 43 113 16 q 357 46 338 46 q 443 42 369 46 q 444 76 444 54 q 444 334 440 166 q 441 458 444 353 q 443 570 441 466 "},"\"":{"ha":810,"x_min":13,"x_max":755,"o":"m 347 2855 q 81 2848 301 2841 q 13 2861 57 2850 q 30 2719 26 2777 q 26 2458 33 2504 q 21 2298 20 2357 q 233 2332 101 2315 q 277 2332 261 2333 q 351 2322 288 2331 q 349 2357 350 2335 q 355 2614 351 2488 q 355 2743 353 2633 q 347 2855 354 2750 m 747 2855 q 481 2848 701 2841 q 413 2861 457 2850 q 430 2719 426 2777 q 427 2458 433 2504 q 421 2298 420 2357 q 633 2332 501 2315 q 677 2332 661 2333 q 751 2322 688 2331 q 749 2357 750 2335 q 755 2614 751 2488 q 755 2743 753 2633 q 747 2855 754 2750 "},"#":{"ha":1975,"x_min":-21,"x_max":1950,"o":"m 433 1215 q 388 1215 404 1215 l 252 1215 q 143 1223 161 1220 q 122 1220 134 1220 l 106 1220 q 50 1225 56 1225 q 39 1220 39 1225 l 36 1052 q 40 938 36 1010 q 29 930 29 938 q -5 748 -5 770 l -21 710 q -16 707 -16 710 q 41 715 41 713 q 298 734 275 729 l 317 734 q 296 677 307 692 q 261 536 271 558 q 229 425 236 433 l 231 419 q 207 340 222 364 q 182 259 198 298 q 161 170 172 176 q 139 91 155 133 q 96 -47 117 2 l 96 -58 q 106 -56 102 -58 q 115 -58 112 -58 q 161 -39 124 -58 q 500 31 161 -13 l 508 31 l 513 34 l 513 31 l 543 37 q 570 34 557 34 l 597 34 l 603 37 q 606 34 603 34 q 627 91 627 45 l 627 96 l 625 102 q 635 134 635 125 q 633 145 635 140 q 635 156 635 150 q 633 167 635 162 q 652 283 638 185 q 668 408 652 320 l 665 422 q 684 563 678 478 q 682 566 682 563 q 698 671 695 627 q 695 674 695 671 q 698 685 698 684 l 695 690 q 701 701 699 701 q 707 757 704 729 q 772 759 734 758 l 793 756 q 846 762 793 760 l 856 759 l 877 764 q 882 762 877 762 l 892 762 q 966 767 926 762 q 971 764 966 764 l 994 768 q 986 753 991 753 q 962 677 974 695 q 926 536 937 558 q 894 425 901 433 l 897 419 q 872 340 887 364 q 848 259 863 298 q 826 170 837 176 q 804 91 821 133 q 761 -47 783 2 l 761 -58 q 772 -56 767 -58 q 780 -58 777 -58 q 826 -39 789 -58 q 1165 31 826 -13 l 1173 31 l 1179 34 l 1179 31 l 1208 37 q 1236 34 1223 34 l 1263 34 l 1268 37 q 1271 34 1268 34 q 1293 91 1293 45 l 1293 96 l 1290 102 q 1301 134 1301 125 q 1298 145 1301 140 q 1301 156 1301 150 q 1298 167 1301 162 q 1317 283 1303 185 q 1333 408 1317 320 l 1331 422 q 1350 563 1343 478 q 1347 566 1347 563 q 1363 671 1360 627 q 1360 674 1360 671 q 1363 685 1363 684 l 1360 690 q 1366 701 1364 701 q 1375 770 1370 736 l 1717 770 l 1753 767 q 1764 770 1753 770 q 1791 840 1790 770 l 1791 870 q 1830 1036 1791 875 q 1825 1038 1825 1036 q 1842 1103 1841 1065 l 1842 1122 q 1864 1187 1864 1183 q 1859 1190 1859 1187 q 1896 1255 1896 1251 l 1891 1261 q 1473 1242 1646 1244 q 1499 1350 1499 1343 l 1503 1364 q 1548 1364 1531 1364 l 1684 1364 q 1793 1356 1775 1359 q 1814 1359 1803 1359 l 1830 1359 q 1887 1354 1881 1354 q 1898 1359 1898 1354 l 1898 1527 q 1892 1641 1898 1569 q 1903 1649 1903 1641 q 1934 1831 1934 1809 l 1950 1869 q 1944 1872 1944 1869 q 1887 1864 1887 1866 q 1649 1847 1701 1853 q 1670 1898 1657 1869 l 1667 1903 l 1672 1906 q 1732 2085 1672 1919 q 1781 2234 1751 2173 q 1803 2302 1795 2290 q 1832 2378 1815 2348 q 1854 2448 1838 2435 q 1873 2483 1863 2475 q 1892 2554 1877 2522 l 1884 2559 l 1860 2559 q 1781 2540 1811 2551 l 1781 2543 q 1656 2516 1776 2543 q 1588 2505 1603 2513 l 1588 2508 l 1561 2500 q 1558 2502 1561 2502 l 1531 2502 l 1518 2505 q 1515 2502 1518 2502 l 1515 2505 q 1493 2500 1510 2505 l 1488 2502 q 1447 2497 1462 2497 q 1436 2500 1441 2497 q 1426 2497 1432 2497 l 1385 2497 l 1379 2494 l 1379 2497 l 1352 2494 l 1333 2497 q 1331 2494 1333 2494 q 1309 2500 1331 2498 l 1298 2492 l 1298 2497 l 1293 2497 l 1293 2483 q 1282 2435 1282 2438 l 1284 2410 l 1263 2226 q 1265 2223 1265 2226 q 1263 2201 1263 2208 q 1241 2060 1255 2166 l 1244 2055 q 1222 1935 1233 1984 l 1225 1930 q 1217 1895 1222 1930 l 1217 1865 q 1204 1822 1211 1860 q 1157 1820 1183 1821 l 1136 1823 q 1084 1817 1136 1820 l 1074 1820 l 1053 1815 q 1047 1817 1053 1817 l 1037 1817 q 973 1813 1007 1817 q 1004 1898 981 1845 l 1002 1903 l 1007 1906 q 1067 2085 1007 1919 q 1116 2234 1086 2173 q 1137 2302 1130 2290 q 1167 2378 1149 2348 q 1189 2448 1173 2435 q 1208 2483 1198 2475 q 1227 2554 1212 2522 l 1219 2559 l 1194 2559 q 1116 2540 1146 2551 l 1116 2543 q 991 2516 1111 2543 q 923 2505 938 2513 l 923 2508 l 896 2500 q 893 2502 896 2502 l 866 2502 l 852 2505 q 850 2502 852 2502 l 850 2505 q 828 2500 845 2505 l 823 2502 q 782 2497 797 2497 q 771 2500 776 2497 q 760 2497 766 2497 l 720 2497 l 714 2494 l 714 2497 l 687 2494 l 668 2497 q 665 2494 668 2494 q 644 2500 665 2498 l 633 2492 l 633 2497 l 627 2497 l 627 2483 q 616 2435 616 2438 l 619 2410 l 597 2226 q 600 2223 600 2226 q 597 2201 597 2208 q 576 2060 590 2166 l 578 2055 q 557 1935 568 1984 l 559 1930 q 551 1895 557 1930 l 551 1865 q 536 1809 545 1860 l 213 1809 l 176 1812 q 166 1809 176 1809 q 140 1739 140 1809 l 140 1709 q 103 1544 140 1704 q 109 1541 109 1544 q 93 1476 93 1514 l 93 1457 q 72 1392 72 1396 q 77 1389 77 1392 q 41 1324 41 1328 l 46 1318 q 460 1337 288 1335 q 437 1246 450 1286 q 440 1244 440 1246 l 433 1215 m 835 1355 q 1058 1364 1012 1360 q 1079 1362 1069 1364 q 1130 1364 1106 1363 q 1103 1246 1118 1296 q 1105 1244 1105 1246 l 1101 1224 q 878 1215 924 1219 q 858 1217 867 1215 q 802 1215 827 1216 q 833 1350 833 1343 l 835 1355 "},"$":{"ha":1074,"x_min":66,"x_max":922,"o":"m 416 2608 q 370 2599 391 2605 q 267 2537 325 2584 q 218 2454 225 2494 q 159 2293 202 2416 q 129 2137 140 2167 l 129 2129 l 132 2124 l 129 2124 q 132 2116 129 2121 q 129 2106 129 2111 q 123 1611 118 1925 l 126 1607 l 123 1607 q 140 1455 127 1533 q 186 1255 172 1274 q 232 1154 202 1185 q 259 1136 232 1149 q 351 1110 285 1118 q 354 1112 351 1112 l 376 1107 l 441 1118 q 444 1115 441 1115 l 446 1115 q 452 1120 452 1115 l 457 1118 l 460 1118 l 473 1126 l 473 1123 q 533 1128 487 1123 l 541 1123 l 549 1123 l 549 1126 q 625 1084 604 1126 l 625 1071 q 636 987 636 1002 q 633 985 633 987 l 636 980 l 633 980 q 639 847 636 925 q 636 827 636 833 q 642 767 636 821 q 631 606 643 718 q 574 463 610 463 q 532 495 532 468 q 508 641 517 525 q 527 841 508 729 q 522 851 524 841 q 543 929 535 888 l 543 953 q 492 958 538 953 q 470 955 485 958 q 462 958 465 958 q 454 955 459 958 q 443 958 449 958 l 410 958 l 397 960 q 394 958 397 958 q 372 963 392 958 l 359 963 l 359 966 l 345 966 l 340 968 l 334 966 l 326 970 l 321 968 q 318 970 321 970 l 313 968 q 294 976 294 972 q 172 1002 179 992 q 101 1017 115 1011 l 74 1017 q 66 1010 66 1013 l 66 991 q 79 898 66 923 q 77 895 77 898 l 77 892 q 85 838 77 862 l 82 838 q 87 791 87 802 l 85 779 q 93 750 93 754 l 90 745 l 96 732 q 93 721 93 727 l 93 716 l 98 708 l 98 682 l 101 669 q 98 667 98 669 l 104 614 l 101 604 q 104 596 104 600 q 98 549 104 581 q 101 508 101 512 l 98 498 q 101 485 101 493 l 101 474 l 98 456 q 101 454 101 456 q 98 443 98 449 l 98 435 q 158 240 104 336 q 340 134 221 166 q 396 118 366 124 q 378 -16 387 12 q 359 -153 363 -102 q 603 -111 441 -134 q 647 -109 631 -109 q 720 -112 657 -109 q 720 -83 720 -101 q 720 135 718 -7 l 720 137 q 848 203 788 162 q 876 260 869 225 q 905 400 884 286 l 903 406 q 911 468 906 453 l 908 473 l 911 473 q 908 481 911 475 q 913 512 908 487 l 911 517 l 913 533 q 911 549 913 534 l 913 566 l 911 572 l 913 572 l 911 582 q 919 722 911 608 q 916 728 916 722 l 919 733 q 916 743 916 737 l 916 746 q 919 780 916 763 q 913 814 913 803 q 916 831 913 821 q 905 959 910 937 l 908 959 l 905 990 l 905 1053 q 900 1131 905 1090 l 903 1143 q 900 1146 900 1143 l 903 1146 q 873 1308 903 1221 q 802 1375 845 1360 q 650 1398 702 1396 q 552 1445 578 1398 q 495 1666 496 1565 l 495 1703 q 519 1866 497 1811 q 632 1954 551 1943 l 648 1954 l 665 1952 q 678 1954 669 1954 l 711 1954 q 732 1950 722 1954 l 738 1952 q 741 1950 738 1950 l 754 1950 l 781 1947 q 784 1950 781 1950 q 814 1942 807 1942 q 825 1944 820 1942 q 852 1939 831 1942 q 854 1942 852 1942 l 882 1934 l 887 1937 q 909 1931 904 1931 q 914 1937 914 1931 l 914 1968 l 917 1984 q 906 2051 911 2040 q 909 2059 906 2053 q 906 2082 906 2072 l 906 2090 l 909 2103 q 906 2106 906 2103 l 909 2116 q 911 2225 909 2142 q 914 2241 911 2227 q 911 2243 911 2241 q 917 2287 913 2252 q 914 2290 914 2287 l 917 2300 l 914 2306 q 920 2368 920 2332 l 917 2374 q 920 2376 920 2374 l 920 2452 l 922 2464 q 920 2472 920 2464 q 922 2506 920 2489 l 920 2516 q 922 2550 922 2534 l 920 2563 q 922 2571 922 2563 l 922 2578 l 909 2602 q 873 2597 898 2602 q 838 2599 856 2599 l 819 2599 l 806 2602 q 803 2599 806 2599 q 749 2603 795 2599 q 749 2644 749 2622 q 747 2751 749 2660 q 749 2848 747 2758 q 488 2829 701 2833 q 420 2836 465 2829 q 425 2714 427 2764 q 416 2608 420 2653 "},"%":{"ha":1276,"x_min":6,"x_max":1240,"o":"m 1194 2559 q 1116 2540 1146 2551 l 1116 2543 q 991 2516 1111 2543 q 923 2505 938 2513 l 923 2508 l 896 2500 q 893 2502 896 2502 l 866 2502 l 852 2505 q 850 2502 852 2502 l 850 2505 q 828 2500 845 2505 l 823 2502 q 782 2497 797 2497 q 771 2500 776 2497 q 760 2497 766 2497 l 720 2497 l 714 2494 l 714 2497 l 687 2494 l 668 2497 q 665 2494 668 2494 q 644 2500 665 2498 l 633 2492 l 633 2497 l 627 2497 l 627 2483 q 616 2435 616 2438 l 619 2410 l 597 2226 q 600 2223 600 2226 q 597 2201 597 2208 q 576 2060 590 2166 l 578 2055 q 557 1935 568 1984 l 559 1930 q 551 1895 557 1930 l 551 1865 q 532 1789 544 1859 q 489 1537 511 1632 l 489 1523 q 494 1501 489 1512 q 473 1417 487 1501 q 437 1246 459 1314 q 440 1244 440 1246 l 421 1171 l 424 1165 l 421 1160 q 424 1152 421 1157 q 391 1048 391 1059 q 364 940 364 964 q 367 937 367 940 q 361 929 364 937 q 364 921 361 926 q 359 913 361 913 q 340 853 359 908 l 342 848 q 334 823 338 823 q 321 753 330 753 q 296 677 309 695 q 261 536 271 558 q 229 425 236 433 l 231 419 q 207 340 222 364 q 182 259 198 298 q 161 170 172 176 q 139 91 155 133 q 96 -47 117 2 l 96 -58 q 106 -56 102 -58 q 115 -58 112 -58 q 161 -39 124 -58 q 500 31 161 -13 l 508 31 l 513 34 l 513 31 l 543 37 q 570 34 557 34 l 597 34 l 603 37 q 606 34 603 34 q 627 91 627 45 l 627 96 l 625 102 q 635 134 635 125 q 633 145 635 140 q 635 156 635 150 q 633 167 635 162 q 652 283 638 185 q 668 408 652 320 l 665 422 q 684 563 678 478 q 682 566 682 563 q 698 671 695 627 q 695 674 695 671 q 698 685 698 684 l 695 690 q 701 701 699 701 q 739 935 714 820 q 736 943 736 940 q 741 948 736 947 q 758 1040 750 1010 l 755 1046 q 771 1116 759 1046 q 795 1192 785 1135 q 833 1350 833 1342 l 890 1545 l 888 1550 l 888 1556 q 928 1653 911 1603 q 969 1786 950 1756 q 1004 1898 969 1816 l 1002 1903 l 1007 1906 q 1067 2085 1007 1919 q 1116 2234 1086 2173 q 1137 2302 1130 2290 q 1167 2378 1150 2348 q 1189 2448 1173 2435 q 1208 2483 1198 2475 q 1227 2554 1212 2522 l 1219 2559 l 1194 2559 m 307 2464 l 291 2464 q 193 2443 193 2448 q 101 2389 142 2424 q 52 2321 56 2321 q 22 2237 28 2275 l 25 2231 q 6 2134 16 2231 l 9 2120 q 6 2104 6 2106 q 20 1908 6 1959 l 17 1908 q 90 1762 37 1815 q 237 1683 172 1683 q 383 1746 338 1683 q 478 1900 446 1803 q 497 2006 491 1937 q 494 2009 494 2006 q 500 2041 498 2009 l 497 2047 q 500 2049 500 2047 l 500 2087 l 497 2104 q 500 2117 500 2108 l 500 2161 l 497 2166 l 500 2166 q 478 2304 500 2220 q 375 2437 453 2394 q 307 2464 307 2460 m 223 2074 q 226 2166 223 2120 q 267 2272 226 2257 l 272 2269 q 283 2272 277 2272 l 296 2272 q 321 2185 316 2266 l 318 2180 l 321 2136 q 318 2115 321 2129 q 321 2112 321 2115 l 318 2106 l 323 2052 q 321 2044 321 2047 l 323 2039 l 318 1952 q 321 1949 321 1952 q 304 1895 313 1913 q 248 1849 280 1849 q 223 1946 237 1849 l 223 1968 l 220 1982 q 223 1984 223 1982 l 220 2003 q 223 2017 220 2012 q 220 2028 220 2022 l 220 2058 l 223 2071 q 220 2074 220 2071 l 223 2074 m 1040 774 q 912 739 941 763 q 825 636 849 706 q 793 403 805 604 q 795 270 793 354 q 793 262 793 264 q 795 254 795 262 l 795 227 q 798 224 795 224 q 825 142 808 166 q 1013 34 905 34 l 1050 34 q 1140 66 1090 34 q 1194 129 1175 81 q 1238 316 1238 218 l 1235 321 l 1238 338 l 1238 351 l 1235 357 q 1240 368 1238 357 q 1238 416 1240 372 q 1240 435 1238 425 q 1219 620 1235 545 q 1145 750 1197 715 q 1040 774 1121 768 m 988 511 q 1015 587 1002 587 l 1026 587 q 1059 468 1059 587 l 1056 463 q 1059 452 1059 458 l 1059 370 q 1056 346 1059 361 q 1059 332 1059 341 q 1050 270 1057 270 q 1007 210 1050 220 q 977 305 977 252 q 980 332 980 319 l 980 359 l 977 392 q 985 427 982 392 q 983 430 983 427 l 985 430 l 983 444 q 988 487 983 463 l 985 492 q 991 509 989 492 q 988 511 988 509 "},"&":{"ha":1041,"x_min":12,"x_max":1021,"o":"m 547 2631 q 511 2625 515 2628 l 511 2628 q 484 2622 491 2625 l 484 2625 l 468 2622 l 463 2625 l 441 2620 q 419 2622 426 2622 q 335 2593 389 2606 q 281 2563 291 2563 q 159 2443 169 2483 q 121 2378 144 2443 q 72 2199 83 2300 q 75 2197 75 2199 q 66 2161 70 2197 q 69 2159 69 2161 q 56 2061 58 2127 q 58 2056 58 2061 q 56 2053 56 2056 l 58 2047 q 56 2045 56 2047 l 56 2015 q 53 1990 56 2005 l 56 1985 q 53 1955 53 1967 l 53 1931 q 56 1866 53 1904 q 53 1858 53 1860 q 56 1844 56 1853 l 56 1820 q 58 1809 56 1813 q 56 1798 56 1804 l 56 1771 q 72 1613 56 1686 q 156 1394 93 1473 q 221 1282 176 1343 q 208 1253 221 1269 q 194 1228 202 1228 q 178 1204 194 1213 q 145 1147 178 1188 q 107 1060 132 1103 q 91 1022 96 1027 l 91 1008 l 94 1003 q 56 870 77 968 q 28 702 39 822 q 12 545 12 631 q 18 509 12 525 l 15 509 q 26 428 18 471 q 132 165 39 316 q 237 40 191 73 q 373 -12 318 -12 q 414 -6 380 -9 q 416 -9 414 -9 q 541 13 477 -9 q 688 130 610 38 q 728 186 722 186 l 731 186 q 745 154 740 154 q 807 -25 777 51 l 810 -25 q 815 -20 815 -25 q 845 40 831 31 q 899 130 871 88 q 954 224 921 180 q 972 265 969 265 q 1021 347 972 268 q 1013 363 1013 355 q 994 379 994 374 l 954 433 q 899 526 933 475 q 886 558 897 545 l 886 566 l 888 580 q 886 583 886 580 q 899 607 897 607 q 913 659 909 659 q 962 930 943 793 l 959 935 q 972 1071 966 935 l 972 1131 q 964 1239 972 1192 q 967 1250 967 1249 l 962 1263 l 964 1269 q 954 1291 959 1291 q 913 1312 954 1312 q 888 1301 888 1304 q 780 1272 788 1281 q 772 1274 777 1272 q 758 1269 758 1274 q 658 1244 684 1257 q 680 1101 673 1189 l 680 1074 q 674 1025 680 1052 q 677 1014 677 1020 l 674 1014 q 661 1033 672 1014 q 574 1247 623 1131 q 609 1274 602 1274 q 707 1388 703 1388 q 761 1467 737 1438 q 807 1548 807 1544 q 829 1589 829 1582 q 872 1681 854 1629 l 869 1687 q 872 1692 869 1692 l 897 1798 l 897 1830 l 894 1844 q 897 1847 897 1844 q 894 1863 897 1849 q 899 1885 894 1868 q 902 2007 899 1897 q 905 2023 902 2009 q 902 2026 902 2023 q 905 2028 905 2026 q 899 2050 905 2040 q 905 2080 902 2050 l 902 2085 q 905 2121 905 2119 q 902 2137 905 2123 l 905 2142 l 902 2159 l 902 2178 l 899 2183 l 902 2183 l 897 2232 q 899 2240 899 2237 q 894 2264 897 2260 l 897 2264 q 894 2273 897 2267 l 897 2278 l 894 2292 l 899 2300 q 894 2319 899 2319 q 856 2471 894 2378 q 774 2571 818 2555 q 620 2622 774 2593 l 614 2620 q 547 2631 559 2631 m 522 2346 q 563 2311 542 2346 q 623 2150 623 2190 l 620 2145 q 628 1996 628 2094 l 631 1982 q 625 1958 628 1982 l 628 1952 q 623 1828 623 1877 q 625 1820 623 1825 q 623 1817 623 1820 l 623 1806 l 625 1801 q 609 1716 620 1801 q 601 1714 606 1716 q 604 1711 601 1711 q 563 1638 602 1680 q 460 1543 485 1543 q 452 1581 452 1564 l 452 1584 q 427 1649 443 1584 q 430 1651 430 1649 l 430 1657 q 419 1706 430 1676 l 422 1706 l 408 1798 l 411 1803 q 408 1811 411 1806 q 411 1820 408 1814 q 408 1828 411 1822 q 411 1836 408 1830 l 408 1855 q 414 1904 408 1868 q 411 1906 411 1904 l 414 1920 l 411 1925 q 438 2107 422 2039 q 460 2207 446 2167 q 522 2346 490 2311 m 392 938 l 395 938 l 397 927 q 446 827 413 927 q 471 770 471 773 q 484 740 475 770 q 481 737 481 740 l 481 734 q 549 555 549 588 q 536 507 549 534 l 538 501 q 509 463 520 474 q 438 420 495 420 l 425 420 q 357 463 401 420 q 319 640 319 570 l 321 645 q 319 656 319 650 l 319 659 q 321 669 319 665 q 319 680 319 674 l 319 683 q 392 938 351 852 "},"'":{"ha":475,"x_min":13,"x_max":433,"o":"m 433 2854 q 163 2828 385 2837 q 97 2836 140 2829 q 90 2695 96 2753 q 45 2435 59 2480 q 13 2273 22 2334 q 233 2323 96 2296 q 277 2326 262 2326 q 351 2322 288 2326 q 354 2356 352 2334 q 402 2614 377 2488 q 423 2743 404 2633 q 433 2854 424 2750 "},"(":{"ha":859,"x_min":20,"x_max":826,"o":"m 584 3022 q 338 2941 485 3022 q 245 2823 245 2842 q 130 2553 181 2722 q 77 2296 91 2397 q 23 1755 45 2102 q 26 1745 26 1748 q 20 1691 22 1699 q 23 1677 23 1685 l 23 1651 q 20 1505 23 1582 q 23 1465 23 1481 q 20 1438 20 1440 q 23 1400 23 1408 q 20 1343 23 1369 q 23 1218 23 1278 l 23 1184 l 20 1160 q 28 1066 26 1160 q 23 954 28 1038 q 28 914 28 922 q 26 853 26 859 l 35 795 q 32 758 35 789 l 57 539 l 54 539 l 54 519 q 94 191 71 283 q 172 -56 129 34 q 353 -228 292 -228 q 479 -258 425 -258 l 494 -255 q 496 -258 494 -258 l 511 -252 q 516 -258 516 -252 q 561 -245 546 -245 l 572 -248 q 621 -228 572 -243 q 753 -170 707 -208 q 801 -140 786 -146 q 798 -1 798 -35 q 792 25 798 1 l 792 96 q 787 123 792 99 l 787 214 q 770 434 770 395 q 772 624 770 437 q 524 618 639 604 q 398 725 456 627 q 364 901 372 779 l 367 907 q 364 921 364 913 l 364 958 l 361 975 q 364 978 364 975 q 361 1015 361 1001 l 361 1063 q 358 1154 361 1091 q 355 1157 355 1154 q 358 1160 358 1157 l 358 1167 l 355 1184 q 358 1187 358 1184 l 355 1194 q 358 1204 355 1198 l 355 1211 q 358 1228 355 1223 q 355 1265 355 1251 l 355 1286 q 358 1383 355 1323 q 355 1397 355 1390 q 358 1407 358 1404 q 355 1417 358 1411 l 361 1468 l 358 1474 q 364 1515 362 1510 q 361 1529 361 1521 l 361 1552 q 367 1613 361 1579 l 364 1634 l 370 1725 q 367 1731 367 1725 q 381 1866 372 1731 q 378 1870 378 1866 l 387 1927 q 446 2086 387 2025 q 545 2134 516 2134 q 788 2157 634 2157 q 795 2539 784 2370 l 792 2546 q 798 2627 798 2576 l 798 2633 l 801 2650 q 798 2654 798 2650 l 804 2657 l 801 2674 l 804 2688 q 801 2691 801 2688 q 817 2894 812 2879 l 814 2901 q 826 2944 817 2901 l 826 2951 q 812 2971 826 2954 l 716 2998 l 711 2995 l 643 3012 q 640 3008 643 3008 q 584 3022 640 3015 "},")":{"ha":888,"x_min":20,"x_max":826,"o":"m 262 -258 q 508 -177 361 -258 q 601 -59 601 -78 q 716 211 665 41 q 770 468 755 367 q 823 1008 801 662 q 821 1019 821 1015 q 826 1073 824 1064 q 823 1086 823 1078 l 823 1113 q 826 1259 823 1181 q 823 1299 823 1282 q 826 1326 826 1323 q 823 1363 823 1356 q 826 1421 823 1395 q 823 1546 823 1486 l 823 1579 l 826 1603 q 817 1697 821 1603 q 823 1809 817 1726 q 817 1849 817 1841 q 821 1910 821 1904 l 812 1968 q 814 2005 812 1975 l 789 2224 l 792 2224 l 792 2245 q 753 2572 776 2480 q 674 2819 718 2730 q 494 2991 555 2991 q 367 3022 421 3022 l 353 3019 q 350 3022 353 3022 l 336 3015 q 330 3022 330 3015 q 285 3008 300 3008 l 274 3012 q 226 2991 274 3006 q 94 2934 139 2971 q 45 2904 60 2909 q 49 2765 49 2799 q 54 2738 49 2762 l 54 2667 q 60 2640 54 2665 l 60 2549 q 77 2330 77 2368 q 75 2140 77 2326 q 321 2146 208 2160 q 448 2039 390 2137 q 482 1863 474 1985 l 479 1856 q 482 1843 482 1851 l 482 1806 l 485 1789 q 482 1786 482 1789 q 485 1748 485 1763 l 485 1701 q 488 1610 485 1672 q 491 1607 491 1610 q 488 1603 488 1607 l 488 1596 l 491 1579 q 488 1576 488 1579 l 491 1569 q 488 1559 491 1566 l 491 1552 q 488 1535 491 1541 q 491 1498 491 1512 l 491 1478 q 488 1380 491 1440 q 491 1367 491 1374 q 488 1356 488 1360 q 491 1346 488 1353 l 485 1295 l 488 1289 q 482 1249 484 1254 q 485 1235 485 1242 l 485 1211 q 479 1150 485 1184 l 482 1130 l 477 1039 q 479 1032 479 1039 q 465 897 474 1032 q 468 894 468 897 l 460 836 q 401 677 460 739 q 302 630 330 630 q 58 606 212 606 q 52 224 62 394 l 54 218 q 49 137 49 188 l 49 130 l 45 113 q 49 110 49 113 l 43 106 l 45 90 l 43 76 q 45 73 45 76 q 28 -130 34 -115 l 32 -137 q 20 -180 30 -137 l 20 -187 q 35 -208 20 -191 l 130 -235 l 136 -231 l 203 -248 q 206 -245 203 -245 q 262 -258 206 -252 "},"*":{"ha":933,"x_min":20,"x_max":913,"o":"m 300 2783 l 294 2780 q 311 2690 311 2732 l 311 2674 l 313 2669 l 311 2669 q 316 2587 316 2636 l 316 2549 l 313 2544 q 300 2555 300 2553 q 208 2658 275 2576 q 172 2720 176 2720 l 170 2720 q 156 2696 163 2719 q 72 2503 121 2576 q 37 2438 37 2458 q 91 2419 41 2430 q 254 2354 189 2402 l 254 2351 q 20 2256 56 2256 l 20 2251 q 50 2205 43 2225 q 137 2042 105 2128 l 227 2096 q 245 2110 227 2102 q 321 2150 306 2150 l 321 2123 l 319 2110 q 321 2107 321 2110 l 319 2107 q 292 1985 300 1998 l 294 1980 l 283 1917 q 365 1933 359 1933 q 609 1971 491 1955 q 598 1999 609 1987 q 566 2118 566 2089 l 566 2123 l 639 2080 q 745 2001 726 2023 l 750 2001 q 777 2069 756 2042 q 804 2121 796 2115 q 878 2221 806 2137 l 853 2235 q 783 2273 809 2249 q 682 2324 720 2294 l 707 2343 q 772 2376 772 2365 q 913 2433 897 2422 q 845 2555 845 2550 q 791 2682 791 2671 l 785 2682 q 728 2639 736 2639 q 715 2625 720 2625 q 590 2541 675 2596 l 587 2541 l 587 2544 l 593 2552 l 593 2579 q 631 2761 593 2652 l 628 2766 q 571 2764 618 2766 q 378 2766 534 2764 q 300 2783 319 2783 "},"+":{"ha":1058,"x_min":20,"x_max":1013,"o":"m 1010 1628 q 981 1619 981 1622 q 848 1600 859 1606 q 720 1584 791 1600 l 707 1590 q 663 1579 663 1586 q 601 1576 651 1579 l 590 1579 q 563 1573 590 1575 l 557 1576 l 547 1571 q 544 1573 547 1573 l 538 1573 q 500 1568 521 1573 q 498 1571 500 1571 l 481 1565 l 416 1571 q 414 1568 416 1568 l 414 1571 q 235 1565 351 1565 l 110 1565 l 91 1568 q 85 1565 91 1565 q 72 1495 72 1565 l 72 1465 q 53 1299 72 1460 q 56 1297 56 1299 q 47 1232 47 1270 l 47 1213 q 37 1147 37 1152 q 39 1145 39 1147 q 20 1080 20 1084 l 23 1074 q 259 1093 164 1093 q 270 1099 263 1093 l 340 1099 q 411 1109 372 1099 q 549 1120 523 1116 q 560 1118 555 1120 q 612 1120 590 1120 l 696 1120 q 755 1118 715 1120 q 758 1120 755 1120 l 758 1118 q 804 1120 790 1120 l 875 1120 q 932 1112 923 1115 q 943 1115 937 1115 l 951 1115 q 981 1109 977 1109 q 986 1115 986 1109 l 986 1283 q 983 1397 986 1325 q 989 1405 989 1397 q 1005 1587 1005 1565 l 1013 1625 q 1010 1628 1010 1625 m 240 857 q 243 854 243 857 l 281 863 q 463 879 303 863 q 471 884 471 879 q 585 882 543 882 l 753 882 q 758 887 758 882 q 753 917 758 890 l 753 925 q 755 936 753 931 q 747 993 753 945 l 747 1063 q 750 1109 747 1078 l 747 1109 q 750 1112 747 1112 q 747 1172 747 1153 l 747 1256 q 750 1308 747 1278 q 747 1318 747 1312 q 758 1457 752 1345 q 769 1527 769 1496 l 769 1598 q 774 1609 774 1605 q 793 1845 774 1704 l 788 1847 q 723 1828 784 1847 q 720 1831 720 1828 q 655 1820 716 1831 l 636 1820 q 571 1812 598 1820 q 568 1815 568 1812 q 403 1796 408 1796 l 373 1796 q 302 1782 302 1796 q 300 1777 302 1777 l 302 1758 l 302 1633 q 297 1454 302 1516 l 300 1454 q 297 1451 300 1451 l 302 1386 l 297 1370 q 300 1367 297 1367 q 294 1329 294 1347 l 294 1324 q 297 1321 294 1321 l 292 1310 l 294 1305 q 289 1278 292 1278 l 292 1267 q 289 1204 289 1217 q 278 1161 281 1204 l 283 1147 q 267 1020 267 1076 q 248 887 262 1008 q 240 857 245 887 "},",":{"ha":624,"x_min":20,"x_max":604,"o":"m 582 522 q 517 506 541 514 q 514 509 517 509 l 509 509 q 468 500 481 509 l 457 503 q 406 495 420 495 q 400 500 401 495 q 370 495 376 497 q 359 500 370 498 l 354 498 l 349 500 q 311 498 315 498 l 297 500 q 294 498 297 498 q 292 500 294 500 l 270 500 l 251 503 q 248 500 251 500 l 232 503 q 221 500 226 503 q 210 503 216 503 l 202 503 q 180 495 195 495 q 172 473 178 473 q 175 465 172 471 q 156 332 161 340 q 142 254 146 254 q 104 88 129 155 l 107 83 q 80 -23 80 -17 q 56 -104 61 -72 l 58 -110 q 37 -167 58 -114 l 39 -172 q 20 -256 29 -199 q 28 -264 24 -264 l 31 -264 q 88 -245 77 -254 q 175 -221 159 -230 l 178 -221 q 227 -213 214 -221 l 232 -216 q 240 -213 235 -216 l 245 -216 q 267 -213 252 -216 l 273 -216 q 300 -205 273 -210 q 346 -208 314 -205 q 365 -202 351 -208 q 387 -208 378 -208 q 408 -191 403 -208 l 406 -186 q 411 -180 406 -181 q 427 -107 422 -116 q 452 -4 445 -12 q 479 88 469 66 q 506 180 492 125 q 547 338 540 336 q 568 411 562 411 q 604 506 593 488 q 593 522 604 517 l 582 522 "},"-":{"ha":1034,"x_min":20,"x_max":1013,"o":"m 1010 1628 q 981 1619 981 1622 q 848 1600 859 1606 q 720 1584 791 1600 l 707 1590 q 663 1579 663 1586 q 601 1576 651 1579 l 590 1579 q 563 1573 590 1575 l 557 1576 l 547 1571 q 544 1573 547 1573 l 538 1573 q 500 1568 521 1573 q 498 1571 500 1571 l 481 1565 l 416 1571 q 414 1568 416 1568 l 414 1571 q 235 1565 351 1565 l 110 1565 l 91 1568 q 85 1565 91 1565 q 72 1495 72 1565 l 72 1465 q 53 1299 72 1460 q 56 1297 56 1299 q 47 1232 47 1270 l 47 1213 q 37 1147 37 1152 q 39 1145 39 1147 q 20 1080 20 1084 l 23 1074 q 259 1093 164 1093 q 270 1099 263 1093 l 340 1099 q 411 1109 372 1099 q 549 1120 523 1116 q 560 1118 555 1120 q 612 1120 590 1120 l 696 1120 q 755 1118 715 1120 q 758 1120 755 1120 l 758 1118 q 804 1120 790 1120 l 875 1120 q 932 1112 923 1115 q 943 1115 937 1115 l 951 1115 q 981 1109 977 1109 q 986 1115 986 1109 l 986 1283 q 983 1397 986 1325 q 989 1405 989 1397 q 1005 1587 1005 1565 l 1013 1625 q 1010 1628 1010 1625 "},".":{"ha":480,"x_min":17,"x_max":444,"o":"m 443 570 q 142 548 388 553 q 64 556 115 549 q 69 415 71 473 q 39 155 52 200 q 17 -7 22 54 q 305 43 113 16 q 357 46 338 46 q 443 42 369 46 q 444 76 444 54 q 444 334 440 166 q 441 458 444 353 q 443 570 441 466 "},"/":{"ha":1445,"x_min":96,"x_max":1388,"o":"m 128 -58 q 208 -39 176 -50 l 208 -42 q 334 -15 212 -42 q 402 -4 387 -12 l 402 -7 l 430 1 q 433 -1 430 -1 l 460 -1 l 473 -4 q 476 -1 473 -1 l 475 -4 q 498 1 481 -4 l 503 -1 q 544 4 529 4 q 555 1 550 4 q 566 4 559 4 l 606 4 l 612 7 l 612 4 l 639 7 l 658 4 q 661 7 658 7 q 682 1 661 3 l 694 9 l 693 4 l 699 4 l 699 18 q 713 66 713 63 l 712 91 l 745 275 q 743 278 743 275 q 747 300 746 293 q 777 441 756 335 l 774 446 q 804 566 790 517 l 802 571 q 812 606 804 571 l 814 636 q 837 712 821 642 q 896 964 869 869 l 897 978 q 893 1000 898 989 q 920 1084 900 1000 q 966 1255 939 1187 q 963 1257 963 1255 l 987 1331 l 984 1336 l 987 1341 q 985 1350 987 1344 q 1024 1453 1023 1442 q 1057 1561 1056 1537 q 1055 1564 1055 1561 q 1061 1572 1058 1564 q 1059 1580 1061 1575 q 1065 1588 1062 1588 q 1087 1648 1065 1593 l 1085 1653 q 1095 1678 1091 1678 q 1112 1748 1103 1748 q 1141 1824 1128 1806 q 1185 1965 1174 1943 q 1225 2077 1217 2068 l 1223 2082 q 1252 2161 1236 2137 q 1281 2242 1263 2203 q 1308 2332 1297 2325 q 1335 2410 1316 2368 q 1387 2549 1362 2499 l 1388 2559 q 1377 2557 1381 2559 q 1369 2559 1371 2559 q 1321 2540 1359 2559 q 978 2470 1320 2514 l 970 2470 l 964 2467 l 964 2470 l 934 2464 q 907 2467 920 2467 l 880 2467 l 874 2464 q 872 2467 875 2467 q 847 2410 850 2456 l 846 2405 l 849 2399 q 836 2367 836 2376 q 838 2356 836 2361 q 835 2345 835 2351 q 837 2334 834 2339 q 810 2218 830 2316 q 787 2093 808 2181 l 789 2079 q 761 1938 772 2023 q 763 1935 764 1938 q 741 1830 746 1874 q 743 1827 743 1830 q 740 1816 740 1817 l 742 1811 q 736 1800 738 1800 q 684 1567 715 1681 q 686 1558 686 1561 q 680 1553 686 1554 q 658 1461 667 1491 l 661 1455 q 640 1385 656 1455 q 611 1309 625 1366 q 563 1152 564 1159 l 494 956 l 496 951 l 496 945 q 450 848 470 898 q 401 715 421 745 q 359 604 399 685 l 361 598 l 355 595 q 285 416 355 583 q 227 267 260 328 q 201 199 209 211 q 166 123 185 153 q 140 53 157 66 q 119 18 130 26 q 96 -53 113 -21 l 104 -58 l 128 -58 "},":":{"ha":541,"x_min":17,"x_max":444,"o":"m 443 1320 q 142 1297 388 1302 q 64 1305 115 1298 q 69 1164 71 1223 q 39 904 52 949 q 17 743 22 803 q 305 793 113 766 q 357 795 338 795 q 443 791 369 795 q 444 825 444 804 q 444 1083 440 916 q 441 1208 444 1102 q 443 1320 441 1215 m 67 615 q 45 604 67 610 q 54 498 54 570 l 54 496 q 51 455 54 482 q 54 452 54 455 l 51 452 q 56 422 54 428 q 48 404 53 422 q 51 393 51 399 l 51 347 l 54 341 q 48 325 51 341 q 51 317 51 319 q 48 298 51 309 q 51 290 48 295 l 45 203 q 48 157 48 182 q 35 51 43 90 q 37 45 37 51 q 32 24 32 26 l 32 18 l 35 13 q 70 24 49 13 q 73 21 70 21 q 78 26 78 21 q 235 64 172 43 l 262 64 l 314 75 l 325 73 q 349 78 344 75 l 349 75 q 406 86 396 86 q 425 119 414 86 l 425 135 q 420 165 425 154 l 422 165 q 414 262 422 236 l 420 265 q 414 271 420 270 q 422 314 422 300 l 422 333 q 425 390 422 355 q 417 406 422 406 l 425 477 q 422 479 422 477 l 425 479 q 420 545 420 504 l 420 572 q 393 602 420 602 l 382 602 l 366 593 q 357 596 363 593 q 319 593 334 593 l 309 593 l 303 591 l 303 593 q 295 591 300 593 q 257 593 272 593 l 249 593 l 243 591 q 211 596 243 595 l 205 593 q 176 599 205 597 l 170 596 q 143 602 170 599 q 140 599 143 599 q 67 615 72 615 "},";":{"ha":578,"x_min":-41,"x_max":542,"o":"m 520 514 q 455 498 479 506 q 452 500 455 500 l 447 500 q 406 492 419 500 l 395 495 q 344 487 359 487 q 338 492 339 487 q 309 487 314 489 q 298 492 309 490 l 292 490 l 287 492 q 249 490 253 490 l 235 492 q 233 490 235 490 q 230 492 233 492 l 208 492 l 189 495 q 186 492 189 492 l 170 495 q 159 492 164 495 q 149 495 155 495 l 140 495 q 119 487 134 487 q 111 465 116 465 q 113 457 111 463 q 94 324 99 332 q 81 245 85 245 q 43 80 67 147 l 45 75 q 18 -31 18 -25 q -6 -113 -1 -80 l -3 -118 q -25 -175 -3 -122 l -22 -180 q -41 -264 -33 -208 q -33 -273 -37 -273 l -31 -273 q 26 -254 15 -262 q 113 -229 98 -238 l 116 -229 q 165 -221 152 -229 l 170 -224 q 178 -221 173 -224 l 184 -224 q 205 -221 191 -224 l 211 -224 q 238 -213 211 -218 q 284 -216 252 -213 q 303 -210 290 -216 q 325 -216 317 -216 q 347 -199 341 -216 l 344 -194 q 349 -189 344 -189 q 366 -115 361 -124 q 390 -12 383 -20 q 417 80 407 58 q 444 172 430 117 q 485 330 478 328 q 507 403 500 403 q 542 498 531 479 q 531 514 542 509 l 520 514 m 517 1291 q 217 1268 463 1273 q 138 1276 190 1269 q 144 1135 145 1194 q 114 875 127 920 q 92 713 96 774 q 380 764 188 736 q 431 766 412 766 q 517 762 444 766 q 518 796 518 774 q 518 1054 515 886 q 515 1179 518 1073 q 517 1291 515 1186 "},"<":{"ha":766,"x_min":25,"x_max":715,"o":"m 715 1686 q 714 1693 715 1693 l 711 1693 q 711 1689 711 1693 q 684 1653 694 1662 q 597 1588 636 1609 q 490 1542 526 1571 q 338 1451 409 1489 q 199 1373 242 1398 q 113 1328 156 1348 q 25 1252 70 1308 q 31 977 27 1180 q 123 869 57 963 q 231 743 179 779 q 370 635 331 668 q 438 576 410 589 l 441 573 q 442 577 441 576 q 452 570 444 577 l 455 574 q 486 541 482 541 l 490 545 q 505 535 499 541 q 507 539 506 535 q 553 502 540 519 q 611 458 602 476 l 612 462 q 633 449 631 448 q 661 421 661 429 q 663 425 661 421 q 698 376 688 397 l 699 380 q 694 505 699 401 l 694 532 q 691 632 691 541 l 691 635 q 688 780 688 708 l 688 802 q 686 884 686 839 l 686 899 q 687 922 686 909 q 686 932 687 925 q 687 947 687 939 l 687 959 q 681 973 687 965 l 675 965 q 665 975 675 970 l 664 972 q 623 972 635 973 q 612 975 619 972 q 610 971 610 971 l 587 977 q 587 973 587 973 l 568 979 q 567 975 568 975 q 564 979 566 979 l 563 979 l 562 975 l 561 982 l 559 975 q 551 985 557 982 q 551 981 551 981 q 546 989 551 986 q 542 981 545 988 q 529 991 531 987 q 526 987 528 987 l 518 986 l 513 989 q 513 986 513 986 q 492 991 500 992 l 489 991 q 485 998 487 991 l 484 995 q 459 1008 467 1008 q 458 1023 458 1008 q 456 1019 457 1023 l 454 1022 l 453 1022 l 454 1015 l 454 1011 l 450 1010 q 445 1025 446 1010 l 443 1017 l 440 1017 q 438 1021 438 1017 q 397 1048 406 1034 l 396 1044 q 379 1057 392 1050 l 374 1053 l 374 1053 q 343 1080 374 1065 l 341 1080 q 340 1088 340 1080 q 339 1084 339 1088 q 336 1091 336 1086 q 248 1166 271 1131 q 248 1162 248 1162 q 243 1169 245 1169 q 245 1181 244 1181 q 248 1177 246 1181 q 292 1206 255 1185 l 293 1203 l 307 1211 q 307 1208 307 1208 q 334 1221 314 1219 l 345 1222 l 353 1226 q 353 1223 353 1223 q 366 1231 357 1230 l 367 1231 l 368 1235 l 368 1231 l 375 1239 q 377 1236 376 1239 q 397 1249 387 1240 q 399 1244 398 1244 q 399 1249 399 1249 l 399 1244 l 405 1249 q 410 1246 408 1249 l 426 1254 q 438 1251 431 1251 q 444 1256 440 1252 l 446 1252 l 491 1270 q 500 1267 495 1267 l 508 1268 l 512 1272 q 513 1268 512 1268 q 535 1263 531 1270 q 538 1267 536 1267 l 548 1267 l 553 1264 q 553 1268 553 1268 q 554 1264 553 1264 l 555 1264 l 557 1268 l 557 1265 q 560 1268 559 1265 l 564 1265 l 572 1265 l 576 1262 q 576 1266 576 1266 q 578 1263 577 1266 q 581 1266 580 1266 l 596 1267 l 600 1257 q 602 1261 600 1257 q 603 1257 602 1257 l 608 1257 q 613 1251 610 1257 q 621 1255 618 1255 l 625 1255 q 632 1252 628 1255 q 635 1256 633 1255 q 654 1246 644 1245 l 666 1247 l 669 1244 l 670 1251 q 705 1227 688 1235 q 709 1243 709 1238 l 709 1246 l 709 1254 l 709 1254 l 707 1407 q 707 1410 707 1407 q 707 1425 707 1417 l 707 1436 q 709 1492 707 1457 l 707 1510 q 709 1548 709 1520 l 709 1555 q 715 1683 709 1592 l 715 1686 "},"=":{"ha":1062,"x_min":20,"x_max":1013,"o":"m 1010 1606 q 981 1598 981 1600 q 848 1579 859 1584 q 720 1563 791 1579 l 707 1568 q 663 1557 663 1565 q 601 1554 651 1557 l 590 1557 q 563 1552 590 1554 l 557 1554 l 547 1549 q 544 1552 547 1552 l 538 1552 q 500 1546 521 1552 q 498 1549 500 1549 l 481 1544 l 416 1549 q 414 1546 416 1546 l 414 1549 q 235 1544 351 1544 l 110 1544 l 91 1546 q 85 1544 91 1544 q 72 1473 72 1544 l 72 1443 q 53 1278 72 1438 q 56 1275 56 1278 q 47 1210 47 1248 l 47 1191 q 37 1126 37 1130 q 39 1123 39 1126 q 20 1058 20 1062 l 23 1053 q 259 1072 164 1072 q 270 1077 263 1072 l 340 1077 q 411 1088 372 1077 q 549 1099 523 1094 q 560 1096 555 1099 q 612 1099 590 1099 l 696 1099 q 755 1096 715 1099 q 758 1099 755 1099 l 758 1096 q 804 1099 790 1099 l 875 1099 q 932 1090 923 1093 q 943 1093 937 1093 l 951 1093 q 981 1088 977 1088 q 986 1093 986 1088 l 986 1261 q 983 1375 986 1303 q 989 1383 989 1375 q 1005 1565 1005 1543 l 1013 1603 q 1010 1606 1010 1603 m 23 424 q 53 432 53 429 q 186 451 174 446 q 313 467 242 451 l 327 462 q 370 473 370 465 q 433 475 382 473 l 444 473 q 471 478 444 476 l 476 475 l 487 481 q 490 478 487 478 l 495 478 q 533 484 513 478 q 536 481 533 481 l 552 486 l 617 481 q 620 484 617 484 l 620 481 q 799 486 682 486 l 924 486 l 943 484 q 948 486 943 486 q 962 557 962 486 l 962 587 q 981 752 962 591 q 978 755 978 752 q 986 820 986 782 l 986 839 q 997 904 997 900 q 994 907 994 904 q 1013 972 1013 968 l 1010 977 q 774 958 869 958 q 764 953 770 958 l 693 953 q 623 942 662 953 q 484 931 511 936 q 473 934 478 931 q 422 931 444 931 l 338 931 q 278 934 319 931 q 275 931 278 931 l 275 934 q 229 931 243 931 l 159 931 q 102 939 111 937 q 91 937 97 937 l 83 937 q 53 942 56 942 q 47 937 47 942 l 47 768 q 50 654 47 726 q 45 646 45 654 q 28 465 28 487 l 20 427 q 23 424 23 427 "},">":{"ha":764,"x_min":25,"x_max":715,"o":"m 25 1686 l 25 1683 q 32 1555 31 1592 l 31 1548 q 33 1510 32 1520 l 32 1492 q 34 1436 34 1457 l 34 1425 q 33 1410 34 1417 q 34 1407 33 1407 l 31 1254 l 32 1254 l 31 1246 l 31 1243 q 35 1227 31 1238 q 71 1251 53 1235 l 71 1244 l 75 1247 l 86 1246 q 105 1256 96 1245 q 109 1252 108 1255 q 115 1255 113 1255 l 119 1255 q 127 1251 123 1255 q 133 1257 130 1257 l 138 1257 q 138 1261 138 1257 q 141 1257 140 1257 l 144 1267 l 159 1266 q 162 1263 161 1266 q 164 1266 163 1266 q 165 1262 165 1266 l 168 1265 l 176 1265 l 180 1268 q 184 1265 182 1265 l 184 1268 l 186 1264 l 186 1264 q 187 1268 187 1264 q 188 1264 188 1268 l 193 1267 l 203 1267 q 205 1263 204 1267 q 227 1268 210 1270 q 229 1272 229 1268 l 233 1268 l 241 1267 q 250 1270 245 1267 l 295 1252 l 296 1256 q 302 1251 300 1252 q 315 1254 309 1251 l 330 1246 q 336 1249 333 1249 l 341 1244 l 341 1249 q 342 1244 342 1249 q 344 1249 342 1244 q 363 1236 353 1240 q 366 1239 365 1239 l 372 1231 l 372 1235 l 374 1231 l 374 1231 q 387 1223 384 1230 q 388 1226 388 1223 l 396 1222 l 407 1221 q 433 1208 427 1219 q 434 1211 434 1208 l 448 1203 l 449 1206 q 493 1177 486 1185 q 496 1181 494 1181 q 498 1169 496 1181 q 493 1162 496 1169 q 492 1166 492 1162 q 404 1091 469 1131 q 401 1084 404 1086 q 401 1088 401 1088 q 399 1080 401 1080 l 397 1080 q 367 1053 367 1065 l 366 1053 l 361 1057 q 345 1044 349 1050 l 343 1048 q 302 1021 334 1034 q 300 1017 302 1017 l 298 1017 l 296 1025 q 290 1010 294 1010 l 287 1011 l 287 1015 l 288 1022 l 286 1022 l 285 1019 q 283 1023 283 1023 q 281 1008 282 1008 q 257 995 274 1008 l 256 998 q 252 991 254 991 l 248 991 q 228 986 240 992 q 227 989 227 986 l 222 986 l 214 987 q 212 991 213 987 q 199 981 210 987 q 195 989 196 988 q 190 981 190 986 q 189 985 189 981 q 182 975 184 982 l 180 982 l 179 975 l 178 979 l 176 979 q 174 975 175 979 q 173 979 173 975 l 154 973 q 153 977 153 973 l 131 971 q 129 975 130 971 q 117 972 121 972 q 77 972 105 973 l 75 975 q 66 965 66 970 l 60 973 q 54 959 54 965 l 54 947 q 54 932 54 939 q 54 922 54 925 q 55 899 55 909 l 55 884 q 53 802 55 839 l 53 780 q 50 635 53 708 l 50 632 q 47 532 50 541 l 47 505 q 41 380 41 401 l 43 376 q 77 425 52 397 q 80 421 79 421 q 108 449 80 429 q 128 462 110 448 l 130 458 q 187 502 138 476 q 233 539 201 519 q 235 535 235 535 q 251 545 241 541 l 254 541 q 286 574 258 541 l 288 570 q 298 577 297 577 q 299 573 299 576 l 302 576 q 370 635 331 589 q 510 743 410 668 q 618 869 562 779 q 710 977 684 963 q 715 1252 713 1180 q 628 1328 671 1308 q 542 1373 585 1348 q 402 1451 498 1398 q 250 1542 332 1489 q 144 1588 214 1571 q 57 1653 104 1609 q 30 1689 46 1662 q 29 1693 30 1693 l 26 1693 q 25 1686 25 1693 "},"?":{"ha":1128,"x_min":20,"x_max":1108,"o":"m 468 2603 q 311 2562 341 2581 q 137 2445 225 2532 q 72 2348 72 2367 q 26 2237 55 2348 l 28 2223 q 23 2207 23 2212 l 26 2193 l 20 2185 l 20 2182 q 23 2153 20 2171 l 20 2147 q 26 2112 23 2118 q 23 2101 23 2107 l 23 2096 l 26 2079 l 23 2074 q 26 2049 26 2059 l 26 2044 l 23 2030 q 28 1984 28 2030 q 23 1960 28 1970 q 28 1922 25 1957 l 26 1911 q 31 1876 28 1907 q 28 1849 28 1852 l 31 1830 l 28 1803 l 31 1765 l 28 1748 q 31 1740 31 1743 l 26 1737 q 28 1729 26 1735 q 26 1721 28 1727 l 31 1708 q 26 1675 26 1708 l 26 1651 l 31 1632 q 28 1607 31 1622 l 31 1602 l 28 1596 l 31 1591 q 26 1577 26 1591 l 26 1572 l 28 1567 q 20 1512 26 1567 l 23 1507 l 56 1510 l 64 1510 l 77 1507 l 77 1510 l 145 1526 q 316 1556 268 1540 q 327 1553 322 1556 l 354 1558 l 354 1556 q 403 1561 355 1556 l 422 1561 q 433 1558 428 1561 q 444 1561 437 1561 l 509 1561 q 514 1567 514 1561 l 522 1561 l 525 1561 q 530 1567 530 1561 l 530 1591 l 533 1618 q 525 1667 526 1621 l 525 1670 l 528 1683 q 522 1713 525 1683 l 525 1713 q 541 1843 525 1801 l 538 1849 q 544 1881 541 1853 q 598 1946 573 1946 q 628 1925 612 1946 q 644 1862 640 1871 q 650 1813 644 1827 l 647 1794 q 650 1754 647 1765 q 639 1575 644 1603 q 642 1561 642 1570 l 642 1556 l 639 1529 q 642 1526 642 1529 q 612 1366 642 1492 q 576 1325 612 1341 q 476 1268 524 1305 q 346 1114 394 1230 q 311 948 311 1004 q 330 831 311 831 q 370 842 353 831 l 387 840 l 397 845 l 403 842 q 411 845 406 842 l 422 842 q 471 848 433 842 l 487 845 l 547 853 q 549 850 547 850 l 571 850 l 585 853 q 587 850 585 850 q 623 856 600 856 l 636 856 q 680 845 642 856 l 699 850 q 696 859 699 853 l 701 878 l 701 916 q 699 962 701 930 l 701 962 q 712 1010 704 988 q 761 1105 724 1065 q 948 1200 910 1167 q 1035 1282 977 1206 l 1070 1366 q 1086 1428 1078 1424 q 1100 1539 1089 1480 q 1095 1553 1095 1539 l 1100 1564 q 1097 1615 1097 1594 l 1097 1662 l 1095 1667 q 1100 1672 1100 1667 l 1100 1694 q 1097 1724 1100 1706 q 1103 1746 1103 1734 l 1100 1762 q 1103 1775 1103 1767 l 1103 1778 l 1100 1792 q 1103 1794 1103 1792 l 1100 1800 q 1108 1849 1100 1849 l 1105 1868 q 1108 1887 1105 1876 l 1103 1919 q 1108 1954 1103 1926 q 1105 1957 1105 1954 l 1108 1957 q 1105 1965 1108 1960 q 1108 1976 1105 1971 q 1105 1987 1105 1981 l 1105 2036 l 1108 2055 q 1100 2082 1101 2062 l 1105 2090 l 1105 2163 q 1097 2193 1105 2167 q 1103 2223 1103 2204 l 1103 2245 l 1100 2250 l 1103 2250 q 1062 2364 1085 2357 q 1008 2464 1031 2445 q 864 2557 930 2534 l 726 2592 q 628 2603 628 2597 l 623 2600 q 612 2603 618 2603 l 549 2603 l 536 2600 q 533 2603 536 2603 q 495 2600 510 2600 l 481 2600 l 468 2603 m 357 582 q 335 571 357 576 q 343 465 343 537 l 343 463 q 340 422 343 449 q 343 419 343 422 l 340 419 q 346 389 343 395 q 338 370 342 389 q 340 359 340 366 l 340 313 l 343 308 q 338 292 340 308 q 340 283 340 286 q 338 264 340 275 q 340 256 338 262 l 335 170 q 338 123 338 149 q 324 18 332 57 q 327 12 327 18 q 321 -9 321 -7 l 321 -15 l 324 -20 q 359 -9 338 -20 q 362 -12 359 -12 q 368 -7 368 -12 q 525 31 462 9 l 552 31 l 604 42 l 614 39 q 639 45 633 42 l 639 42 q 696 53 686 53 q 715 85 704 53 l 715 102 q 709 132 715 121 l 712 132 q 704 229 712 203 l 709 232 q 704 237 709 237 q 712 281 712 267 l 712 300 q 715 357 712 321 q 707 373 711 373 l 715 444 q 712 446 712 444 l 715 446 q 709 511 709 471 l 709 538 q 682 568 709 568 l 671 568 l 655 560 q 647 563 652 560 q 609 560 624 560 l 598 560 l 593 557 l 593 560 q 585 557 590 560 q 547 560 562 560 l 538 560 l 533 557 q 500 563 533 562 l 495 560 q 465 566 495 564 l 460 563 q 433 568 460 566 q 430 566 433 566 q 357 582 361 582 "},"@":{"ha":1158,"x_min":20,"x_max":1138,"o":"m 582 2610 q 522 2601 540 2606 q 519 2604 522 2604 q 514 2599 515 2604 q 511 2601 511 2599 q 454 2593 488 2601 q 452 2596 454 2596 q 340 2550 399 2577 q 218 2471 244 2498 q 134 2387 182 2455 q 50 2214 50 2260 q 53 2197 53 2199 q 47 2176 51 2176 q 34 2081 39 2083 l 37 2075 q 34 2067 37 2072 l 37 2062 q 28 2016 33 2062 q 31 1988 31 2001 q 26 1934 31 1973 q 28 1893 26 1927 q 26 1885 26 1888 q 28 1883 28 1885 l 20 1845 l 20 1839 q 23 1788 20 1813 q 20 1771 20 1773 q 23 1720 23 1746 l 23 1717 l 26 1704 q 23 1701 23 1704 l 26 1695 q 20 1660 20 1683 l 20 1625 l 23 1619 l 20 1619 q 28 1598 20 1613 q 23 1571 28 1583 q 34 1519 28 1519 l 28 1500 l 31 1495 q 26 1484 31 1491 l 26 1478 l 28 1473 l 26 1473 l 39 1378 l 39 1373 q 34 1356 39 1365 q 42 1324 37 1329 l 42 1308 l 39 1294 l 45 1291 l 37 1234 l 37 1232 q 42 1226 37 1226 l 39 1207 l 42 1194 q 37 1164 40 1188 l 39 1158 q 37 1109 37 1120 q 39 1088 37 1103 q 37 1085 37 1088 l 42 1074 l 37 1063 q 39 1055 37 1061 q 37 1044 39 1049 l 47 990 l 45 977 q 47 960 47 962 q 39 928 47 943 q 47 830 47 865 l 47 792 l 50 779 q 47 770 47 779 l 47 743 l 50 738 l 47 738 q 50 727 47 732 l 47 722 q 50 711 50 717 l 50 703 q 45 675 50 697 q 47 654 45 665 q 45 646 47 651 q 47 594 47 616 l 47 559 q 53 526 47 545 q 47 507 53 518 q 53 480 50 484 l 50 464 q 56 434 56 437 l 53 420 q 56 418 56 420 q 53 410 56 415 q 69 315 58 315 l 66 315 l 69 288 l 69 260 q 75 255 69 255 q 88 203 80 218 q 167 106 109 153 q 281 35 229 58 q 365 22 365 26 q 490 8 464 14 q 492 11 490 11 l 566 3 q 598 5 594 5 l 609 0 q 620 3 614 3 l 642 3 l 655 0 q 671 5 655 3 l 671 3 q 680 5 674 3 l 685 3 l 690 5 q 715 3 705 3 l 723 3 l 736 5 q 739 3 736 3 q 783 5 767 5 l 788 5 l 793 8 q 796 5 793 5 l 799 5 l 804 8 l 804 5 l 821 8 q 848 5 833 8 q 899 8 873 8 q 929 5 911 8 q 964 11 945 11 l 989 8 q 991 11 989 11 q 1000 8 997 8 q 1027 14 1015 8 q 1029 11 1027 11 l 1035 11 l 1040 14 q 1043 11 1040 11 l 1048 11 q 1084 41 1067 11 q 1067 179 1078 109 q 1070 182 1070 179 q 1062 239 1066 199 l 1065 271 q 1062 317 1065 286 q 1065 334 1062 319 q 1062 372 1062 351 l 1062 393 l 1059 399 q 1062 401 1062 399 l 1062 491 l 1059 496 l 1062 496 l 1059 510 l 1059 532 l 1057 537 l 1059 537 l 1057 551 q 1059 575 1057 560 l 1057 581 q 1065 627 1062 599 q 1054 724 1059 710 l 1054 795 q 1046 798 1051 795 q 867 741 1046 776 l 867 743 l 791 727 l 785 730 l 758 724 l 753 727 q 715 724 730 724 l 682 724 q 658 727 673 724 q 647 724 653 724 l 644 724 q 454 754 506 734 q 343 846 386 787 q 311 1015 328 846 q 316 1039 313 1034 q 311 1080 313 1042 l 313 1085 q 308 1120 311 1091 q 311 1123 311 1120 l 308 1128 q 305 1248 305 1200 l 305 1280 l 302 1286 l 305 1286 l 302 1299 l 305 1305 l 302 1310 q 305 1321 305 1315 q 302 1392 305 1346 q 305 1400 305 1397 q 302 1402 302 1400 q 305 1427 305 1417 l 305 1568 l 308 1581 q 305 1590 305 1581 l 305 1603 q 297 1728 297 1717 q 300 1733 300 1728 l 297 1739 l 305 1812 l 302 1817 l 313 1902 q 354 1991 334 1976 q 376 2016 355 1999 q 416 2045 416 2042 q 549 2081 462 2070 q 690 2072 663 2081 q 693 2075 690 2075 q 696 2072 693 2072 l 709 2072 q 788 2045 788 2056 q 853 2013 840 2026 q 883 1855 883 1935 l 883 1853 l 880 1853 q 766 1918 783 1918 q 677 1937 741 1937 l 674 1937 q 503 1866 544 1937 q 441 1723 461 1809 q 444 1714 444 1717 q 435 1674 435 1689 l 435 1647 l 438 1641 q 430 1595 436 1641 q 433 1584 433 1590 l 433 1573 q 425 1508 425 1512 q 427 1506 427 1508 q 425 1503 425 1506 l 425 1500 l 427 1484 l 425 1478 l 430 1451 l 427 1451 l 430 1438 l 430 1408 q 433 1337 430 1383 q 430 1329 430 1332 q 433 1326 433 1329 q 430 1324 430 1326 l 433 1318 q 430 1316 430 1318 l 430 1313 q 435 1297 430 1305 l 433 1291 l 441 1242 l 438 1237 l 441 1232 q 438 1223 441 1229 l 441 1218 l 438 1207 q 444 1204 438 1204 l 444 1202 q 446 1177 444 1192 l 444 1172 q 449 1161 446 1161 q 484 1039 463 1088 q 631 949 545 949 q 696 960 656 949 q 831 1028 745 960 q 818 922 831 969 l 818 920 l 823 920 q 891 955 870 955 q 1081 1047 1018 1019 q 1122 1072 1114 1047 l 1122 1093 l 1119 1109 q 1122 1123 1122 1114 l 1122 1139 l 1119 1145 l 1122 1145 l 1119 1164 l 1119 1166 q 1122 1229 1119 1192 l 1119 1245 q 1122 1253 1122 1251 q 1119 1256 1119 1253 l 1122 1261 l 1119 1289 q 1124 1318 1119 1295 l 1119 1340 q 1124 1416 1124 1385 q 1122 1446 1124 1428 q 1127 1500 1124 1460 q 1124 1508 1124 1506 l 1127 1514 q 1122 1544 1124 1538 q 1124 1546 1124 1544 l 1124 1571 l 1127 1590 q 1124 1592 1124 1590 l 1127 1606 q 1122 1622 1127 1613 q 1127 1660 1122 1631 l 1124 1671 l 1127 1685 q 1124 1693 1127 1687 l 1127 1698 q 1124 1714 1127 1710 l 1130 1817 q 1127 1820 1127 1817 l 1130 1820 l 1127 1834 l 1127 1861 l 1130 1874 q 1127 1877 1127 1874 q 1133 1893 1127 1883 q 1130 1904 1130 1898 l 1130 1921 l 1133 1934 q 1130 1937 1130 1934 q 1138 1980 1133 1961 l 1135 1986 q 1138 2024 1138 2009 l 1138 2094 l 1135 2100 l 1138 2100 l 1138 2116 q 1111 2352 1126 2352 q 1027 2507 1086 2447 q 850 2588 964 2559 q 731 2607 754 2607 q 707 2601 717 2607 q 688 2607 707 2606 l 661 2607 q 650 2604 654 2607 q 639 2607 645 2607 l 598 2607 l 582 2610 m 715 1503 l 718 1508 q 774 1644 745 1644 q 856 1568 821 1644 l 853 1563 q 867 1514 861 1552 l 867 1454 q 861 1432 861 1435 l 864 1427 q 845 1340 850 1340 q 823 1272 840 1298 q 788 1215 823 1248 q 785 1218 785 1215 l 777 1213 l 772 1213 q 734 1261 764 1213 q 712 1405 720 1322 l 712 1457 q 718 1489 712 1470 l 715 1503 "},"A":{"ha":1180,"x_min":20,"x_max":1160,"o":"m 972 2653 q 842 2639 949 2646 q 834 2642 837 2642 q 802 2639 830 2642 l 788 2642 q 766 2639 778 2639 l 755 2639 l 750 2637 l 750 2639 l 712 2637 l 699 2639 l 685 2634 l 671 2637 q 604 2631 621 2631 q 574 2637 588 2631 l 557 2634 l 549 2634 l 536 2637 q 533 2634 536 2634 q 446 2642 524 2637 q 444 2639 446 2639 q 411 2645 444 2644 l 330 2645 q 300 2588 300 2620 l 300 2580 q 302 2569 300 2574 q 286 2401 286 2471 l 289 2390 q 286 2382 286 2390 q 243 2091 273 2224 l 245 2086 l 235 2021 q 237 2010 235 2015 l 232 1969 q 235 1956 235 1965 l 235 1948 q 229 1918 229 1921 l 229 1904 l 232 1891 q 218 1777 228 1891 l 221 1771 q 218 1769 218 1771 l 218 1739 q 202 1565 202 1608 q 205 1554 202 1559 q 194 1481 199 1497 l 194 1470 l 197 1465 l 194 1465 q 199 1446 194 1463 q 197 1438 199 1443 l 202 1408 q 197 1375 200 1400 q 199 1367 199 1370 l 197 1354 q 199 1351 199 1354 l 194 1340 q 199 1316 194 1329 q 197 1313 197 1316 l 197 1289 q 189 1253 197 1267 q 191 1245 189 1251 l 189 1245 q 191 1210 189 1233 q 183 1185 187 1204 q 170 1080 183 1156 l 170 1050 l 153 982 l 156 977 q 142 868 156 972 q 113 732 118 773 l 115 727 q 107 703 111 727 q 110 700 110 703 l 107 700 q 85 562 96 576 l 91 559 q 83 510 83 516 l 85 499 q 64 334 72 421 l 66 320 q 64 312 66 312 q 20 -16 34 47 l 31 -16 q 229 30 66 3 q 240 27 234 27 l 267 30 l 270 24 q 297 30 285 24 q 330 22 297 28 q 354 27 345 22 q 357 24 354 24 l 454 24 l 487 27 q 519 22 487 22 l 522 22 q 519 52 522 33 l 522 84 l 519 95 q 525 103 522 95 l 514 179 l 517 203 l 506 293 l 506 355 q 500 377 506 367 l 503 377 q 498 423 503 391 q 500 426 500 423 q 498 437 498 431 l 498 456 l 495 461 q 500 483 500 461 q 498 518 500 500 l 503 548 q 500 551 500 548 q 506 570 506 564 q 500 583 506 574 q 506 689 506 679 q 514 694 506 692 l 511 700 l 511 708 q 519 705 514 708 q 644 713 616 708 l 650 711 q 661 713 654 713 l 677 713 l 682 711 q 674 559 674 612 l 674 537 l 671 524 q 674 521 674 524 l 671 521 q 674 510 671 515 q 671 385 671 435 l 671 345 l 669 317 q 671 315 671 317 q 666 285 669 315 q 669 277 669 279 q 663 190 669 224 q 666 182 666 184 l 663 171 q 666 160 663 165 l 663 144 l 663 119 q 661 79 663 102 l 663 62 q 661 30 661 35 q 663 22 663 24 q 655 -5 659 22 q 658 -35 655 -17 l 655 -49 l 658 -62 q 655 -79 655 -77 q 661 -84 655 -84 l 696 -84 q 704 -79 697 -84 l 718 -79 q 788 -62 774 -71 l 886 -49 l 948 -49 q 978 -43 951 -49 l 1073 -43 q 1154 -41 1100 -43 l 1160 -30 q 1143 81 1152 60 l 1146 87 q 1141 103 1141 96 l 1141 111 l 1143 125 q 1124 241 1137 144 q 1130 290 1126 249 q 1122 339 1125 290 q 1124 347 1124 339 l 1124 353 l 1122 358 l 1124 358 q 1119 445 1124 413 q 1122 458 1122 450 l 1122 464 q 1111 551 1111 539 l 1114 562 l 1111 562 l 1095 670 l 1097 670 l 1095 684 q 1097 692 1095 686 l 1095 697 q 1097 716 1095 705 q 1086 773 1090 742 l 1089 773 l 1086 784 q 1067 949 1079 816 l 1070 955 q 1065 1001 1068 960 q 1067 1004 1067 1001 l 1062 1039 q 1065 1042 1065 1039 l 1035 1267 q 1038 1270 1038 1267 l 1035 1289 q 1038 1332 1035 1311 q 1032 1359 1035 1352 l 1035 1375 q 1029 1413 1035 1393 q 1032 1416 1032 1413 l 1029 1421 q 1032 1432 1032 1426 l 1032 1435 q 1027 1470 1032 1458 l 1029 1470 q 1019 1576 1027 1542 q 1021 1579 1021 1576 l 1021 1581 l 1019 1587 l 1021 1587 q 1013 1655 1019 1643 l 1016 1655 q 1013 1666 1016 1661 q 1016 1674 1013 1668 l 1013 1690 l 1013 1693 q 1016 1704 1013 1699 q 1013 1714 1013 1708 l 1013 1736 q 1010 1766 1013 1748 q 1013 1777 1013 1771 l 1010 1804 q 1016 1869 1016 1839 l 1016 1883 l 1019 1896 q 1005 1969 1010 1920 l 1008 1986 q 1005 1999 1005 1990 l 1005 2024 l 1002 2029 l 1005 2029 l 1002 2043 l 1002 2048 q 1005 2072 1002 2058 q 1000 2094 1000 2089 l 1002 2100 q 1000 2108 1000 2105 q 1002 2138 1000 2119 l 1000 2148 l 1005 2159 q 1000 2181 1005 2162 l 1000 2205 q 994 2257 1000 2235 l 1000 2284 q 997 2292 997 2289 q 1000 2333 997 2309 l 991 2382 l 994 2387 l 991 2393 q 994 2414 991 2399 q 991 2422 994 2417 q 994 2431 991 2425 q 991 2482 994 2439 q 994 2520 991 2486 q 991 2523 991 2520 q 997 2569 997 2523 l 997 2577 l 994 2582 q 1000 2588 1000 2582 l 1000 2599 l 997 2612 q 1000 2615 1000 2612 q 997 2626 1000 2621 l 1000 2631 q 972 2653 1000 2650 m 538 2189 q 546 2224 540 2224 q 559 2165 546 2198 q 622 1671 559 1995 l 619 1671 q 625 1649 619 1666 l 622 1649 q 630 1603 622 1645 q 627 1568 630 1591 l 638 1535 l 635 1535 q 638 1525 635 1529 q 635 1516 638 1522 q 652 1375 644 1416 q 638 1356 649 1356 q 627 1362 638 1360 l 608 1359 q 578 1364 583 1362 l 524 1359 l 519 1362 q 484 1356 515 1359 q 478 1432 478 1398 q 481 1470 478 1447 q 478 1506 478 1484 l 481 1533 q 478 1535 478 1533 l 481 1541 l 478 1552 l 481 1576 q 478 1584 481 1579 l 481 1598 q 484 1674 481 1632 l 481 1685 l 489 1717 l 486 1723 q 492 1747 489 1729 l 489 1752 q 494 1793 491 1759 q 492 1796 492 1793 l 494 1796 q 492 1804 494 1799 q 494 1815 494 1809 l 494 1839 q 519 2029 513 1945 q 516 2037 516 2035 q 530 2119 522 2037 l 527 2124 q 541 2184 535 2132 l 538 2189 "},"B":{"ha":1039,"x_min":20,"x_max":1019,"o":"m 433 2355 q 316 2341 355 2355 q 213 2311 213 2319 q 148 2292 188 2308 q 47 2252 47 2255 l 47 2222 l 50 2216 q 47 2214 47 2216 l 50 2197 l 47 2192 q 56 2151 47 2180 q 50 2100 56 2117 l 56 2072 q 53 2064 53 2067 q 61 1915 53 1968 q 58 1907 58 1910 q 61 1899 58 1904 l 58 1899 q 64 1769 64 1832 l 61 1755 q 69 1731 62 1755 q 66 1728 66 1731 l 66 1674 q 72 1619 66 1647 q 69 1573 69 1588 q 88 1115 77 1479 l 83 1050 q 85 1047 85 1050 q 83 1044 83 1047 l 83 1015 l 85 1009 q 83 1006 83 1009 l 83 993 q 88 920 83 946 q 85 917 85 920 q 88 906 88 912 l 88 876 l 72 648 l 75 643 q 72 635 72 643 l 56 483 q 58 475 58 477 l 56 464 l 58 453 q 50 369 53 453 q 53 361 53 363 l 45 331 l 47 326 l 45 315 q 47 304 45 309 q 39 255 45 294 q 45 236 39 247 q 39 231 40 236 l 39 222 l 42 217 q 34 184 39 196 l 37 179 q 26 111 37 162 l 26 100 l 28 95 l 26 95 q 20 16 26 73 q 39 5 33 5 q 61 8 46 5 q 140 0 68 3 q 427 35 303 14 q 639 84 625 73 q 810 152 722 98 q 948 290 859 169 q 1013 553 1013 425 q 1010 556 1010 553 l 1013 556 q 1019 703 1016 673 q 1016 708 1016 703 q 1019 711 1019 708 l 1016 716 q 1019 727 1019 721 l 1019 732 q 1013 776 1019 736 l 1013 830 l 1010 844 q 1013 846 1013 844 q 1008 876 1010 850 l 1010 882 l 1005 895 l 1008 895 q 954 1090 975 1044 q 840 1232 924 1181 l 842 1237 l 840 1237 l 834 1234 q 810 1248 810 1244 l 707 1291 l 707 1294 q 761 1326 741 1310 q 804 1359 798 1359 q 853 1413 847 1413 q 967 1611 925 1507 q 1013 1823 991 1668 l 1013 1883 l 1010 1896 q 1013 1899 1013 1896 q 975 2081 1013 1977 q 774 2279 885 2224 q 639 2333 664 2333 l 633 2330 q 623 2336 623 2332 q 549 2352 569 2344 q 538 2349 540 2349 l 533 2352 l 517 2346 l 490 2355 l 476 2352 q 433 2355 460 2352 m 435 1812 l 441 1815 q 452 1812 447 1815 l 457 1815 q 579 1788 516 1815 q 642 1723 622 1772 q 639 1720 639 1723 l 639 1717 l 644 1709 l 644 1704 l 639 1706 l 636 1706 l 636 1704 q 661 1652 661 1677 q 655 1636 661 1645 q 661 1630 655 1630 q 639 1576 639 1585 q 587 1500 639 1560 q 449 1427 506 1440 l 446 1440 l 446 1446 l 449 1462 l 444 1489 l 446 1489 q 444 1522 446 1494 q 446 1546 444 1531 q 444 1560 444 1551 q 446 1579 444 1568 q 438 1663 441 1592 q 441 1682 441 1666 l 441 1690 l 438 1695 l 441 1695 l 435 1766 q 438 1790 438 1781 q 435 1799 435 1796 q 438 1807 438 1799 l 435 1812 m 468 955 q 492 963 477 955 l 492 960 l 511 963 l 514 963 q 587 955 530 963 q 712 868 683 917 q 709 865 709 868 l 712 860 q 715 863 715 860 q 753 784 753 803 l 753 711 q 745 651 753 677 q 715 578 731 612 q 682 537 715 572 q 566 445 608 453 q 476 420 504 420 l 476 477 q 473 524 476 492 q 476 529 476 524 q 473 532 473 529 q 476 540 473 534 q 473 613 476 547 l 471 627 q 473 629 473 627 q 471 640 471 634 l 471 659 q 473 681 471 671 q 468 749 471 696 l 471 754 q 468 765 468 759 l 468 903 l 471 917 q 465 930 468 917 q 468 933 468 930 l 468 955 "},"C":{"ha":817,"x_min":20,"x_max":796,"o":"m 563 2634 q 327 2569 468 2634 q 237 2474 237 2490 q 126 2257 175 2393 q 75 2051 88 2132 q 23 1617 45 1895 q 26 1609 26 1611 q 20 1565 22 1572 q 23 1554 23 1560 l 23 1533 q 20 1416 23 1478 q 23 1383 23 1397 q 20 1362 20 1364 q 23 1332 23 1338 q 20 1286 23 1307 q 23 1185 23 1234 l 23 1158 l 20 1139 q 28 1063 26 1139 q 23 974 28 1041 q 28 941 28 948 q 26 892 26 897 l 34 846 q 31 817 34 840 l 56 640 l 53 640 l 53 624 q 91 361 68 435 q 167 163 125 235 q 340 24 281 24 q 463 0 410 0 l 476 3 q 479 0 476 0 l 492 5 q 498 0 498 5 q 541 11 526 11 l 552 8 q 598 24 552 13 q 726 71 682 41 q 772 95 758 91 q 769 206 769 179 q 764 228 769 209 l 764 285 q 758 307 764 288 l 758 380 q 742 556 742 525 q 736 578 742 559 l 736 694 q 742 724 736 698 l 742 789 l 739 795 q 718 776 724 786 q 666 746 703 766 l 661 746 l 655 749 q 625 730 655 736 q 617 732 620 732 q 538 708 617 717 q 511 713 534 708 l 506 711 q 384 789 440 711 q 351 930 359 833 l 354 936 q 351 947 351 941 l 351 977 l 349 990 q 351 993 351 990 q 349 1023 349 1011 l 349 1061 q 346 1134 349 1084 q 343 1137 343 1134 q 346 1139 346 1137 l 346 1145 l 343 1158 q 346 1161 346 1158 l 343 1166 q 346 1175 343 1169 l 343 1180 q 346 1194 343 1189 q 343 1223 343 1212 l 343 1240 q 346 1318 343 1270 q 343 1329 343 1323 q 346 1337 346 1335 q 343 1345 346 1340 l 349 1386 l 346 1392 q 351 1424 349 1419 q 349 1435 349 1429 l 349 1454 q 354 1503 349 1476 l 351 1519 l 357 1592 q 354 1598 354 1592 q 368 1706 359 1598 q 365 1709 365 1706 l 373 1755 q 430 1883 373 1833 q 525 1921 498 1921 l 530 1918 q 536 1923 536 1918 l 549 1921 l 601 1921 q 658 1891 651 1899 l 663 1893 l 663 1891 q 726 1853 703 1876 q 764 1836 753 1847 l 769 1839 q 755 1997 769 1850 q 761 2037 761 2022 l 761 2045 l 758 2062 q 761 2075 761 2066 l 761 2078 q 755 2100 761 2089 q 761 2121 761 2113 q 758 2135 761 2130 l 766 2246 l 764 2252 q 769 2317 769 2276 l 769 2322 l 772 2336 q 769 2338 769 2336 l 774 2341 l 772 2355 l 774 2365 q 772 2368 772 2365 q 788 2531 783 2519 l 785 2536 q 796 2572 787 2536 l 796 2577 q 783 2593 796 2580 l 690 2615 l 685 2612 l 620 2626 q 617 2623 620 2623 q 563 2634 617 2629 "},"D":{"ha":887,"x_min":20,"x_max":867,"o":"m 20 2652 q 58 2351 45 2507 q 56 2348 56 2351 q 61 2304 61 2336 l 61 2291 q 66 2285 61 2285 l 64 2280 l 64 2250 l 66 2231 q 64 2228 64 2231 q 69 2185 69 2198 l 69 2174 l 66 2161 q 69 2153 69 2161 l 69 2147 q 66 2136 69 2141 q 72 2096 69 2131 q 69 2047 69 2076 l 72 2033 q 69 2030 69 2033 q 72 2020 72 2026 l 72 1984 q 77 1963 77 1965 l 77 1900 l 75 1887 q 77 1884 77 1887 q 75 1854 75 1866 l 75 1843 q 80 1781 75 1810 q 77 1773 77 1775 q 80 1765 77 1770 l 75 1713 q 80 1689 77 1713 q 75 1653 78 1683 q 80 1491 77 1641 l 83 1480 q 80 1477 80 1480 q 83 1469 80 1474 l 80 1463 q 83 1455 80 1461 l 80 1442 l 83 1428 l 80 1423 q 85 1401 85 1409 l 83 1390 q 85 1388 85 1390 q 83 1385 83 1388 l 83 1341 q 85 1331 83 1335 q 83 1320 83 1326 l 83 1252 q 77 1217 83 1229 q 80 1206 80 1212 q 77 1195 80 1200 q 83 1160 80 1191 l 80 1154 q 83 1143 83 1149 l 83 1138 l 80 1124 q 83 1122 83 1124 l 80 1122 l 85 1070 q 80 1021 83 1063 q 88 989 83 1021 q 80 962 84 970 q 83 951 83 957 l 83 926 l 80 907 q 83 905 83 907 q 75 875 79 882 l 80 867 l 80 859 l 75 850 l 75 848 l 80 848 l 80 834 q 72 831 77 834 q 83 810 83 821 q 72 734 77 783 l 75 728 q 58 568 64 604 q 61 560 58 566 q 56 538 58 560 q 58 528 58 534 l 58 519 q 37 186 37 351 q 23 -62 34 78 l 47 -61 l 53 -58 l 53 -61 l 142 -47 l 159 -47 q 175 -37 175 -39 q 237 -18 237 -24 q 321 9 300 -1 q 446 64 370 25 q 528 107 521 107 l 587 153 q 636 186 629 186 q 704 267 704 249 q 764 378 732 304 q 815 538 793 435 q 829 604 829 576 q 856 769 856 756 l 853 774 q 867 859 861 815 q 864 902 864 886 l 864 956 l 861 970 q 864 972 864 970 q 859 1054 859 1027 l 861 1067 q 859 1070 859 1067 q 861 1078 859 1073 q 856 1114 858 1102 l 859 1127 q 856 1219 859 1163 l 853 1225 l 856 1225 q 859 1320 856 1266 q 859 1455 859 1405 q 856 1727 861 1660 q 850 1781 850 1777 q 856 1808 853 1803 q 850 1835 850 1824 l 853 1849 q 848 1857 850 1849 l 850 1862 l 848 1887 l 850 1900 q 848 1903 848 1900 l 850 1903 l 848 1922 l 850 1927 q 837 1984 845 1927 q 840 1987 837 1987 q 837 2006 840 2005 l 840 2011 q 834 2025 837 2025 q 812 2142 825 2119 l 815 2142 q 799 2190 806 2178 q 739 2334 799 2235 q 680 2405 700 2382 q 595 2473 617 2467 l 552 2500 l 495 2527 q 397 2570 417 2570 q 267 2619 363 2593 q 20 2652 163 2649 m 433 1718 l 435 1718 q 552 1586 536 1629 q 595 1401 583 1529 l 593 1396 q 598 1328 598 1366 l 598 1306 l 601 1293 q 598 1284 598 1293 l 598 1268 l 601 1249 q 598 1246 598 1249 l 601 1241 q 598 1238 598 1241 l 598 1208 q 593 1130 598 1156 q 595 1127 595 1130 q 590 1092 593 1121 l 593 1086 l 590 1070 l 590 1043 q 587 997 590 1029 q 590 994 590 997 q 579 905 585 966 q 552 834 579 889 q 438 739 462 739 l 438 742 q 441 777 438 760 l 438 791 l 441 804 l 438 823 q 452 1073 446 919 q 446 1108 449 1104 q 449 1119 449 1113 q 446 1130 449 1125 l 449 1135 q 446 1146 449 1141 q 449 1176 449 1164 l 449 1198 l 452 1211 q 449 1214 449 1211 q 452 1222 449 1217 l 449 1227 l 452 1227 l 446 1284 q 449 1303 449 1295 q 444 1347 449 1322 q 446 1350 446 1347 q 441 1407 441 1364 l 441 1453 l 438 1458 l 441 1458 q 438 1482 441 1472 q 441 1537 441 1513 l 441 1556 q 430 1672 441 1566 l 430 1699 l 433 1718 "},"E":{"ha":1009,"x_min":20,"x_max":989,"o":"m 970 2531 q 766 2520 896 2531 l 755 2523 l 731 2515 l 731 2517 l 715 2515 l 704 2517 l 598 2498 l 585 2501 q 498 2488 510 2493 l 498 2490 l 351 2474 l 302 2479 q 137 2469 296 2475 q 80 2471 127 2469 q 69 2428 73 2471 l 72 2422 q 69 2420 69 2422 l 75 2412 l 75 2357 l 72 2344 q 80 2333 77 2333 l 77 2327 l 77 2311 l 75 2295 q 80 2222 77 2295 q 77 2184 77 2188 l 85 2138 q 83 2135 83 2138 l 83 2094 l 85 2089 l 83 2089 q 88 2024 83 2066 l 85 2018 l 94 1945 q 91 1937 91 1940 q 94 1929 91 1934 q 88 1902 91 1922 q 91 1899 91 1902 l 88 1893 q 91 1883 91 1889 l 91 1847 l 94 1834 q 88 1817 91 1834 l 91 1812 q 94 1706 91 1763 q 88 1649 91 1663 q 91 1622 91 1635 l 91 1590 l 94 1576 q 91 1573 91 1576 q 94 1552 91 1563 l 91 1533 q 96 1397 94 1424 q 94 1392 94 1397 q 96 1375 96 1377 q 91 1310 96 1360 l 96 1289 q 91 1172 94 1278 l 94 1166 q 91 1164 91 1166 l 91 1112 l 88 1099 q 91 1096 91 1099 l 88 1090 l 91 1085 l 88 1085 q 94 1017 88 1033 l 91 1012 q 88 892 88 941 q 91 854 88 878 q 85 819 85 839 q 88 811 85 817 q 85 808 85 811 l 85 776 l 88 762 l 80 700 q 83 697 83 700 q 80 689 83 694 q 83 681 80 686 q 72 556 83 631 l 75 551 q 66 491 70 528 q 69 488 69 491 q 66 477 66 484 l 69 472 q 61 415 66 472 q 64 412 64 415 l 61 412 q 64 404 61 410 q 56 350 61 359 l 58 345 q 50 279 55 289 l 53 274 q 50 263 53 268 l 53 258 q 47 239 50 239 q 37 119 45 150 l 37 95 l 31 87 l 31 65 q 20 14 31 43 l 26 11 l 77 11 l 83 14 l 83 11 l 110 14 l 151 14 l 156 16 l 156 14 q 172 19 161 14 l 186 16 l 232 22 q 240 19 237 19 q 248 22 245 22 l 264 19 l 270 22 q 294 19 285 19 l 330 19 q 346 24 337 19 q 349 22 346 22 l 376 22 l 381 24 l 381 22 q 392 24 387 22 q 400 22 395 24 l 414 24 q 490 22 455 22 l 498 22 l 514 19 q 560 24 523 21 q 582 22 571 22 l 620 22 l 639 19 q 642 22 639 22 l 647 14 l 658 16 q 750 8 750 14 l 755 11 l 842 0 q 850 3 845 0 q 861 0 855 0 l 867 0 l 872 3 q 875 0 872 0 l 878 0 l 886 5 q 878 60 880 51 l 880 60 q 869 125 872 91 q 872 133 872 130 l 859 214 l 861 239 l 856 250 l 859 255 q 850 366 859 285 q 853 391 850 376 q 848 445 848 424 q 850 467 850 465 q 848 475 848 472 q 859 553 853 528 q 856 556 856 553 q 880 684 875 631 l 878 689 q 831 692 860 689 q 799 684 827 692 l 758 684 l 753 681 l 753 684 q 696 673 736 678 q 688 675 690 675 l 682 673 l 682 675 q 557 654 654 667 l 547 656 q 528 651 547 653 l 517 654 l 484 651 q 471 675 475 651 q 473 678 473 675 l 471 684 l 473 684 l 471 711 l 471 732 l 468 738 l 471 738 q 468 795 471 764 q 473 849 471 846 q 471 860 471 854 l 471 879 q 476 917 471 897 l 473 922 l 476 922 l 473 936 l 473 941 l 476 968 q 473 971 473 968 q 476 974 476 971 l 473 979 q 484 1039 481 1001 q 574 1061 484 1061 l 612 1058 l 623 1061 q 625 1058 623 1058 q 633 1061 628 1058 l 633 1058 q 647 1061 642 1058 q 723 1047 712 1055 q 731 1050 726 1047 l 728 1082 l 728 1240 q 736 1289 730 1289 q 750 1356 740 1342 q 764 1421 759 1413 l 764 1424 l 753 1424 q 739 1421 744 1424 l 723 1424 l 709 1424 q 666 1419 677 1424 q 655 1421 661 1421 l 650 1421 q 530 1416 602 1421 q 433 1432 454 1421 l 427 1430 q 406 1462 412 1430 l 408 1473 q 406 1565 406 1535 q 403 1573 406 1568 q 406 1576 406 1573 q 411 1685 406 1635 l 408 1690 q 416 1761 413 1716 q 414 1763 414 1761 q 471 1785 414 1785 l 476 1782 q 519 1790 506 1785 l 519 1788 q 530 1790 526 1788 q 538 1788 533 1790 q 557 1790 547 1788 q 606 1788 583 1788 l 620 1788 q 644 1793 627 1788 q 688 1788 659 1793 q 734 1790 725 1790 l 818 1780 l 853 1780 q 916 1771 863 1780 q 929 1780 929 1773 l 929 1853 q 940 1953 940 1885 q 935 1994 940 1968 l 940 2007 q 937 2024 937 2022 q 940 2032 937 2026 q 935 2059 937 2037 q 940 2075 935 2064 l 937 2081 q 945 2127 939 2081 l 943 2132 q 951 2222 946 2222 l 948 2227 q 959 2327 954 2294 l 956 2333 q 962 2379 959 2379 q 981 2482 962 2436 l 975 2482 l 975 2485 q 989 2523 989 2494 q 981 2531 985 2531 l 970 2531 "},"F":{"ha":1004,"x_min":20,"x_max":983,"o":"m 916 2513 q 872 2502 896 2504 l 861 2504 l 829 2495 q 826 2498 829 2498 l 821 2495 q 818 2498 821 2498 l 785 2498 q 764 2492 783 2498 l 755 2492 q 736 2495 740 2492 q 712 2492 722 2492 l 636 2492 q 625 2495 630 2492 q 614 2492 621 2492 l 522 2492 l 517 2488 q 514 2492 517 2492 l 511 2492 l 506 2488 q 503 2492 506 2492 l 495 2492 q 457 2498 477 2492 l 441 2492 l 435 2495 l 430 2492 q 408 2495 428 2492 q 400 2492 406 2495 q 389 2495 395 2495 l 376 2495 l 370 2492 l 370 2495 q 362 2492 368 2495 q 324 2498 353 2492 q 302 2492 319 2498 q 281 2498 286 2498 l 275 2495 q 273 2498 275 2498 l 227 2498 q 180 2502 201 2498 q 151 2498 165 2498 q 64 2504 136 2498 q 34 2483 34 2488 l 34 2479 q 45 2431 34 2476 l 45 2361 l 47 2339 q 45 2336 45 2339 l 47 2321 l 45 2315 l 50 2294 l 47 2294 q 50 2281 47 2287 q 47 2263 47 2266 q 50 2247 47 2254 q 47 2224 50 2245 l 50 2125 l 47 2114 q 53 2053 53 2114 l 53 2038 l 56 2030 l 53 2030 q 56 2022 53 2028 q 53 2001 56 2013 q 56 1967 56 1973 q 50 1878 56 1925 q 53 1875 53 1878 l 50 1875 q 53 1866 50 1872 l 50 1851 q 56 1811 53 1816 l 53 1793 l 53 1735 q 50 1689 53 1720 q 56 1677 56 1689 l 53 1662 q 56 1659 56 1662 l 53 1659 l 58 1594 q 53 1573 53 1580 q 56 1421 56 1483 l 56 1360 l 58 1354 l 56 1354 q 61 1333 56 1348 q 58 1330 58 1333 l 58 1320 l 61 1314 l 58 1314 q 50 1128 56 1156 l 56 1103 l 53 1086 l 53 1018 q 56 966 53 1002 q 53 964 53 966 l 56 956 q 50 859 50 908 l 50 844 l 53 838 q 50 835 50 838 l 50 814 l 47 798 q 50 795 50 798 q 47 786 47 789 q 53 722 47 738 q 45 646 49 722 l 47 625 l 45 609 q 47 600 45 606 l 37 399 q 39 390 39 399 l 39 387 q 37 359 39 376 q 39 351 39 353 l 28 256 l 31 249 q 28 246 28 249 l 28 203 l 26 182 q 28 179 28 182 q 20 127 26 179 q 23 124 23 127 l 20 106 l 20 39 l 26 29 q 199 39 186 36 q 365 31 307 39 q 451 12 404 20 q 448 61 456 35 q 441 127 441 86 l 441 136 l 438 142 l 441 142 q 438 148 441 148 q 419 317 425 309 l 422 323 l 416 347 q 419 356 416 351 l 416 362 q 422 383 416 371 l 416 395 q 419 404 416 399 q 416 414 419 408 l 419 435 q 416 466 419 439 q 419 478 416 473 l 414 561 l 416 579 l 414 594 l 416 606 l 411 659 q 414 661 414 659 q 406 750 411 675 l 411 771 l 406 811 l 408 817 l 406 829 q 408 850 406 838 l 403 926 l 408 942 q 441 956 408 956 q 514 954 479 954 l 517 954 q 568 956 543 954 q 642 951 587 954 q 663 991 654 951 q 661 1076 661 1038 q 663 1101 661 1089 l 661 1119 q 669 1286 661 1181 l 644 1286 l 636 1293 l 557 1293 l 544 1289 q 541 1293 544 1293 l 525 1289 q 481 1293 509 1289 q 473 1289 476 1289 q 457 1295 465 1295 l 454 1295 l 449 1293 q 446 1295 449 1295 l 389 1295 q 381 1305 381 1301 l 381 1341 l 384 1356 q 378 1378 380 1356 q 384 1411 384 1391 l 381 1417 q 387 1433 384 1417 l 384 1439 q 389 1497 387 1441 q 387 1506 387 1503 q 389 1509 389 1506 q 387 1518 389 1512 q 392 1589 389 1518 q 446 1600 404 1596 l 452 1600 l 468 1598 q 511 1607 504 1601 q 519 1603 514 1607 l 555 1613 l 563 1613 l 576 1610 q 579 1613 576 1613 q 595 1610 591 1613 q 620 1613 610 1613 l 650 1613 q 680 1607 669 1613 l 685 1610 q 696 1607 690 1607 l 709 1607 q 734 1610 719 1607 l 788 1600 l 802 1603 l 815 1600 q 818 1603 815 1603 l 899 1594 q 902 1598 899 1598 l 918 1594 l 921 1594 q 943 1613 940 1613 q 926 1787 943 1632 l 929 1802 q 924 1912 924 1891 l 926 1927 q 924 1940 924 1933 q 926 1994 924 1959 l 924 2001 l 926 2001 q 924 2010 926 2003 l 926 2028 l 926 2077 l 929 2098 q 926 2102 926 2098 q 932 2135 932 2114 l 932 2190 q 937 2250 932 2207 l 935 2269 l 943 2327 q 940 2336 943 2330 q 951 2419 943 2376 l 948 2425 q 954 2446 954 2425 l 954 2462 q 929 2513 954 2513 q 921 2511 926 2513 l 916 2513 m 981 570 l 981 564 l 983 564 l 983 570 l 981 570 "},"G":{"ha":1118,"x_min":20,"x_max":1106,"o":"m 623 2664 q 444 2634 499 2656 q 297 2582 389 2634 q 194 2450 222 2529 q 142 2327 142 2348 q 94 2124 94 2176 q 75 2024 75 2030 q 77 2021 77 2024 q 69 1983 70 2021 q 56 1866 56 1900 l 56 1842 l 53 1828 q 56 1826 56 1828 q 53 1815 53 1821 q 50 1750 53 1788 l 53 1744 q 50 1742 50 1744 l 53 1736 q 50 1733 50 1736 l 50 1704 q 47 1679 50 1694 q 50 1668 50 1674 q 39 1587 44 1610 q 23 1340 28 1358 l 26 1316 l 23 1310 q 26 1299 26 1305 l 26 1294 l 23 1278 l 26 1272 q 23 1248 23 1257 l 23 1223 l 20 1210 q 23 1207 23 1210 l 20 1207 l 23 1194 l 20 1188 l 23 1183 q 20 1115 23 1173 l 23 1088 q 20 1053 20 1075 l 20 1034 l 23 1015 q 20 1012 20 1015 l 23 1006 l 20 996 q 26 977 20 987 q 23 968 26 974 l 26 949 l 23 933 q 26 930 26 933 l 23 925 q 26 914 26 920 l 26 873 l 28 860 q 26 857 26 860 q 28 825 28 829 l 26 814 q 28 811 28 814 q 23 779 26 811 q 26 776 26 779 l 23 776 q 28 730 26 732 q 26 727 26 730 l 26 694 l 23 681 q 26 678 26 681 l 23 667 q 26 659 23 665 l 23 654 q 26 643 26 649 l 26 637 q 23 613 26 628 q 28 583 25 608 q 26 581 26 583 q 34 526 31 531 l 31 526 q 66 279 51 320 q 123 133 66 229 q 191 60 155 93 q 411 -24 191 30 l 416 -22 q 452 -27 429 -27 l 484 -27 l 701 -5 q 1103 28 938 11 q 1090 246 1106 88 q 1070 689 1074 404 l 1073 703 q 1070 713 1073 709 l 1073 719 q 1067 814 1067 783 l 1065 819 q 1067 822 1067 819 l 1067 873 q 1070 898 1067 883 l 1067 1133 q 1069 1147 1069 1138 l 1069 1177 q 1064 1206 1069 1180 l 1064 1209 l 1067 1228 q 1064 1231 1064 1228 l 1067 1231 q 1069 1315 1067 1281 q 1067 1369 1067 1339 l 1069 1383 q 1067 1385 1067 1383 q 1069 1388 1069 1385 l 1069 1410 l 1067 1415 q 983 1418 1041 1415 l 980 1418 q 947 1429 980 1421 l 923 1423 q 912 1426 918 1426 l 907 1426 q 901 1421 902 1426 q 899 1423 899 1421 q 888 1421 892 1423 l 874 1426 q 866 1423 871 1426 q 855 1426 860 1423 l 806 1421 l 790 1426 l 785 1423 q 709 1432 731 1427 q 698 1429 704 1429 l 695 1429 l 682 1432 q 679 1429 682 1429 q 641 1434 674 1431 q 630 1432 631 1432 q 559 1442 591 1434 l 543 1437 l 527 1440 l 505 1440 l 503 1440 q 475 1415 475 1440 q 481 1361 475 1407 q 478 1345 478 1347 q 489 1206 489 1226 q 486 1204 486 1206 q 492 928 492 986 l 490 903 q 492 901 492 903 q 490 898 490 901 l 490 817 l 492 803 q 490 798 490 803 l 490 779 q 506 722 490 728 q 517 724 512 722 l 525 719 q 590 735 525 730 l 614 732 q 693 738 677 735 q 712 732 693 735 q 723 735 717 735 l 745 735 q 807 716 806 722 l 807 708 q 804 697 807 702 q 807 686 807 692 l 804 564 q 791 477 804 517 q 709 388 767 388 q 699 391 703 388 q 663 385 694 388 q 604 399 658 385 q 465 510 497 439 q 414 635 432 568 l 416 640 q 389 765 403 668 l 392 765 q 384 846 392 783 l 387 852 q 384 863 384 857 l 384 890 q 378 911 384 901 q 384 917 384 911 l 384 941 q 378 966 384 948 q 387 1001 378 985 q 381 1034 383 1029 l 384 1034 l 381 1053 l 381 1055 q 387 1061 381 1060 q 384 1072 387 1067 l 387 1077 q 384 1088 387 1083 q 389 1131 389 1099 l 389 1158 l 387 1164 q 389 1166 389 1164 l 389 1172 l 387 1177 q 389 1180 389 1177 l 389 1204 l 387 1232 q 389 1237 389 1232 q 387 1240 387 1237 l 389 1240 l 387 1259 l 387 1264 q 392 1316 387 1270 l 392 1351 l 389 1356 q 397 1373 391 1356 l 397 1400 l 392 1408 l 392 1438 q 397 1459 392 1449 q 395 1468 395 1465 q 397 1478 395 1474 q 395 1489 395 1483 l 395 1497 l 400 1506 l 397 1511 q 403 1516 403 1511 l 403 1571 l 400 1590 q 406 1595 406 1590 l 406 1603 l 403 1609 q 411 1628 408 1609 q 406 1633 406 1628 l 406 1644 q 414 1647 408 1644 q 408 1685 408 1676 l 408 1687 l 416 1687 l 416 1704 l 411 1704 l 411 1709 q 419 1714 419 1709 l 419 1742 l 416 1742 q 419 1774 416 1763 q 457 1866 446 1866 q 500 1915 465 1888 q 677 1980 578 1959 l 788 1997 q 802 1994 797 1997 l 818 1997 l 894 1997 l 913 1994 q 916 1997 913 1997 l 916 1994 q 937 1997 935 1997 l 951 1994 q 954 1997 951 1997 l 970 1994 l 1021 1994 l 1035 1991 l 1038 1997 l 1038 2043 l 1035 2056 q 1038 2059 1038 2056 q 1029 2119 1035 2062 l 1032 2132 l 1029 2138 l 1032 2138 l 1024 2200 q 1027 2211 1027 2205 l 1027 2257 q 1029 2281 1027 2266 q 1027 2289 1027 2287 q 1059 2612 1035 2437 l 1057 2618 l 918 2639 q 916 2637 918 2637 l 897 2642 l 872 2642 l 840 2645 q 837 2642 840 2642 q 834 2645 837 2645 l 829 2642 q 758 2658 770 2651 q 642 2664 696 2658 q 636 2661 642 2661 q 623 2664 627 2661 "},"H":{"ha":1166,"x_min":23,"x_max":1146,"o":"m 517 2477 q 435 2452 485 2466 q 318 2443 405 2443 q 105 2454 220 2445 q 113 2338 113 2362 l 113 2336 l 110 2322 q 113 2319 113 2322 l 110 2319 q 113 2279 113 2292 l 113 2233 l 115 2227 l 113 2227 l 115 2200 l 115 2097 l 118 2083 q 115 2075 115 2083 l 115 2070 q 118 2059 115 2064 q 115 2048 115 2054 l 115 2029 q 121 1937 115 1967 q 115 1929 118 1937 q 118 1880 118 1891 l 115 1866 q 118 1864 118 1866 l 115 1850 l 118 1845 l 115 1845 q 118 1834 115 1839 l 115 1817 l 115 1809 q 118 1782 115 1796 q 115 1758 115 1772 q 118 1723 115 1740 q 115 1704 115 1712 l 118 1685 l 115 1679 l 121 1633 q 118 1611 118 1623 q 121 1590 118 1600 q 115 1511 118 1584 q 118 1451 118 1457 l 121 1446 l 118 1446 q 123 1394 118 1421 l 115 1253 q 121 1232 115 1252 q 118 1223 121 1229 l 121 1218 q 110 1090 115 1126 q 113 1069 110 1088 q 104 1004 106 1069 l 107 993 q 99 936 104 993 q 104 903 102 911 q 102 901 102 903 l 102 895 l 104 879 l 102 873 q 104 865 102 871 q 99 803 104 862 l 102 798 q 94 762 98 798 q 96 754 94 760 l 94 754 l 96 730 q 85 621 88 688 q 88 608 88 616 q 85 600 85 602 q 88 597 88 600 q 75 494 75 509 l 77 488 l 75 472 l 75 464 l 77 448 q 64 347 72 385 l 66 331 l 56 277 q 58 269 56 274 q 56 258 56 264 l 56 255 q 37 68 56 218 q 23 -3 37 56 q 142 14 79 14 l 243 14 q 273 5 269 5 q 359 -14 359 -2 q 403 -22 403 -16 q 530 -83 473 -46 q 522 22 529 -39 q 525 30 525 22 l 525 41 l 522 46 l 525 46 q 519 76 524 76 q 511 377 516 347 q 514 385 514 382 q 511 412 514 389 q 514 442 511 418 q 511 467 511 457 l 514 477 q 511 480 511 477 l 517 524 q 511 532 514 524 q 517 551 511 537 l 514 556 q 519 624 517 608 q 517 632 517 629 q 522 708 517 677 l 519 719 q 522 800 522 767 l 522 803 q 528 819 522 810 q 549 817 547 819 q 579 819 568 819 l 620 819 q 674 817 637 819 q 680 819 674 819 q 682 817 680 817 l 699 819 l 739 819 q 742 806 739 810 l 739 800 l 742 795 l 739 776 l 742 765 q 739 757 742 762 l 750 635 q 747 629 747 635 q 750 621 747 627 l 747 616 q 753 575 750 581 l 750 575 q 747 518 750 553 q 750 502 750 504 l 745 467 q 747 453 747 462 l 747 429 l 750 423 q 742 374 747 423 q 745 372 745 374 q 739 304 739 342 l 739 266 l 736 233 q 739 225 739 233 l 723 73 q 726 71 726 73 q 723 68 723 71 l 722 44 q 875 57 825 50 l 888 57 q 1046 60 947 57 q 1070 65 1063 65 l 1103 65 q 1108 71 1108 65 l 1108 81 q 1089 222 1099 81 q 1092 225 1092 222 l 1089 239 q 1092 369 1092 317 l 1089 388 q 1092 391 1092 388 q 1084 445 1089 424 q 1086 448 1086 445 q 1078 548 1082 448 q 1065 610 1073 551 l 1067 621 q 1065 624 1065 621 l 1070 627 l 1067 646 q 1070 667 1067 652 q 1067 684 1070 669 q 1070 703 1067 692 q 1067 779 1067 744 l 1067 844 q 1073 928 1067 889 l 1070 941 l 1076 987 q 1073 990 1073 987 l 1076 990 q 1073 1034 1076 994 l 1076 1077 q 1073 1085 1073 1082 q 1076 1088 1076 1085 l 1070 1109 q 1073 1112 1073 1109 l 1073 1156 l 1076 1169 q 1073 1177 1073 1169 l 1073 1180 l 1076 1199 q 1073 1202 1073 1199 l 1076 1202 q 1067 1356 1072 1335 q 1070 1378 1070 1367 q 1067 1389 1070 1384 l 1070 1394 q 1067 1438 1067 1422 l 1067 1443 l 1076 1500 q 1070 1535 1070 1512 l 1070 1590 l 1067 1609 q 1070 1617 1070 1609 q 1067 1628 1070 1623 q 1073 1682 1069 1630 l 1070 1687 l 1089 1888 l 1086 1893 q 1100 1988 1100 1986 q 1097 1991 1097 1988 q 1105 2045 1100 2022 l 1103 2051 q 1105 2053 1105 2051 l 1105 2078 q 1103 2102 1105 2087 q 1114 2146 1111 2126 q 1111 2148 1111 2146 q 1116 2157 1114 2148 q 1114 2173 1114 2171 q 1127 2208 1114 2208 l 1127 2214 l 1124 2214 l 1124 2222 l 1122 2227 q 1127 2268 1127 2253 l 1127 2271 l 1130 2271 l 1130 2281 q 1139 2392 1146 2358 q 1013 2363 1109 2378 q 774 2361 954 2355 q 774 2268 774 2277 l 774 2260 l 777 2243 q 774 2230 774 2239 l 774 2197 l 777 2192 l 774 2192 q 772 2138 774 2174 q 774 2127 772 2131 q 772 2102 772 2112 l 772 2026 l 774 2013 q 772 2007 772 2013 q 777 1991 772 2000 q 766 1959 774 1969 l 777 1918 q 772 1874 775 1911 l 777 1847 l 774 1847 q 780 1812 774 1834 q 777 1801 780 1806 q 783 1723 783 1744 l 777 1712 q 783 1660 780 1698 l 780 1644 l 783 1630 q 780 1622 780 1625 l 783 1617 q 780 1609 783 1614 l 785 1571 q 783 1563 783 1565 l 785 1557 l 783 1552 q 785 1527 783 1542 q 780 1506 785 1522 l 783 1500 l 780 1468 l 783 1451 l 780 1451 q 766 1218 774 1308 q 772 1196 772 1204 q 764 1147 772 1157 l 758 1150 l 755 1150 l 750 1147 l 750 1150 q 742 1147 747 1150 q 612 1161 651 1153 q 609 1158 612 1158 q 590 1164 609 1161 l 585 1161 q 555 1166 578 1161 q 552 1164 555 1164 q 509 1175 552 1166 l 503 1172 q 473 1180 494 1177 q 468 1177 473 1177 l 465 1177 q 457 1299 465 1206 q 460 1324 457 1309 q 452 1383 456 1360 q 454 1386 454 1383 l 454 1389 q 452 1411 454 1400 q 454 1419 452 1413 l 452 1443 q 463 1766 463 1555 q 465 1796 463 1777 q 463 1799 463 1796 q 465 1809 465 1803 l 465 1839 l 463 1858 q 471 1910 471 1888 l 471 1950 l 468 1956 q 471 1959 471 1956 q 479 2064 471 2026 l 476 2070 q 479 2072 479 2070 l 479 2100 q 484 2127 479 2127 q 517 2477 484 2194 "},"I":{"ha":540,"x_min":20,"x_max":519,"o":"m 503 1769 l 484 1758 l 484 1761 q 446 1752 452 1758 l 435 1752 l 422 1755 q 359 1742 422 1745 l 346 1744 q 340 1739 341 1744 l 330 1747 l 300 1736 l 283 1739 q 259 1731 275 1732 q 251 1736 259 1733 q 237 1731 246 1736 q 227 1733 231 1731 l 210 1731 l 208 1731 q 197 1733 201 1731 q 186 1731 192 1731 l 153 1731 l 140 1728 q 137 1731 140 1731 q 118 1728 129 1731 q 91 1731 104 1731 l 75 1731 q 47 1739 69 1731 l 42 1736 l 37 1739 q 20 1731 23 1739 l 20 1717 l 31 1685 l 28 1679 q 45 1598 42 1601 l 75 1332 q 72 1326 72 1332 l 80 1275 q 77 1272 77 1275 q 83 1245 80 1245 q 94 1164 88 1168 q 99 1044 94 1151 q 96 1028 96 1030 q 102 1017 100 1028 q 99 1015 99 1017 l 99 1006 l 102 1001 q 99 998 99 1001 l 99 966 q 104 906 99 929 q 102 903 102 906 l 107 871 l 104 871 l 107 860 l 104 846 q 107 844 107 846 q 104 833 104 839 l 104 773 l 107 760 q 104 757 104 760 q 107 746 107 752 l 107 713 q 110 621 107 678 q 107 613 107 616 q 110 610 110 613 l 107 594 l 107 477 l 110 464 q 104 393 106 464 q 107 372 104 382 q 104 350 104 361 l 104 345 q 99 239 104 270 q 102 236 102 239 q 96 225 98 225 q 66 16 85 98 l 69 11 q 66 8 66 11 q 75 0 71 0 l 94 0 q 137 11 126 6 q 232 19 204 11 l 286 19 l 294 24 l 406 24 l 411 27 q 430 22 411 22 l 449 22 q 457 16 450 22 l 490 16 q 471 87 478 74 q 438 247 471 92 l 441 252 q 430 372 430 359 l 430 377 l 427 382 l 430 382 q 416 472 425 409 q 419 534 419 509 l 419 578 l 416 594 q 419 608 419 599 l 419 651 q 422 675 419 661 l 419 681 q 422 732 422 711 l 422 749 l 419 762 q 422 765 422 762 l 419 781 l 419 787 q 422 798 419 793 q 419 808 419 802 l 419 833 l 416 849 q 425 892 420 881 l 422 898 q 430 1020 427 1008 l 427 1039 q 441 1139 431 1137 q 438 1150 441 1145 q 444 1172 444 1167 q 441 1175 441 1172 q 444 1185 444 1179 l 444 1196 l 441 1210 q 446 1242 445 1210 q 444 1251 446 1245 q 452 1308 446 1257 l 449 1313 q 452 1316 452 1313 l 452 1321 q 473 1449 462 1449 q 471 1457 473 1451 q 487 1563 479 1563 q 490 1641 490 1632 q 503 1695 503 1666 l 503 1714 q 519 1766 510 1746 l 519 1769 l 503 1769 m 294 2525 q 167 2495 195 2515 q 80 2407 104 2466 q 47 2206 60 2379 q 50 2092 47 2164 q 47 2085 47 2087 q 50 2078 50 2085 l 50 2055 q 53 2053 50 2053 q 80 1982 63 2003 q 267 1889 159 1889 l 305 1889 q 395 1917 345 1889 q 449 1971 430 1929 q 492 2131 492 2048 l 490 2136 l 492 2150 l 492 2162 l 490 2167 q 495 2176 493 2167 q 492 2218 495 2180 q 495 2235 492 2225 q 473 2393 490 2328 q 400 2504 452 2474 q 294 2525 376 2519 "},"J":{"ha":1066,"x_min":20,"x_max":1046,"o":"m 650 2637 l 647 2637 q 620 2612 620 2637 l 620 2591 l 623 2572 q 620 2569 620 2572 q 623 2542 623 2545 l 620 2528 q 623 2525 623 2528 l 620 2520 l 623 2515 q 620 2466 620 2477 q 623 2422 620 2450 q 620 2414 620 2417 l 625 2398 l 623 2393 l 625 2376 q 623 2341 623 2359 l 623 2333 l 625 2327 l 623 2327 q 625 2303 623 2318 q 623 2295 623 2298 q 625 2292 625 2295 q 623 2289 623 2292 l 623 2276 l 625 2271 q 623 2268 623 2271 l 623 2265 l 625 2260 l 623 2260 l 625 2246 l 625 2222 q 631 2186 625 2199 l 628 2186 q 633 2146 631 2148 l 631 2129 l 631 2097 l 633 2083 q 631 2075 631 2083 l 631 2051 l 633 2045 q 631 2043 631 2045 l 636 2035 l 636 2013 q 642 1980 636 1999 l 639 1969 q 642 1967 642 1969 l 639 1967 q 644 1948 639 1959 q 642 1940 644 1945 q 652 1853 647 1874 q 650 1850 650 1853 l 650 1834 l 652 1828 l 650 1828 l 652 1815 l 652 1758 l 655 1752 l 652 1752 q 661 1644 658 1711 l 658 1630 q 661 1628 661 1630 l 658 1622 q 661 1614 658 1619 l 658 1614 q 661 1603 658 1608 q 658 1560 658 1575 l 658 1522 q 663 1500 663 1503 l 663 1457 q 658 1440 663 1449 q 661 1416 661 1426 l 661 1394 l 663 1389 q 661 1386 661 1389 l 661 1375 q 655 1345 661 1356 q 666 1318 663 1345 q 663 1302 663 1304 q 666 1299 666 1302 l 663 1299 q 666 1278 663 1293 l 663 1267 l 666 1256 l 663 1251 q 666 1242 663 1248 q 663 1234 666 1240 l 666 1221 q 663 1210 666 1215 q 666 1199 666 1205 l 666 1180 q 669 1150 666 1168 q 666 1142 666 1145 l 669 1137 q 666 1128 669 1134 l 674 1090 q 669 1069 669 1072 l 669 1031 l 671 1025 q 669 1023 669 1025 l 669 977 q 674 971 669 971 l 671 966 l 671 958 l 674 952 q 671 949 671 952 l 671 930 l 669 917 q 671 914 671 917 q 669 903 669 909 l 669 879 q 652 811 660 820 l 655 806 q 647 784 654 806 l 650 779 q 636 727 643 734 l 636 711 l 639 705 q 620 632 628 675 q 568 578 620 606 q 514 597 533 578 q 454 738 479 597 l 457 738 l 454 751 l 454 754 q 457 765 454 760 q 454 776 454 770 l 454 838 l 457 852 q 454 854 454 852 l 468 960 l 468 987 l 465 993 q 487 1085 476 993 q 484 1107 484 1100 q 495 1137 495 1107 l 492 1147 l 498 1150 l 495 1156 l 495 1158 q 503 1164 503 1158 l 503 1166 l 498 1166 l 498 1172 q 500 1169 500 1172 l 503 1169 q 522 1234 517 1234 q 519 1242 522 1237 q 533 1289 530 1287 q 566 1424 533 1314 q 563 1435 563 1429 q 468 1421 524 1427 l 446 1421 q 332 1400 446 1416 l 311 1400 q 221 1389 311 1393 q 213 1386 218 1389 l 213 1389 q 178 1383 184 1385 l 178 1386 q 148 1381 174 1386 q 145 1383 148 1383 l 140 1381 q 121 1386 140 1384 q 113 1378 113 1380 q 80 1324 93 1378 l 80 1305 q 75 1232 80 1258 q 77 1229 77 1232 q 64 1153 64 1157 q 66 1142 66 1148 l 66 1128 q 58 1077 61 1110 q 61 1074 61 1077 q 53 1061 58 1074 q 56 1053 53 1058 q 39 977 50 1017 l 42 971 q 28 854 35 903 q 31 846 28 852 q 28 844 28 846 l 31 838 q 28 836 28 838 l 28 800 l 31 795 q 28 792 28 795 l 28 760 l 26 746 q 28 743 28 746 l 26 738 l 28 732 q 23 716 23 721 l 26 711 q 20 686 23 711 q 23 637 23 661 l 23 613 q 26 602 23 607 q 23 594 23 597 q 26 491 23 566 l 23 480 q 31 448 27 480 l 28 448 q 34 407 34 422 l 34 393 l 37 388 l 34 388 l 47 328 q 99 165 47 273 q 172 84 146 103 q 270 19 193 47 l 275 22 q 316 5 316 9 q 324 8 319 5 q 387 -5 332 8 q 397 -3 391 -3 l 414 -3 l 427 -5 q 430 -3 427 -3 q 446 -8 437 -3 q 454 -5 449 -8 l 454 -8 q 468 -5 463 -8 q 506 -8 491 -8 l 533 -8 l 552 -11 q 555 -8 552 -8 l 560 -11 q 674 -14 664 -14 q 829 5 720 -14 q 888 46 850 13 q 962 195 937 128 q 1000 442 986 235 l 1000 472 q 1005 494 1000 475 l 1005 507 l 1002 521 q 1005 524 1005 521 l 1002 529 l 1005 534 q 1002 545 1002 539 l 1002 594 q 997 610 1002 602 q 1000 621 1000 615 l 997 627 q 1000 629 1000 627 q 994 659 1000 648 l 997 665 q 994 681 997 667 q 997 689 994 684 l 991 705 l 994 705 q 989 757 994 719 q 994 789 989 768 q 991 792 991 789 l 994 798 q 991 806 994 800 q 994 808 994 806 l 994 819 l 991 836 q 994 844 994 841 l 991 860 l 994 865 l 991 879 q 994 895 991 881 l 991 901 l 994 901 l 991 914 l 991 958 q 983 1085 983 1071 q 981 1093 983 1088 l 983 1093 q 967 1223 967 1186 l 970 1242 q 964 1259 967 1242 q 975 1351 968 1351 q 972 1362 972 1356 l 972 1394 l 970 1400 q 972 1402 972 1400 l 972 1443 q 970 1487 972 1459 q 972 1506 972 1490 q 970 1514 972 1508 q 972 1516 972 1514 l 972 1530 l 970 1535 q 972 1538 972 1535 q 970 1549 972 1544 l 972 1554 q 970 1563 972 1557 l 972 1563 l 970 1581 l 970 1587 l 972 1600 q 970 1603 970 1600 l 972 1617 q 970 1652 970 1640 q 983 1801 983 1733 l 983 1831 l 986 1858 q 983 1861 983 1858 q 986 1864 986 1861 l 986 1883 l 989 1910 q 986 1912 986 1910 q 989 1923 989 1917 l 989 1931 q 983 1961 989 1950 q 989 2024 989 1976 l 989 2094 l 991 2108 q 989 2110 989 2108 q 991 2113 991 2110 l 991 2138 l 989 2154 q 997 2235 994 2171 q 994 2241 994 2235 q 1010 2341 1000 2256 q 1008 2349 1010 2344 l 1010 2349 q 1008 2357 1010 2352 q 1010 2368 1010 2362 l 1008 2374 q 1019 2406 1012 2406 q 1016 2425 1019 2414 q 1027 2539 1016 2448 q 1046 2615 1040 2578 q 1040 2623 1046 2623 l 1013 2623 q 991 2618 1010 2623 l 948 2618 q 932 2623 941 2618 q 921 2620 927 2620 l 910 2620 l 897 2623 q 894 2620 897 2620 l 894 2623 q 864 2620 882 2623 q 856 2623 861 2620 l 850 2620 l 831 2623 q 823 2620 829 2623 q 810 2626 823 2625 l 799 2626 l 793 2623 q 766 2631 793 2625 l 761 2629 q 715 2631 752 2629 l 709 2629 q 707 2631 709 2631 l 674 2631 q 650 2637 667 2631 "},"K":{"ha":1166,"x_min":20,"x_max":1146,"o":"m 574 2525 q 435 2487 516 2512 l 416 2487 q 305 2467 370 2487 l 302 2467 l 270 2470 q 264 2464 270 2464 l 262 2464 q 218 2459 230 2464 l 218 2462 l 205 2459 l 199 2459 l 172 2462 q 170 2459 172 2459 l 170 2462 l 156 2459 l 153 2459 l 140 2462 q 137 2459 140 2459 l 132 2462 l 126 2459 q 53 2479 119 2459 l 47 2476 q 34 2490 37 2490 l 26 2490 q 20 2484 21 2490 l 20 2479 l 23 2464 q 20 2462 20 2464 l 23 2456 l 20 2456 q 28 2410 20 2443 q 23 2374 28 2386 q 39 2271 34 2337 l 37 2254 q 56 2058 45 2116 q 53 2047 53 2053 l 53 2028 q 56 2003 53 2018 q 53 1994 53 1997 l 61 1959 l 58 1947 l 61 1933 q 58 1922 61 1927 l 69 1792 q 66 1790 66 1792 q 69 1767 69 1770 q 66 1756 69 1761 q 75 1662 75 1691 q 77 1654 75 1659 l 75 1654 q 85 1540 85 1574 l 85 1527 l 88 1521 l 85 1521 l 88 1507 l 88 1491 l 85 1471 q 88 1468 88 1471 l 85 1455 l 91 1438 l 88 1432 q 96 1360 93 1411 q 94 1333 94 1346 l 94 1316 q 85 1112 94 1160 q 88 1101 88 1107 l 88 1084 l 85 1070 q 88 1067 88 1070 l 80 1004 q 85 984 80 998 q 80 960 83 979 q 83 943 83 945 q 64 638 83 924 l 72 591 l 72 583 q 64 558 64 570 q 58 392 64 519 q 64 378 58 387 l 53 290 q 56 287 56 290 q 53 276 53 282 l 53 254 l 39 154 q 42 151 42 154 q 37 140 39 151 l 39 123 q 26 35 37 68 q 31 16 26 30 q 66 26 37 22 l 316 79 l 330 77 q 343 85 330 79 q 435 115 383 93 q 438 113 435 113 l 452 113 q 479 146 474 146 l 476 179 l 476 187 q 479 198 476 193 l 465 298 l 468 303 q 465 312 465 309 q 457 484 465 460 q 460 486 460 484 l 460 500 q 452 572 460 549 q 454 574 454 572 l 454 577 q 452 591 454 587 q 454 600 452 594 q 452 666 452 638 l 452 680 q 454 691 452 686 q 452 702 452 696 l 452 763 l 454 777 q 449 821 452 777 l 452 838 q 449 860 452 840 l 452 865 l 449 871 q 452 901 449 877 q 446 932 452 906 q 449 987 446 946 l 446 998 q 449 1001 449 998 q 444 1037 449 1008 q 452 1059 446 1059 l 454 1059 q 555 945 484 1040 q 666 699 609 840 q 728 381 701 623 q 723 376 728 376 l 726 370 l 726 367 q 731 312 726 340 q 720 138 731 286 q 723 135 723 138 q 720 132 720 135 l 720 110 l 718 96 q 720 87 720 96 l 720 85 q 715 68 720 77 l 718 62 q 699 -54 699 -43 l 699 -64 q 712 -92 706 -92 l 715 -92 q 859 -39 811 -49 l 859 -43 l 962 -26 q 970 -28 964 -26 q 997 -20 994 -20 l 1010 -23 q 1081 -15 1010 -15 l 1108 -15 q 1138 16 1138 -15 l 1138 24 l 1135 30 l 1138 30 q 1135 38 1138 33 l 1141 102 q 1138 110 1141 104 q 1141 113 1141 110 l 1141 135 q 1146 157 1141 146 q 1141 162 1146 161 q 1143 171 1141 165 l 1138 231 q 1141 234 1141 231 l 1138 240 q 1143 300 1143 240 l 1143 309 q 1119 461 1135 435 q 1124 469 1122 461 q 1097 600 1105 587 l 1100 600 q 1062 719 1085 675 q 1019 827 1048 770 q 962 948 977 934 q 924 1015 962 956 q 891 1062 912 1027 q 777 1186 814 1154 l 777 1192 q 861 1244 777 1194 q 989 1388 989 1348 q 1043 1468 1009 1404 l 1081 1563 q 1111 1773 1105 1688 q 1108 1775 1108 1773 q 1111 1787 1111 1780 l 1111 1847 l 1114 1862 q 1111 1870 1111 1862 l 1111 1875 l 1114 1892 l 1111 1898 l 1119 2033 q 1114 2047 1116 2033 q 1122 2321 1122 2279 l 1119 2326 l 1122 2326 q 1119 2334 1122 2329 q 1122 2343 1119 2338 l 1119 2354 q 1122 2376 1119 2361 q 1119 2379 1119 2376 l 1122 2379 q 1119 2387 1122 2382 l 1124 2407 l 1124 2418 q 1116 2426 1120 2426 l 1111 2426 q 967 2367 994 2382 q 842 2323 863 2338 l 842 2326 q 761 2304 774 2313 l 755 2307 q 701 2296 706 2298 l 696 2298 q 663 2274 672 2298 l 663 2257 l 682 2171 l 680 2166 q 690 2133 688 2133 q 704 2030 699 2045 l 701 2030 l 715 1867 l 715 1864 l 712 1850 q 715 1845 715 1850 q 712 1798 715 1830 q 715 1790 715 1792 q 712 1787 712 1790 q 718 1726 715 1784 q 715 1718 715 1721 q 718 1714 718 1718 q 707 1632 718 1708 q 655 1501 680 1537 q 552 1435 631 1463 q 533 1438 544 1435 q 500 1432 528 1436 q 492 1455 496 1439 l 495 1460 q 492 1582 492 1556 q 490 1609 492 1595 q 506 1895 495 1748 l 506 1903 l 509 1917 q 506 1919 506 1917 q 514 1947 510 1938 l 511 1959 q 525 2102 511 1972 q 522 2105 522 2102 l 585 2525 l 574 2525 "},"L":{"ha":1226,"x_min":23,"x_max":1206,"o":"m 452 2596 q 400 2588 431 2596 l 400 2591 q 327 2582 381 2591 q 324 2585 327 2585 q 267 2580 310 2580 l 227 2580 l 221 2577 q 218 2580 221 2580 l 205 2580 q 180 2577 195 2580 q 172 2580 175 2580 l 167 2577 q 64 2586 161 2577 q 88 2420 80 2486 l 85 2414 l 91 2376 l 85 2360 l 88 2355 l 85 2349 q 88 2338 88 2344 l 88 2314 q 91 2276 88 2299 l 88 2271 q 91 2246 91 2256 l 91 2235 q 88 2224 91 2229 l 91 2219 q 96 2056 91 2181 l 94 2043 q 96 2037 96 2043 l 91 2026 l 94 2021 l 91 2021 q 94 2005 94 2007 q 96 1874 94 1964 q 94 1866 94 1869 q 96 1864 96 1866 q 94 1828 94 1830 l 96 1823 l 94 1823 l 96 1812 q 94 1742 96 1793 q 96 1733 96 1736 q 94 1731 94 1733 l 96 1714 q 94 1666 94 1689 l 94 1655 q 88 1638 94 1647 q 91 1617 88 1632 q 88 1525 88 1565 l 88 1519 l 91 1514 q 88 1511 88 1514 l 88 1481 l 91 1462 q 88 1459 88 1462 q 91 1449 91 1455 l 91 1421 q 96 1348 91 1375 q 94 1345 94 1348 q 96 1321 96 1331 l 96 1302 q 94 1278 96 1293 q 96 1270 96 1272 l 91 1223 l 94 1218 l 91 1218 l 94 1202 q 91 1194 94 1199 l 94 1188 l 91 1183 q 85 1055 91 1135 q 88 1053 88 1055 q 75 817 75 933 q 69 798 75 806 l 72 781 l 66 757 q 69 741 66 755 q 66 713 66 717 q 69 705 66 711 q 64 621 64 676 q 61 610 64 615 q 64 600 64 606 l 64 591 q 56 494 64 568 q 58 491 58 494 l 56 491 q 58 480 56 485 q 53 420 53 457 l 53 401 l 50 388 q 53 385 53 388 q 45 282 45 307 l 47 269 q 42 252 44 269 q 45 250 45 252 q 38 177 42 250 q 23 -8 35 105 q 183 5 130 3 l 199 8 q 224 3 199 5 q 235 5 229 5 l 254 5 q 300 3 268 5 q 302 5 300 5 q 313 3 307 3 l 373 3 l 378 5 l 378 3 q 422 11 414 8 q 435 5 422 8 q 444 8 441 8 q 465 5 455 8 l 481 8 q 498 5 494 8 l 517 8 q 590 5 548 8 l 606 8 q 609 5 606 5 l 614 8 q 625 5 619 5 l 652 5 l 680 8 q 682 5 680 5 l 701 8 q 723 5 708 8 q 726 8 723 8 q 932 0 847 3 l 937 3 q 940 0 937 0 l 948 0 q 1176 -14 1048 -6 l 1179 -8 l 1179 -5 q 1173 24 1179 -2 l 1173 49 q 1176 228 1173 111 q 1181 244 1181 237 l 1181 293 l 1187 312 q 1192 410 1187 345 q 1206 515 1206 491 l 1203 515 q 1173 510 1184 515 q 1171 513 1173 513 l 1162 513 q 1141 507 1143 507 l 1122 507 l 1108 510 q 1086 505 1108 505 l 940 475 l 935 477 l 897 469 l 859 469 l 831 472 q 748 465 831 467 q 419 490 665 462 q 419 562 425 544 l 422 578 l 422 591 q 419 602 422 597 q 422 613 422 607 l 422 627 q 416 700 422 657 q 419 719 416 708 q 416 781 416 755 l 416 852 l 414 857 l 416 857 l 414 876 l 414 882 l 416 895 q 414 898 414 895 q 416 901 416 898 l 416 909 q 414 955 416 938 l 419 1053 l 416 1058 l 425 1158 l 422 1164 l 425 1169 q 422 1232 422 1219 q 425 1305 422 1251 q 422 1313 422 1310 q 425 1316 425 1313 l 419 1329 q 425 1367 425 1360 l 416 1421 q 419 1432 419 1426 l 419 1451 l 416 1465 q 419 1468 419 1465 l 416 1473 q 419 1481 416 1476 q 414 1514 417 1489 q 419 1611 416 1516 l 416 1622 q 422 1647 419 1622 q 416 1657 418 1647 q 419 1668 419 1662 l 419 1671 l 416 1685 q 419 1687 419 1685 q 416 1695 419 1690 q 419 1704 416 1698 l 416 1723 q 422 1777 422 1767 l 419 1804 l 422 1809 q 419 1834 419 1824 l 419 1845 l 416 1850 q 419 1853 419 1850 l 419 1858 l 416 1864 l 419 1864 l 416 1880 l 419 1885 l 416 1902 l 416 1912 q 419 1923 416 1919 q 416 1934 416 1928 l 416 1969 l 414 1983 q 419 2056 419 1983 l 419 2081 l 422 2100 q 419 2102 419 2100 q 422 2105 422 2102 l 422 2113 l 419 2129 q 422 2132 419 2132 q 468 2588 435 2318 q 463 2596 468 2596 l 452 2596 "},"M":{"ha":1492,"x_min":20,"x_max":1472,"o":"m 632 2624 q 479 2605 542 2612 q 357 2597 380 2597 q 248 2602 345 2597 l 210 2602 q 153 2616 169 2616 l 148 2616 q 153 2544 151 2598 q 148 2494 150 2498 q 151 2483 151 2490 l 151 2458 q 148 2428 151 2447 q 151 2417 151 2423 q 145 2370 151 2399 q 151 2348 151 2359 l 151 2256 l 153 2251 l 151 2251 q 153 2243 151 2248 q 151 2190 151 2212 l 153 2184 l 151 2184 q 153 2131 151 2169 q 151 2077 151 2084 l 153 2057 l 151 2051 l 153 2046 q 156 1847 156 1918 q 153 1761 156 1812 q 159 1708 156 1747 l 156 1697 q 159 1681 159 1683 q 156 1647 156 1652 q 161 1631 156 1642 l 159 1631 q 161 1578 159 1615 q 159 1570 161 1575 q 161 1558 161 1565 l 161 1556 q 156 1476 161 1503 q 159 1462 159 1471 l 159 1456 q 156 1445 159 1450 q 159 1434 159 1440 l 159 1404 q 156 1392 159 1398 q 159 1381 159 1388 l 159 1356 q 145 1199 159 1304 q 148 1187 145 1193 q 145 1177 145 1183 l 145 1149 q 140 1058 145 1134 l 142 1041 q 137 1036 138 1041 l 137 997 l 140 991 q 126 861 132 970 l 129 856 q 123 814 127 848 q 126 806 126 808 q 121 739 126 783 l 123 734 q 118 695 121 734 l 121 690 q 107 504 110 628 q 110 501 110 504 q 99 437 104 490 q 102 435 102 437 q 96 388 97 435 l 96 379 q 94 371 96 371 l 69 210 l 72 205 q 50 108 58 160 q 53 100 50 105 l 45 81 l 47 75 q 34 -3 37 29 q 20 -72 20 -67 q 23 -75 23 -72 q 113 -33 91 -33 q 191 -11 181 -11 l 292 20 q 414 36 347 28 q 406 86 414 50 l 408 92 q 397 144 403 102 q 400 153 400 144 l 400 155 l 397 161 l 400 161 q 397 169 400 163 l 400 174 q 392 230 397 184 q 395 233 395 230 q 389 296 389 248 l 389 319 l 387 338 q 389 340 389 338 q 378 476 378 443 l 378 481 l 381 501 q 378 504 378 501 q 381 515 381 509 l 381 526 l 378 532 q 381 534 381 532 l 381 537 q 378 551 381 546 q 395 772 387 637 l 392 792 q 395 803 395 797 q 392 811 395 806 q 400 867 396 811 l 397 880 q 400 889 400 886 l 397 895 q 408 975 403 901 q 406 977 406 975 q 411 1000 408 1000 q 430 1177 419 1125 l 427 1187 q 444 1326 438 1301 q 441 1329 441 1326 q 444 1332 444 1329 l 444 1390 q 454 1484 444 1392 q 452 1487 452 1484 q 460 1501 456 1501 q 517 1335 503 1381 q 568 1191 547 1264 q 595 1094 595 1109 q 717 595 636 985 q 777 825 736 688 q 793 880 786 880 q 826 980 811 950 q 880 1174 850 1105 q 935 1365 894 1244 l 932 1371 q 943 1392 939 1392 q 940 1396 943 1396 l 954 1429 l 951 1434 l 967 1484 q 983 1417 974 1484 q 981 1415 981 1417 q 986 1371 986 1403 l 986 1354 l 989 1340 q 986 1337 986 1340 l 991 1329 l 991 1312 q 997 1274 991 1295 q 994 1271 994 1274 l 997 1265 l 1004 1196 q 1008 867 1017 1059 q 1002 844 1002 847 l 1002 823 q 994 759 1002 808 q 997 753 997 759 l 994 739 q 997 736 997 739 q 991 711 994 731 l 994 701 q 991 692 994 698 q 994 684 994 687 q 989 667 994 676 q 986 603 989 665 q 967 416 983 541 q 970 404 967 409 q 959 360 964 360 q 962 352 959 357 q 956 310 956 332 q 932 172 943 238 q 913 33 916 90 q 1162 64 1069 56 q 1176 61 1167 61 q 1192 66 1183 61 l 1198 64 q 1227 66 1216 66 l 1249 66 q 1309 58 1279 58 q 1317 61 1312 58 l 1317 58 q 1358 61 1324 58 q 1472 56 1392 58 q 1461 158 1472 71 q 1463 161 1463 158 q 1447 340 1455 224 l 1450 340 l 1434 512 q 1436 521 1436 518 q 1426 573 1431 560 l 1428 598 q 1412 789 1417 664 l 1412 792 l 1409 806 q 1412 808 1412 806 q 1407 847 1410 816 l 1409 864 q 1404 933 1409 913 q 1407 944 1407 938 l 1407 964 q 1401 1027 1407 1013 l 1404 1027 q 1398 1102 1398 1065 l 1396 1107 q 1398 1110 1398 1107 l 1398 1133 l 1396 1138 l 1398 1138 q 1396 1168 1398 1144 q 1398 1177 1396 1171 q 1393 1210 1396 1184 q 1396 1213 1396 1210 q 1390 1230 1396 1218 q 1393 1232 1393 1230 l 1393 1238 l 1390 1243 l 1393 1243 q 1388 1271 1393 1259 q 1390 1274 1390 1271 l 1390 1290 q 1388 1335 1390 1306 q 1390 1343 1390 1340 l 1388 1354 l 1393 1387 q 1388 1417 1388 1411 q 1390 1429 1390 1428 q 1385 1437 1388 1429 q 1388 1445 1388 1442 q 1385 1465 1388 1461 q 1388 1489 1388 1480 l 1388 1506 q 1382 1573 1388 1548 q 1385 1575 1385 1573 q 1382 1584 1385 1578 l 1388 1606 q 1385 1609 1385 1606 q 1388 1611 1388 1609 q 1382 1634 1388 1614 l 1382 1672 l 1379 1689 q 1382 1703 1382 1693 l 1382 1716 l 1379 1722 l 1382 1722 l 1379 1736 l 1379 1791 l 1377 1805 q 1379 1811 1379 1805 q 1377 1822 1379 1817 q 1382 1858 1379 1834 q 1377 1896 1380 1866 q 1382 1916 1382 1896 l 1382 1927 q 1377 1944 1382 1935 l 1379 1949 l 1377 1954 l 1379 1954 q 1377 1963 1379 1957 l 1379 1969 l 1377 1974 l 1382 1977 q 1377 1999 1382 1982 l 1379 2005 q 1377 2065 1379 2017 q 1379 2077 1379 2075 q 1374 2110 1376 2077 q 1377 2121 1377 2119 l 1374 2126 q 1377 2134 1374 2129 l 1374 2167 l 1377 2182 l 1371 2184 q 1374 2193 1371 2187 l 1369 2207 l 1374 2218 l 1371 2262 l 1374 2276 l 1369 2342 q 1374 2376 1371 2347 q 1371 2386 1371 2385 q 1379 2417 1374 2404 l 1377 2422 q 1382 2439 1380 2422 l 1377 2442 q 1388 2475 1388 2469 l 1388 2481 q 1366 2497 1388 2497 q 1217 2481 1241 2481 q 956 2486 983 2486 l 940 2486 q 880 2494 900 2494 q 867 2442 873 2494 q 869 2439 869 2442 l 845 2184 q 848 2182 848 2184 q 842 2154 845 2182 q 845 2151 845 2154 q 840 2126 840 2133 l 840 2123 l 842 2118 q 769 1739 806 1854 l 772 1733 q 758 1691 758 1697 l 753 1691 q 723 1822 753 1699 l 726 1827 q 709 1916 720 1878 l 712 1916 q 707 1946 707 1943 l 709 1952 q 699 2032 702 1988 q 701 2035 701 2032 q 693 2060 698 2060 q 669 2195 679 2161 l 671 2201 q 669 2226 669 2216 l 669 2240 l 666 2245 l 669 2245 q 647 2448 661 2300 l 650 2461 q 642 2505 646 2486 l 644 2505 q 633 2566 640 2566 l 633 2572 q 632 2624 633 2588 "},"N":{"ha":1034,"x_min":20,"x_max":1013,"o":"m 1000 2576 l 929 2554 q 883 2546 888 2551 q 812 2543 833 2546 q 658 2530 747 2530 l 585 2530 l 579 2527 l 585 2464 q 582 2462 582 2464 l 585 2448 q 587 2370 585 2405 q 585 2323 585 2338 q 587 2272 587 2280 l 585 2258 q 587 2231 587 2244 l 587 2212 l 585 2199 q 593 2144 587 2174 l 590 2144 l 593 2131 l 593 2112 l 595 2079 q 593 2077 593 2079 q 598 2052 595 2072 q 595 2033 598 2044 q 598 2006 598 2019 l 598 1965 l 595 1952 q 601 1944 598 1952 q 598 1935 601 1941 l 601 1930 l 598 1898 q 601 1889 598 1895 l 598 1889 l 601 1870 l 601 1830 q 595 1773 601 1787 q 598 1748 598 1758 l 598 1713 l 595 1697 q 598 1689 598 1691 q 595 1651 598 1674 q 598 1621 598 1627 q 595 1610 598 1610 q 582 1407 593 1539 q 585 1404 585 1407 q 576 1350 582 1404 l 571 1350 q 536 1491 544 1482 q 479 1716 487 1649 q 435 1941 449 1859 q 406 2150 416 2045 q 408 2153 408 2150 q 387 2207 406 2184 q 229 2182 288 2187 l 216 2182 l 210 2180 l 210 2182 q 202 2180 208 2182 q 194 2182 199 2180 l 47 2177 q 39 2106 39 2177 l 39 2025 l 42 2020 l 39 2020 q 45 1987 43 1992 l 42 1987 l 45 1960 l 45 1935 q 42 1900 45 1918 l 47 1851 q 45 1849 45 1851 q 50 1803 47 1840 q 47 1794 47 1803 l 47 1781 l 50 1775 l 47 1775 q 50 1708 47 1742 l 47 1670 l 56 1602 q 53 1599 53 1602 l 56 1583 l 56 1542 l 53 1529 q 56 1526 56 1529 q 53 1496 53 1508 l 53 1482 q 56 1458 53 1473 q 53 1450 53 1453 q 56 1439 53 1444 q 53 1401 53 1416 l 53 1298 l 50 1279 q 53 1276 53 1279 q 50 1274 50 1276 l 50 1257 q 56 1252 50 1252 q 50 1222 50 1241 l 50 1208 q 56 1160 50 1187 q 53 1122 53 1137 l 56 1108 q 53 1105 53 1108 l 56 1092 q 50 1054 54 1057 q 58 970 55 1029 q 56 962 56 964 q 58 959 58 962 l 56 954 l 61 937 l 58 932 q 64 869 61 881 q 61 867 61 869 q 64 856 64 862 l 64 845 l 61 831 q 64 829 64 831 q 61 818 64 823 l 64 812 q 61 742 61 767 l 61 715 l 64 709 q 61 707 61 709 l 61 674 l 64 669 l 61 669 l 64 655 l 61 636 l 64 631 q 61 620 61 626 l 61 617 l 64 612 q 61 609 61 612 l 61 606 q 64 595 61 600 q 61 585 61 591 l 61 490 l 64 471 q 56 449 60 471 q 58 419 58 431 l 58 395 l 61 381 q 58 376 58 381 q 61 335 58 352 q 58 278 58 309 l 58 264 l 56 245 q 58 235 58 245 l 58 232 q 53 216 58 224 q 58 183 56 211 q 56 167 56 169 q 58 164 58 167 q 50 115 53 164 q 53 113 53 115 q 45 91 45 99 l 47 85 q 45 83 45 85 l 45 77 l 47 72 q 28 -42 39 49 q 31 -45 31 -42 q 20 -61 24 -61 q 26 -66 20 -66 l 34 -66 q 91 -53 50 -66 l 153 -53 q 170 -47 161 -53 l 183 -50 l 194 -47 q 202 -50 197 -47 q 213 -47 207 -47 l 224 -47 q 262 -45 239 -47 q 305 -53 267 -50 q 308 -50 305 -50 l 340 -56 q 349 -53 346 -53 q 452 -83 425 -65 l 479 -83 q 484 -77 484 -83 l 484 -58 q 473 -37 473 -43 q 476 -26 473 -31 l 465 23 l 468 23 q 463 80 463 52 q 460 88 463 83 l 463 88 l 457 132 q 460 140 457 134 q 457 183 457 168 l 457 218 l 454 245 q 460 273 460 245 l 457 278 q 460 281 460 278 l 460 311 l 457 316 l 460 316 q 457 343 460 319 q 463 416 457 389 q 457 425 460 416 l 460 425 q 457 487 457 475 q 460 509 457 494 q 454 538 458 514 q 457 574 457 556 l 457 609 l 460 628 q 457 633 457 628 q 460 644 457 640 q 457 652 457 650 l 460 666 q 457 669 457 666 l 460 669 q 457 715 457 701 l 457 720 l 460 734 q 454 761 457 734 l 457 761 q 454 774 457 770 q 465 861 457 861 l 479 842 l 476 837 q 498 772 498 781 q 585 384 545 635 l 582 378 q 593 327 590 360 q 590 324 590 327 q 617 164 595 264 q 614 161 614 164 l 631 137 l 633 137 q 658 142 640 137 l 663 140 q 780 153 690 145 q 783 151 780 151 q 791 153 785 151 l 796 151 q 807 153 801 153 l 810 153 l 823 151 q 826 153 823 153 l 826 151 q 834 153 829 151 q 842 151 837 153 l 848 153 l 897 142 l 902 145 q 910 142 905 145 l 916 145 l 975 132 q 978 134 975 134 q 970 199 976 199 q 972 218 970 208 q 956 373 962 354 l 956 441 l 954 446 l 956 446 q 954 468 956 458 q 956 476 954 471 q 929 723 956 500 l 932 723 l 929 736 l 929 747 l 916 935 q 921 989 921 962 l 921 1021 l 918 1027 l 921 1027 l 918 1038 q 921 1057 918 1053 q 918 1081 918 1072 l 918 1162 l 921 1176 q 916 1227 918 1176 q 921 1293 919 1278 q 918 1306 918 1297 l 918 1333 l 916 1339 q 918 1341 918 1339 l 918 1396 l 916 1409 q 918 1412 918 1409 l 916 1417 l 918 1417 q 935 1640 918 1529 q 932 1643 932 1640 q 937 1675 935 1643 l 935 1681 q 945 1765 941 1681 q 943 1767 943 1765 q 948 1781 948 1767 q 945 1789 948 1784 q 948 1792 948 1789 l 948 1832 l 945 1838 l 951 1841 l 948 1854 l 951 1868 q 948 1870 948 1868 q 959 1903 954 1892 l 956 1908 l 959 1914 q 951 1949 954 1914 q 954 1952 954 1949 q 951 1971 954 1960 l 954 1976 l 951 1982 q 962 2093 954 2082 q 959 2101 959 2098 q 962 2123 959 2108 q 959 2131 959 2128 l 962 2136 l 959 2150 q 967 2174 959 2159 l 962 2177 l 964 2190 l 964 2218 l 962 2223 q 970 2264 967 2264 q 1013 2557 1000 2506 l 1000 2576 "},"O":{"ha":928,"x_min":18,"x_max":907,"o":"m 376 2517 q 186 2462 279 2517 q 99 2354 106 2380 l 102 2348 q 96 2343 102 2343 q 99 2335 96 2340 q 69 2221 69 2258 l 72 2216 q 58 2167 61 2216 l 58 2150 l 45 2080 l 47 2075 q 39 1988 45 2024 q 42 1966 39 1981 q 34 1874 37 1966 q 37 1858 37 1860 l 31 1830 q 26 1613 34 1812 q 34 1136 18 1360 l 45 1046 l 42 1046 q 75 854 56 933 q 164 675 96 750 q 273 593 196 623 l 354 580 l 365 585 q 403 580 372 583 q 411 585 403 583 q 460 574 411 581 l 465 577 q 468 574 465 574 l 471 574 l 476 577 l 476 574 q 487 577 482 574 l 492 574 q 549 577 540 577 q 688 621 673 604 q 810 737 753 656 q 864 870 864 842 q 861 873 861 870 q 883 968 872 900 l 880 981 l 888 1036 q 891 1128 888 1072 l 888 1133 q 894 1160 894 1133 l 894 1196 q 902 1291 902 1220 l 902 1299 l 905 1312 q 902 1315 902 1312 q 905 1342 902 1318 q 902 1353 905 1348 l 905 1369 l 905 1421 l 907 1434 q 905 1437 905 1434 l 907 1437 l 905 1456 l 905 1467 l 907 1480 q 905 1483 905 1480 l 907 1489 l 905 1494 l 907 1499 l 905 1510 l 907 1516 l 905 1521 l 907 1535 q 905 1546 907 1541 l 907 1551 q 905 1562 907 1557 q 907 1573 907 1567 l 907 1765 l 905 1779 q 907 1782 907 1779 q 902 1852 907 1799 l 905 1858 q 899 1931 902 1858 l 897 1936 l 899 1936 q 891 1982 894 1977 l 894 1988 q 891 2061 891 2054 q 863 2274 888 2207 q 755 2405 814 2364 q 614 2487 702 2448 q 452 2517 542 2514 q 444 2514 449 2517 q 441 2517 444 2517 l 435 2514 q 433 2517 435 2517 l 389 2517 l 384 2514 q 381 2517 384 2517 l 376 2514 l 376 2517 m 389 1985 q 408 2150 408 2108 q 463 2262 441 2262 l 465 2262 q 490 2226 469 2262 q 541 2047 513 2173 l 536 2045 q 544 2026 538 2026 q 541 2015 544 2020 q 555 1939 544 2008 l 552 1939 l 555 1920 l 555 1912 l 552 1893 l 557 1893 l 557 1879 l 560 1874 l 557 1874 q 568 1782 557 1855 q 566 1773 566 1776 q 568 1765 566 1771 q 566 1763 566 1765 q 574 1738 570 1756 q 568 1733 569 1738 q 574 1727 568 1727 q 571 1725 574 1725 l 574 1697 l 574 1649 l 571 1630 l 579 1589 q 576 1586 576 1589 l 576 1584 l 579 1578 q 574 1510 574 1578 l 574 1499 l 571 1483 q 576 1396 574 1483 l 574 1372 q 576 1369 576 1372 q 571 1318 573 1369 l 574 1304 q 571 1301 571 1304 q 574 1285 574 1287 q 571 1272 574 1276 l 574 1255 l 574 1244 q 571 1187 574 1206 q 574 1136 574 1162 q 568 1065 574 1092 q 571 1063 571 1065 q 563 1003 563 1038 q 476 846 522 843 q 431 881 450 845 q 384 1307 388 967 q 387 1315 387 1312 q 381 1331 381 1324 l 381 1358 l 384 1372 q 381 1375 381 1372 l 384 1375 q 378 1480 384 1385 q 381 1489 381 1486 q 378 1491 378 1489 q 381 1529 381 1514 l 378 1535 l 381 1535 q 378 1554 381 1543 q 384 1605 384 1589 q 381 1613 384 1608 l 384 1613 q 381 1630 381 1628 q 384 1640 381 1636 q 381 1651 381 1645 l 381 1746 l 378 1752 l 381 1752 q 378 1760 381 1754 q 389 1958 384 1830 l 389 1969 l 392 1982 q 389 1985 389 1982 "},"P":{"ha":1031,"x_min":20,"x_max":1010,"o":"m 368 2504 q 235 2493 338 2498 l 83 2463 q 47 2406 47 2448 q 50 2398 50 2401 l 47 2387 q 56 2352 56 2374 l 56 2276 l 58 2271 q 56 2268 56 2271 l 56 2249 l 58 2243 q 56 2241 56 2243 l 56 2224 q 61 2151 56 2178 q 58 2143 58 2146 q 61 2132 58 2137 l 58 2127 l 64 2059 q 61 2024 64 2058 q 64 1940 64 1965 l 66 1934 q 64 1931 64 1934 l 64 1926 l 66 1921 l 64 1921 l 66 1907 q 69 1750 66 1878 l 66 1739 q 69 1731 69 1739 l 69 1695 q 72 1666 69 1684 l 66 1644 q 72 1617 69 1639 l 69 1606 l 72 1600 l 69 1600 q 75 1554 69 1579 q 72 1552 72 1554 q 75 1544 72 1549 l 72 1538 l 75 1533 l 66 1500 q 77 1386 77 1426 q 72 1362 77 1379 q 75 1354 72 1359 q 69 1294 72 1354 q 72 1253 69 1287 q 66 1207 68 1209 l 69 1202 q 72 1055 72 1073 q 66 966 72 1004 q 69 939 69 951 l 69 884 l 72 879 l 69 879 q 72 833 69 870 q 66 770 72 810 l 69 765 l 66 765 l 69 746 l 64 746 l 66 732 l 64 716 l 66 711 l 64 697 q 66 689 64 694 l 64 684 l 66 678 l 53 524 l 56 510 q 53 507 53 510 q 56 499 53 505 l 53 488 l 56 483 q 47 448 52 459 q 50 439 47 445 q 47 429 50 433 l 50 412 l 50 399 l 47 380 q 50 377 50 380 q 45 336 46 377 l 47 331 q 37 247 43 331 q 39 244 39 247 l 37 233 l 39 220 q 34 190 34 209 l 34 182 q 20 27 34 93 q 34 0 27 0 l 47 0 q 300 38 171 27 l 343 38 l 357 46 q 422 43 361 46 q 465 54 448 43 q 452 100 459 85 q 395 464 410 243 q 397 467 397 464 q 392 483 392 478 q 395 496 392 492 l 389 543 q 392 545 392 543 q 387 591 390 551 q 389 594 389 591 q 384 618 389 598 l 387 624 q 384 635 384 629 l 384 678 q 376 754 376 732 q 373 762 376 757 l 376 762 q 373 770 376 765 l 376 798 q 370 825 376 802 q 373 860 370 826 q 370 914 373 878 q 373 936 373 929 q 365 963 373 941 q 368 974 368 968 l 368 1017 q 365 1072 368 1035 q 411 1090 411 1086 q 625 1237 536 1145 q 680 1278 667 1263 q 785 1394 701 1297 q 826 1457 826 1449 q 888 1576 882 1536 q 945 1731 945 1710 q 970 1807 970 1790 q 1010 2040 997 1881 l 1008 2045 q 1010 2048 1010 2045 l 1010 2113 l 1008 2119 l 1010 2119 q 1005 2159 1010 2125 q 1008 2162 1008 2159 q 1000 2203 1004 2193 l 1002 2203 q 921 2365 985 2285 q 796 2441 894 2408 q 397 2504 583 2504 l 395 2504 l 389 2501 q 387 2504 389 2504 l 368 2504 m 406 1809 q 411 1869 410 1859 q 446 1880 411 1876 q 449 1877 446 1877 q 460 1880 455 1877 l 465 1877 l 471 1880 q 522 1869 507 1876 l 528 1872 q 566 1861 557 1868 q 647 1747 647 1830 l 647 1744 l 644 1731 q 647 1728 647 1731 q 617 1603 631 1639 q 555 1503 602 1554 q 406 1413 507 1451 l 400 1413 q 403 1663 403 1594 q 411 1769 403 1703 q 406 1801 408 1796 l 408 1801 q 406 1809 408 1804 "},"Q":{"ha":906,"x_min":20,"x_max":886,"o":"m 522 2185 q 500 2180 511 2185 l 495 2182 l 490 2180 l 484 2182 q 338 2120 353 2140 q 243 2041 287 2095 q 164 1919 195 1984 q 121 1805 132 1822 q 72 1583 96 1712 q 45 1382 72 1535 l 47 1377 q 45 1366 45 1372 l 45 1352 l 47 1347 q 34 1246 34 1295 l 34 1238 l 31 1225 q 34 1222 34 1225 q 31 1214 34 1219 l 34 1203 q 31 1173 34 1197 l 34 1168 q 20 907 23 1065 l 23 902 l 20 902 q 26 850 26 864 q 23 829 26 844 l 31 747 l 26 693 q 28 690 28 693 q 26 661 26 672 l 26 655 q 34 560 34 569 q 31 552 31 555 q 34 549 34 552 l 31 538 q 45 463 37 522 l 42 457 q 45 433 45 442 l 45 411 l 47 397 q 45 395 45 397 q 58 311 51 346 q 56 308 56 311 l 56 302 q 58 300 56 300 q 77 248 58 270 l 77 240 q 85 232 77 232 q 113 191 103 202 q 224 142 172 142 q 479 202 318 142 l 490 202 q 509 137 504 146 q 519 64 515 82 l 517 58 q 519 45 519 54 l 536 -28 q 566 -161 566 -146 l 574 -161 q 582 -148 576 -148 q 688 -53 634 -98 q 723 -31 720 -37 q 780 -1 779 -7 l 886 53 q 878 61 882 61 q 840 142 871 68 q 761 324 804 247 q 764 327 764 324 l 761 332 q 772 357 763 332 q 799 454 793 449 q 823 549 818 544 l 821 555 q 823 557 823 555 l 821 563 q 826 571 823 563 l 823 576 l 837 647 l 837 658 q 842 723 842 719 l 842 726 q 848 731 842 730 q 845 739 848 734 q 850 774 845 759 l 848 780 q 867 1067 848 831 l 864 1073 q 867 1076 867 1073 l 867 1116 l 864 1122 l 867 1122 l 864 1138 l 867 1152 l 864 1157 q 867 1160 867 1157 q 864 1198 867 1175 q 867 1206 867 1203 q 861 1246 864 1208 q 864 1255 861 1249 q 861 1265 861 1259 l 861 1298 l 859 1303 q 861 1306 861 1303 l 861 1325 q 859 1352 861 1338 q 864 1385 862 1377 q 853 1523 858 1487 l 856 1529 l 853 1534 q 856 1545 853 1540 q 848 1691 850 1672 q 850 1694 850 1691 l 848 1699 l 850 1699 q 840 1792 844 1782 q 842 1794 842 1792 q 834 1832 842 1801 l 837 1832 q 818 1935 837 1847 l 821 1935 q 796 2006 821 1946 q 755 2082 769 2072 q 701 2144 755 2094 q 636 2169 659 2158 l 631 2166 q 525 2185 631 2180 l 522 2185 m 400 1466 q 435 1637 408 1516 q 473 1773 467 1773 q 500 1675 481 1773 q 517 1577 500 1670 q 533 1472 527 1472 l 530 1458 q 533 1455 533 1458 l 530 1455 q 536 1426 530 1440 l 533 1426 l 538 1374 q 536 1371 536 1374 q 544 1341 541 1358 l 541 1341 q 555 1230 549 1306 q 547 1181 552 1187 q 552 1160 552 1171 l 552 1119 l 549 1105 q 555 1078 552 1105 q 549 1062 551 1078 l 555 1043 l 555 1013 l 557 1008 q 549 981 553 984 l 549 967 l 555 967 l 555 959 l 552 932 q 555 929 555 932 l 552 929 l 555 916 l 547 902 l 549 897 q 547 869 547 873 q 552 842 547 854 q 544 785 548 842 q 547 783 547 785 q 536 726 536 728 q 538 723 538 726 q 441 495 481 551 q 414 506 431 495 q 368 720 368 623 l 368 728 l 365 742 q 368 745 368 742 q 365 755 365 749 l 365 777 l 362 783 l 365 783 q 359 812 365 798 l 362 818 l 359 829 l 362 861 l 359 886 l 365 894 q 357 921 359 901 l 362 924 q 357 937 362 928 l 359 951 l 357 956 l 362 967 l 359 981 q 362 1005 359 990 q 359 1016 359 1010 q 362 1027 359 1022 l 359 1032 q 368 1124 368 1107 l 368 1138 l 370 1152 q 368 1154 368 1152 l 370 1160 l 368 1165 q 381 1263 370 1217 q 378 1274 378 1267 q 400 1442 392 1398 q 397 1450 400 1444 q 403 1461 401 1450 l 400 1466 m 541 926 l 536 924 q 541 918 536 918 l 541 926 "},"R":{"ha":1234,"x_min":20,"x_max":1211,"o":"m 484 2577 q 419 2569 426 2574 l 419 2572 q 395 2566 395 2569 q 186 2544 254 2557 q 175 2550 186 2548 q 170 2544 170 2550 q 72 2520 72 2530 q 42 2488 42 2520 q 47 2455 47 2462 q 45 2431 47 2445 q 56 2306 45 2414 q 53 2303 53 2306 q 56 2295 53 2300 q 53 2287 56 2292 q 66 2024 59 2103 q 64 1997 64 2009 l 64 1991 q 69 1934 64 1948 q 64 1891 67 1931 l 66 1885 q 58 1820 58 1870 l 58 1809 l 61 1804 q 56 1777 58 1804 l 50 1780 l 47 1780 q 58 1763 58 1767 l 56 1758 l 58 1752 q 56 1750 56 1752 l 56 1744 l 58 1739 q 56 1736 56 1739 l 56 1723 q 58 1671 56 1701 l 56 1666 q 58 1655 58 1661 l 58 1606 l 61 1600 q 58 1598 58 1600 l 58 1581 q 56 1546 58 1564 l 61 1500 q 58 1487 58 1495 l 61 1473 q 58 1465 58 1473 l 61 1459 q 58 1457 58 1459 l 58 1427 q 64 1313 58 1362 q 61 1305 61 1308 q 64 1302 64 1305 q 61 1294 64 1299 l 64 1278 l 64 1256 l 66 1251 l 64 1251 q 61 1177 64 1215 q 64 1156 64 1162 q 61 1147 61 1150 q 64 1145 64 1147 q 58 1126 64 1139 q 61 1115 61 1121 l 61 1096 l 58 1082 q 61 1080 61 1082 l 58 1080 q 56 1036 58 1052 q 58 1015 56 1034 q 56 939 56 960 l 58 925 q 53 884 56 925 q 58 854 55 879 q 56 814 56 831 l 56 779 l 58 773 q 50 730 56 773 q 56 635 53 712 q 53 600 53 612 q 56 597 56 600 q 53 594 53 597 l 53 556 l 50 543 q 53 540 53 543 q 50 532 53 537 l 53 526 q 37 363 44 410 l 39 358 q 37 350 39 355 q 39 339 37 344 l 37 323 l 39 309 q 37 307 37 309 l 39 301 q 34 250 37 252 l 37 244 q 23 71 31 99 q 26 62 26 65 q 20 49 26 58 q 28 -5 20 -5 l 45 -5 q 50 0 50 -5 q 88 19 87 11 q 99 16 94 19 q 213 49 127 27 q 216 46 213 46 l 262 57 l 267 54 q 335 71 272 59 l 335 68 q 389 76 385 73 l 389 73 q 397 76 392 73 l 403 73 l 422 76 q 430 73 425 76 q 441 76 435 76 l 479 76 q 490 90 484 77 q 484 163 490 117 q 487 165 487 163 l 484 171 q 471 515 484 195 l 468 521 l 471 521 q 463 597 471 541 q 465 605 463 600 q 460 670 460 629 l 460 724 l 457 730 q 460 732 460 730 l 460 751 q 457 890 460 801 q 454 898 454 895 q 457 901 457 898 l 454 906 q 457 914 454 909 q 452 960 455 923 q 454 963 454 960 q 452 985 454 970 q 454 993 452 987 l 452 1006 q 454 1053 454 1044 q 452 1061 454 1055 q 454 1072 454 1065 l 454 1074 q 452 1123 454 1097 q 460 1199 460 1158 q 484 1242 460 1242 l 492 1232 q 568 1134 550 1174 q 639 955 615 1059 q 680 732 653 955 l 677 708 q 682 654 677 692 q 680 651 680 654 q 688 548 682 629 l 682 510 q 685 507 685 510 q 682 496 682 503 l 682 491 l 685 464 q 682 458 682 464 q 685 456 685 458 q 682 453 682 456 l 685 448 q 682 445 682 448 l 682 442 q 666 179 682 385 q 669 171 666 176 q 666 155 666 171 l 636 -54 q 671 -81 636 -71 l 682 -81 l 688 -79 q 723 -84 688 -81 l 726 -79 q 766 -81 732 -79 q 804 -73 790 -81 q 826 -79 814 -79 q 834 -73 827 -79 l 842 -79 l 888 -79 q 905 -73 896 -79 q 910 -79 910 -73 q 921 -76 916 -79 l 935 -79 q 945 -76 941 -79 q 956 -79 950 -79 l 1000 -79 q 1016 -73 1007 -79 q 1021 -81 1019 -73 q 1024 -79 1024 -81 q 1073 -87 1056 -81 q 1097 -71 1097 -83 q 1095 -24 1097 -36 q 1097 62 1097 20 l 1097 152 l 1095 165 q 1097 168 1097 165 q 1076 388 1084 334 q 1078 391 1078 388 q 1067 464 1067 455 l 1067 483 q 1062 488 1067 488 l 1065 507 l 1062 521 q 1065 524 1065 521 l 1051 575 q 1054 583 1051 578 l 1048 605 l 1051 605 q 1040 646 1043 640 l 1043 646 q 1021 754 1035 714 q 1024 765 1021 760 l 997 895 l 1000 901 q 989 922 996 901 q 956 1017 975 986 q 905 1115 920 1082 q 853 1191 853 1183 q 769 1297 780 1272 q 812 1318 781 1308 q 926 1397 892 1366 q 1040 1535 974 1444 q 1054 1568 1047 1565 q 1111 1693 1081 1632 l 1108 1698 q 1143 1790 1119 1698 q 1200 1991 1168 1822 q 1211 2192 1205 2039 q 1171 2398 1211 2327 q 1081 2469 1145 2437 q 1016 2498 1017 2495 q 921 2528 969 2509 q 848 2544 859 2537 l 837 2544 l 831 2542 q 677 2569 831 2553 l 671 2566 l 666 2569 q 590 2572 645 2569 l 585 2569 q 503 2577 571 2574 q 495 2574 498 2574 l 490 2577 l 484 2574 l 484 2577 m 471 1985 q 479 2049 481 2013 q 498 2087 479 2087 l 498 2085 q 594 2079 560 2087 q 602 2081 597 2079 q 614 2077 613 2079 q 701 2056 692 2066 q 781 2018 741 2051 q 827 1897 825 1963 q 830 1891 827 1895 l 827 1891 l 830 1880 l 831 1859 l 833 1844 q 831 1842 831 1844 l 834 1829 l 834 1825 q 827 1812 834 1815 l 830 1802 q 764 1663 831 1771 q 484 1444 678 1509 q 467 1457 467 1444 l 467 1459 l 469 1470 q 466 1472 466 1470 q 468 1478 466 1474 l 465 1491 l 465 1493 l 467 1503 q 463 1512 465 1503 l 465 1516 q 463 1522 465 1518 l 467 1546 q 464 1548 464 1546 l 467 1548 q 464 1554 467 1550 q 465 1584 466 1572 l 465 1628 q 466 1651 464 1637 q 463 1664 463 1654 q 465 1672 463 1668 l 463 1676 q 464 1735 463 1699 l 461 1746 q 463 1748 463 1746 l 460 1758 q 470 1862 466 1836 l 467 1867 q 475 1970 469 1879 q 472 1977 472 1970 l 471 1985 "},"S":{"ha":1050,"x_min":-7,"x_max":1023,"o":"m 458 2588 l 458 2585 q 363 2572 404 2582 q 261 2507 318 2556 q 212 2420 219 2461 q 153 2252 196 2381 q 124 2089 135 2121 l 124 2081 l 127 2075 l 124 2075 q 127 2067 124 2072 q 124 2056 124 2062 q 121 1541 114 1868 l 123 1535 l 121 1535 q 138 1378 124 1459 q 184 1169 171 1189 q 231 1063 201 1096 q 258 1044 231 1059 q 351 1017 284 1026 q 353 1020 351 1020 l 375 1015 l 440 1025 q 443 1023 440 1023 l 446 1023 q 451 1028 451 1023 l 456 1025 l 459 1025 l 473 1034 l 473 1031 q 532 1036 486 1031 l 541 1031 l 549 1031 l 549 1034 q 625 990 604 1034 l 625 977 q 636 890 636 905 q 633 887 633 890 l 636 882 l 633 882 q 640 743 636 825 q 637 722 637 728 q 642 659 637 716 q 632 491 644 608 q 576 342 612 342 q 489 380 489 351 q 464 532 473 411 q 482 741 463 624 q 476 751 479 741 q 498 833 490 790 l 498 857 q 446 863 492 857 q 425 860 439 863 q 416 863 419 863 q 408 860 414 863 q 397 863 404 863 l 365 863 l 351 865 q 349 863 351 863 q 327 868 347 863 l 313 868 l 313 871 l 300 871 l 294 873 l 289 871 l 281 876 l 275 873 q 273 876 275 876 l 267 873 q 248 882 248 878 q 99 915 106 905 q 28 931 42 924 l 1 931 q 4 769 -7 832 q 16 695 16 706 l 13 682 q 21 652 21 656 l 18 646 l 24 633 q 21 622 21 628 l 21 616 l 26 608 l 26 581 l 29 568 q 27 565 26 568 l 33 511 l 30 500 q 33 492 33 494 q 27 443 33 475 q 30 399 30 404 l 28 389 q 31 375 31 384 l 31 364 l 28 345 q 31 342 31 345 q 28 332 28 338 l 28 323 q 88 120 34 220 q 271 9 151 42 q 464 -27 368 -24 q 667 -16 582 -32 q 802 71 766 11 q 829 130 823 94 q 858 277 837 157 l 855 282 q 863 347 859 332 l 861 353 l 863 353 q 861 361 863 355 q 865 393 861 368 l 863 399 l 865 415 q 863 431 865 417 l 865 450 l 863 456 l 865 456 l 863 467 q 870 613 863 494 q 867 618 867 613 l 870 624 q 867 635 867 629 l 867 637 q 870 673 867 655 q 865 708 865 697 q 867 727 865 716 q 856 860 861 837 l 859 860 l 856 892 l 855 958 q 850 1039 855 997 l 852 1053 q 850 1055 850 1053 l 852 1055 q 822 1223 852 1134 q 751 1294 793 1279 q 648 1318 700 1316 q 550 1367 576 1318 q 496 1581 494 1493 q 513 1738 490 1680 q 732 1830 573 1830 l 748 1830 l 764 1828 q 778 1830 769 1830 l 810 1830 q 832 1825 822 1830 l 838 1828 q 840 1825 838 1825 l 854 1825 l 881 1822 q 884 1825 881 1825 q 913 1817 907 1817 q 924 1820 920 1817 q 951 1814 931 1817 q 954 1817 951 1817 l 981 1809 l 987 1811 q 1008 1806 1004 1806 q 1014 1811 1014 1806 l 1014 1844 l 1017 1860 q 1006 1931 1010 1919 q 1008 1939 1006 1933 q 1005 1963 1006 1954 l 1005 1971 l 1008 1985 q 1005 1988 1005 1985 l 1008 1999 q 1013 2181 1008 2026 q 1016 2197 1013 2183 q 1013 2200 1013 2197 q 1019 2246 1015 2209 q 1016 2249 1016 2246 l 1019 2260 l 1016 2265 q 1021 2330 1021 2293 l 1018 2336 q 1021 2338 1021 2336 l 1021 2417 l 1023 2431 q 1021 2439 1021 2431 q 1023 2474 1021 2456 l 1021 2485 q 1023 2520 1023 2502 l 1020 2534 q 1023 2542 1023 2534 l 1023 2550 l 1009 2574 q 974 2569 998 2574 q 939 2572 956 2572 l 920 2572 l 906 2574 q 903 2572 906 2572 q 822 2577 893 2572 q 819 2574 822 2574 q 817 2577 819 2577 l 814 2577 q 803 2574 808 2577 q 792 2577 798 2577 l 781 2577 l 776 2574 q 773 2577 776 2577 l 768 2577 q 757 2574 762 2577 l 751 2577 l 735 2574 q 727 2577 732 2574 q 719 2574 724 2577 q 589 2582 688 2580 l 575 2580 q 562 2582 570 2582 l 532 2582 q 458 2588 485 2582 "},"T":{"ha":1128,"x_min":20,"x_max":1102,"o":"m 1093 2620 q 926 2601 1054 2612 q 875 2596 901 2600 l 861 2599 l 856 2596 l 845 2601 l 821 2596 l 821 2599 q 791 2593 805 2599 l 791 2596 q 745 2591 776 2596 q 736 2593 742 2591 q 639 2588 730 2591 q 628 2585 629 2585 q 623 2588 628 2588 q 604 2585 614 2588 q 471 2593 585 2591 q 387 2591 412 2591 l 376 2593 q 332 2588 369 2591 q 321 2591 328 2591 q 308 2588 313 2591 l 240 2593 q 229 2591 235 2591 l 221 2596 l 189 2596 q 20 2612 162 2596 l 31 2496 l 31 2447 l 34 2441 l 31 2441 q 34 2374 34 2397 l 34 2319 q 28 2271 34 2298 q 31 2268 31 2271 l 28 2268 q 31 2260 28 2265 l 28 2254 q 31 2246 28 2252 q 31 2072 26 2121 q 248 2119 111 2096 q 305 2124 288 2124 l 311 2121 q 359 2127 319 2121 q 368 2124 359 2124 l 381 2124 q 389 2007 389 2058 q 392 1999 389 2005 l 389 1999 q 387 1850 387 1901 l 387 1847 l 384 1834 q 387 1831 387 1834 q 389 1739 387 1773 q 387 1652 387 1697 q 389 1630 387 1645 q 387 1625 387 1630 l 389 1611 q 387 1603 389 1609 q 389 1579 389 1588 l 389 1573 l 387 1560 q 389 1557 389 1560 q 387 1554 387 1557 l 387 1544 l 389 1538 q 387 1535 387 1538 l 387 1533 l 389 1527 l 387 1527 q 376 1413 387 1461 q 381 1340 378 1340 q 378 1329 378 1335 l 378 1272 l 376 1259 q 378 1256 378 1259 l 376 1251 l 378 1245 q 373 1213 376 1245 q 376 1210 376 1213 q 368 1134 370 1210 l 370 1118 q 368 1112 368 1118 q 370 1090 368 1105 q 368 1082 368 1085 l 370 1077 q 365 1009 368 1077 l 368 1004 q 365 1001 365 1004 l 365 979 l 368 974 l 365 974 q 354 768 362 865 q 357 751 357 753 q 351 743 354 751 l 354 738 q 332 551 344 699 q 335 548 335 551 q 327 483 327 510 l 330 469 q 321 380 323 469 q 308 206 308 233 q 311 203 311 206 q 308 201 308 203 l 308 187 l 311 174 q 302 155 302 174 q 286 10 289 39 q 471 27 363 24 q 712 5 631 22 q 682 363 712 102 q 661 600 666 498 q 663 605 663 600 q 658 624 659 605 l 658 654 q 655 719 658 681 q 658 730 658 724 q 650 779 652 755 q 652 781 652 779 l 650 795 l 652 800 l 650 806 q 642 947 650 847 q 644 1020 642 966 q 639 1069 639 1047 l 639 1090 l 642 1109 q 639 1112 639 1109 l 642 1112 l 639 1131 q 642 1223 642 1200 l 644 1237 q 642 1245 642 1237 l 642 1267 l 644 1280 q 639 1316 642 1280 q 642 1318 642 1316 l 639 1324 q 642 1378 642 1360 q 639 1538 642 1432 q 647 1617 645 1538 q 644 1706 647 1634 q 650 1750 650 1745 l 647 1766 l 650 1777 q 647 1812 647 1800 q 655 1874 655 1870 q 647 1891 655 1881 l 647 1923 l 650 1937 q 647 1940 647 1937 q 658 2013 650 1940 q 661 2102 655 2043 q 783 2105 691 2106 q 856 2100 793 2105 l 872 2102 l 897 2091 q 907 2094 903 2091 q 937 2086 928 2091 l 956 2089 q 1013 2081 978 2083 q 1016 2083 1013 2083 l 1021 2075 q 1027 2081 1027 2075 q 1102 2062 1071 2074 q 1095 2189 1097 2171 q 1089 2300 1095 2233 l 1092 2306 l 1089 2311 q 1092 2384 1089 2318 q 1089 2414 1092 2391 q 1092 2417 1092 2414 l 1089 2433 l 1089 2477 l 1092 2490 q 1086 2504 1089 2490 q 1092 2542 1088 2511 q 1089 2563 1089 2553 l 1093 2620 "},"U":{"ha":911,"x_min":20,"x_max":891,"o":"m 495 2501 q 452 2490 477 2493 q 444 2493 446 2493 q 438 2488 444 2488 l 433 2488 l 419 2490 q 414 2485 419 2485 l 373 2485 l 359 2482 q 357 2485 359 2485 q 346 2482 351 2485 q 302 2485 318 2485 l 292 2485 q 286 2479 287 2485 q 259 2485 281 2482 q 254 2479 254 2485 l 248 2482 l 232 2479 q 218 2482 227 2482 l 216 2482 l 210 2479 q 208 2482 210 2482 q 197 2479 201 2482 l 191 2482 l 172 2479 l 148 2482 q 145 2479 148 2479 l 145 2482 l 102 2474 l 96 2474 q 75 2479 94 2474 l 64 2479 q 53 2455 56 2479 q 61 2360 58 2439 q 58 2349 58 2355 q 69 2165 64 2195 l 64 2143 q 66 2119 66 2128 l 66 2108 q 64 2053 66 2084 l 66 2040 q 61 1923 61 1988 l 58 1910 q 61 1907 61 1910 l 58 1902 q 61 1891 61 1897 l 61 1858 q 56 1766 61 1796 q 61 1747 59 1766 q 53 1462 58 1516 q 56 1454 56 1457 l 53 1454 q 37 1272 42 1309 q 39 1270 39 1272 l 37 1270 q 39 1259 37 1263 q 37 1248 37 1254 l 37 1237 q 31 1191 37 1213 q 34 1188 34 1191 l 26 1118 q 28 1115 28 1118 l 26 1115 q 28 1107 26 1112 l 23 1001 l 26 996 q 20 911 20 952 q 23 901 20 905 q 20 890 20 896 l 20 876 q 26 781 20 869 l 26 779 q 23 738 26 765 q 26 735 26 738 l 23 730 q 39 518 34 564 l 37 518 l 39 507 q 37 496 39 501 q 42 439 42 482 l 42 412 l 45 407 q 42 404 42 407 l 45 399 l 42 399 l 45 382 q 42 374 45 380 q 56 279 56 295 q 189 52 110 117 q 411 3 294 3 l 463 3 l 468 5 q 471 3 468 3 l 530 3 l 544 0 q 612 11 612 7 q 739 62 671 11 q 807 184 768 80 q 829 277 819 277 q 853 353 845 353 q 850 361 853 355 q 856 366 850 366 q 853 369 856 369 q 859 374 853 374 q 856 382 859 377 q 867 434 861 434 l 867 483 l 869 515 q 867 518 867 515 l 869 534 l 869 553 q 875 559 869 558 q 872 567 875 562 q 875 605 872 571 l 872 624 q 875 632 875 629 l 872 646 l 878 659 l 875 665 q 878 667 878 665 l 878 684 l 875 689 l 878 689 q 872 719 878 694 l 878 727 l 878 730 l 875 735 l 878 735 l 872 754 l 875 768 q 869 779 871 768 q 872 781 872 779 l 872 806 l 867 814 q 878 854 872 821 q 869 879 869 874 q 872 887 869 882 q 867 903 867 899 q 869 941 867 918 l 867 960 l 872 982 q 869 1023 869 1006 l 869 1036 q 864 1042 869 1041 q 872 1118 864 1062 q 869 1156 872 1133 l 872 1161 q 864 1204 869 1193 q 875 1253 872 1229 q 872 1256 872 1253 l 875 1256 q 869 1308 875 1286 q 875 1313 875 1308 l 875 1335 l 869 1343 l 869 1348 l 875 1356 l 875 1400 l 869 1408 l 869 1419 q 878 1470 875 1437 q 875 1473 875 1470 l 878 1473 q 869 1506 874 1498 q 875 1530 875 1518 q 872 1549 875 1538 q 875 1571 875 1560 l 875 1576 l 872 1609 l 878 1611 q 867 1657 872 1615 q 875 1674 871 1674 q 869 1690 875 1681 q 878 1709 869 1695 q 875 1720 875 1714 l 878 1733 q 875 1736 875 1733 q 878 1744 875 1739 l 875 1750 q 878 1752 878 1750 l 878 1774 q 875 1801 878 1787 l 878 1815 q 875 1869 878 1822 l 872 1874 q 875 1877 875 1874 l 875 1893 q 878 1915 875 1905 q 875 1937 875 1926 l 875 1975 l 872 1980 l 875 1980 q 891 2170 876 2066 q 883 2208 889 2208 l 864 2208 q 856 2205 856 2208 q 755 2186 765 2194 l 606 2186 l 601 2184 q 604 2143 604 2157 l 604 2121 q 601 2062 604 2102 q 604 2059 604 2062 l 601 2059 l 606 2016 l 604 2010 l 606 1994 l 606 1956 l 604 1942 q 606 1940 606 1942 l 604 1923 l 609 1850 l 604 1766 q 606 1747 606 1763 l 606 1728 l 609 1714 q 606 1706 606 1714 l 606 1698 l 609 1693 l 606 1693 q 609 1685 606 1690 q 606 1641 606 1657 l 606 1630 l 609 1611 q 604 1600 606 1611 q 606 1592 604 1598 l 601 1538 q 604 1535 604 1538 q 601 1533 601 1535 l 601 1495 l 604 1468 l 598 1465 l 601 1454 q 606 1364 601 1405 q 604 1356 606 1362 q 606 1305 606 1326 l 606 1256 l 609 1242 q 606 1240 606 1242 l 609 1226 q 601 1142 604 1188 q 604 1134 601 1139 l 601 1123 q 606 1058 601 1095 l 604 1034 q 609 930 609 963 l 606 917 q 609 914 609 917 l 606 901 q 612 860 612 867 q 609 836 612 850 q 612 806 612 817 q 609 781 612 796 q 612 757 612 771 l 612 749 l 609 735 q 612 732 612 735 q 609 730 609 732 l 609 716 q 614 673 609 684 q 609 656 611 673 q 612 648 609 654 q 609 637 609 644 l 609 635 q 601 540 609 610 q 530 423 578 423 l 525 423 q 495 513 503 430 l 498 518 q 484 591 495 567 q 487 600 484 594 l 484 610 q 487 651 487 644 q 484 659 487 654 l 487 659 q 481 678 487 665 l 484 678 q 479 708 484 680 l 484 719 q 479 768 479 732 l 479 773 l 476 779 l 479 779 q 476 846 476 831 q 471 865 476 857 q 473 879 471 874 q 471 922 471 907 l 471 955 q 465 977 471 966 q 468 1001 468 991 l 468 1069 l 465 1074 q 471 1088 468 1074 l 465 1090 q 471 1120 471 1114 l 468 1134 q 471 1137 471 1134 l 468 1142 l 471 1147 l 468 1153 q 471 1183 471 1171 q 465 1188 471 1187 l 471 1218 q 468 1226 468 1223 q 473 1275 468 1239 q 471 1278 471 1275 l 473 1283 l 471 1289 q 473 1297 473 1294 q 476 1413 473 1339 q 473 1421 473 1419 q 476 1424 476 1421 l 473 1438 q 479 1462 473 1442 l 476 1468 q 481 1522 481 1495 l 481 1573 l 479 1579 q 484 1598 484 1579 l 481 1611 q 484 1633 484 1622 l 484 1641 l 481 1647 q 484 1649 484 1647 l 484 1690 q 495 1964 484 1735 l 498 1983 q 495 1988 495 1983 l 498 2016 q 495 2018 495 2016 q 498 2021 498 2018 l 498 2102 l 495 2116 q 503 2186 500 2116 q 498 2195 500 2186 q 503 2208 498 2199 q 500 2227 503 2216 l 509 2344 q 506 2352 506 2349 q 522 2409 522 2403 q 519 2412 519 2409 l 522 2417 q 519 2452 522 2435 l 522 2477 q 495 2501 522 2501 "},"V":{"ha":1001,"x_min":20,"x_max":981,"o":"m 26 2620 q 20 2615 21 2620 l 20 2604 q 23 2601 20 2601 q 47 2498 42 2541 q 91 2167 77 2317 q 118 1761 99 1898 l 115 1747 l 118 1742 l 115 1736 q 118 1652 118 1686 l 118 1519 l 121 1506 q 118 1503 118 1506 l 121 1497 l 118 1497 q 123 1419 123 1449 q 126 1411 123 1416 q 123 1408 123 1411 l 123 1389 l 126 1383 l 123 1383 l 126 1370 q 129 1240 129 1275 l 132 1226 q 129 1223 129 1226 q 132 1180 132 1196 l 132 1123 q 129 1101 132 1112 q 132 1080 132 1091 l 132 1001 l 134 974 q 132 971 132 974 q 137 868 134 946 q 132 849 137 863 q 134 838 134 844 l 134 819 q 132 808 134 813 q 134 798 134 804 l 134 779 q 132 741 134 764 l 134 735 q 132 711 132 720 l 132 662 q 129 621 132 648 q 132 618 132 621 q 129 616 129 618 l 129 591 q 126 534 129 560 q 129 491 129 519 l 126 477 q 132 445 129 477 q 129 431 129 440 l 129 423 l 132 418 q 129 415 129 418 l 129 407 q 132 382 129 397 q 123 288 127 370 q 126 279 126 282 q 123 277 123 279 q 126 269 123 274 l 123 258 l 126 252 q 123 241 123 248 l 123 111 l 121 79 q 123 73 123 79 q 121 14 121 33 l 118 0 l 121 0 q 129 3 129 0 q 305 27 242 12 l 346 27 q 400 35 373 35 l 414 35 q 435 41 433 41 l 517 41 l 525 35 l 552 35 q 598 43 578 43 l 617 43 l 636 41 q 639 43 636 43 q 647 41 642 43 l 663 43 l 682 43 l 715 41 q 728 119 725 59 q 726 130 726 124 q 734 149 726 136 q 731 179 734 155 l 747 320 q 745 328 747 323 l 747 328 q 745 350 747 340 q 753 391 748 380 l 750 396 l 753 412 l 753 448 q 761 521 761 517 q 758 532 758 526 l 761 545 q 758 548 758 545 q 764 567 758 550 q 761 575 764 570 q 764 578 764 575 l 764 608 l 780 841 q 777 849 780 844 l 780 849 q 777 879 780 855 q 791 936 783 909 l 785 939 l 788 958 l 788 996 q 796 998 791 996 q 788 1006 792 1006 l 796 1017 l 796 1082 l 799 1101 q 796 1104 796 1101 q 799 1115 799 1109 l 799 1123 q 796 1134 799 1129 q 799 1145 799 1139 l 799 1183 l 802 1196 q 799 1199 799 1196 l 818 1310 l 815 1316 q 823 1375 818 1357 l 823 1413 l 826 1427 q 823 1430 823 1427 q 829 1465 826 1436 q 826 1468 826 1465 q 829 1478 829 1472 l 829 1506 l 831 1519 q 829 1522 829 1519 q 834 1557 834 1550 q 831 1565 834 1560 q 840 1603 840 1597 l 840 1638 l 842 1652 q 840 1655 840 1652 q 845 1693 840 1659 l 842 1704 q 848 1744 848 1729 l 845 1758 q 853 1817 848 1794 q 850 1826 853 1820 q 880 2002 867 1950 q 916 2222 902 2186 l 913 2227 q 924 2303 924 2297 q 945 2412 940 2412 q 943 2420 945 2414 q 981 2553 964 2517 l 978 2558 q 886 2536 962 2558 l 867 2536 q 793 2528 860 2528 l 791 2528 q 685 2515 738 2515 l 669 2515 q 609 2507 642 2507 l 598 2507 q 582 2512 591 2507 q 574 2509 579 2512 q 563 2512 569 2512 l 555 2512 q 544 2488 550 2512 l 549 2466 q 541 2428 545 2466 l 544 2422 q 541 2268 541 2315 q 538 2224 541 2252 q 541 2216 541 2219 l 536 2129 q 538 2127 538 2129 l 533 2056 q 536 2053 536 2056 q 533 2043 533 2049 l 533 2037 l 536 2032 l 530 2029 l 536 2021 q 528 1994 530 2014 q 530 1991 530 1994 q 525 1972 527 1991 q 530 1956 525 1967 q 522 1907 525 1917 q 525 1896 525 1902 l 525 1866 l 522 1847 q 525 1845 525 1847 q 519 1769 519 1798 l 519 1755 q 514 1739 519 1748 l 517 1733 q 506 1641 506 1670 q 495 1636 506 1638 q 498 1628 495 1633 l 495 1622 l 495 1617 l 500 1619 l 503 1619 l 503 1606 q 492 1587 503 1592 l 498 1579 l 498 1568 q 495 1560 498 1560 q 473 1405 484 1438 l 476 1400 q 465 1335 471 1384 l 468 1316 l 468 1313 q 446 1196 459 1313 l 446 1191 q 441 1185 446 1185 q 444 1183 441 1183 q 438 1172 441 1172 q 378 836 406 922 q 381 833 381 836 q 376 814 376 822 q 368 822 368 818 q 370 833 368 828 q 351 1001 365 859 l 354 1006 l 349 1058 q 351 1061 351 1058 q 343 1161 343 1085 l 343 1202 l 340 1234 q 343 1237 343 1234 q 338 1286 338 1251 l 338 1289 l 335 1294 l 338 1294 l 332 1318 q 335 1326 332 1321 q 327 1402 332 1367 q 330 1411 330 1408 q 327 1413 327 1411 l 330 1413 l 327 1432 q 330 1454 327 1444 l 324 1514 q 327 1560 327 1535 q 324 1584 327 1569 l 327 1590 l 316 1763 q 319 1796 319 1777 l 319 1828 l 316 1842 q 319 1847 319 1842 q 324 1931 319 1917 q 321 1942 321 1936 l 321 1980 l 324 1999 q 321 2002 321 1999 q 324 2005 324 2002 l 324 2007 l 321 2013 l 324 2013 q 321 2026 324 2022 l 324 2043 l 324 2072 l 327 2086 q 324 2089 324 2086 q 327 2097 324 2091 q 324 2108 324 2102 l 324 2165 l 332 2178 q 330 2186 332 2181 q 332 2189 332 2186 l 332 2208 q 338 2230 332 2220 q 335 2260 335 2248 l 335 2276 q 338 2300 335 2285 q 335 2314 335 2305 q 343 2387 343 2348 l 343 2431 l 346 2444 l 340 2447 q 359 2582 353 2513 q 349 2596 353 2596 l 346 2596 l 340 2593 l 340 2596 l 229 2588 q 227 2591 229 2591 q 216 2588 222 2588 l 208 2588 q 167 2593 193 2588 l 153 2591 q 126 2596 146 2593 l 121 2593 q 28 2620 94 2596 l 26 2620 "},"W":{"ha":1400,"x_min":20,"x_max":1392,"o":"m 26 2554 l 20 2551 q 23 2540 20 2545 q 20 2524 20 2526 l 28 2483 l 26 2478 l 34 2426 l 31 2416 q 34 2348 31 2393 l 37 2342 l 34 2342 q 47 2253 40 2287 l 45 2253 q 58 2112 50 2212 l 56 2106 q 58 2077 58 2088 l 58 2030 l 61 2025 l 58 2025 q 64 1992 58 2020 l 61 1987 q 66 1952 63 1976 l 64 1946 q 69 1898 64 1911 l 66 1898 q 72 1881 66 1892 l 69 1876 q 77 1819 72 1869 q 75 1816 75 1819 l 77 1811 q 80 1735 77 1796 q 77 1656 80 1713 q 91 1485 83 1518 l 88 1485 l 96 1398 l 94 1388 q 99 1358 97 1363 l 96 1358 q 107 1282 105 1282 q 121 1062 111 1089 q 118 1054 118 1057 l 121 1048 q 118 1038 118 1044 l 118 1000 q 115 972 118 987 l 118 956 q 115 907 118 940 q 118 886 118 892 q 115 869 115 871 q 121 848 115 865 l 118 848 q 121 818 118 833 l 118 804 l 121 772 q 118 726 121 747 l 123 674 q 121 625 121 648 l 121 612 q 123 492 121 564 q 121 484 121 487 q 123 481 123 484 l 121 481 q 129 414 126 458 q 126 406 126 408 l 129 395 l 126 376 l 129 362 q 126 359 126 362 q 132 354 126 354 l 126 346 l 126 319 l 123 305 q 126 302 126 305 l 123 297 q 115 180 121 180 l 118 175 q 115 159 118 163 l 118 142 l 118 129 q 123 12 123 21 l 123 -20 q 132 -28 127 -28 l 142 -28 q 365 20 142 -14 q 509 47 406 37 q 514 140 509 103 q 511 142 511 140 l 517 170 q 514 172 514 170 q 517 175 517 172 l 517 191 q 522 251 517 211 l 519 267 l 536 392 q 533 395 533 392 l 536 395 q 538 468 538 445 l 538 481 q 568 628 544 516 q 606 796 599 796 q 604 804 606 799 q 628 905 615 886 q 666 780 639 856 q 709 571 690 643 q 707 568 707 571 l 707 563 l 709 557 l 707 557 q 723 492 707 547 q 720 490 720 492 l 720 487 q 728 449 720 481 q 726 446 726 449 l 726 441 l 728 427 q 726 425 726 427 q 728 416 726 422 l 726 403 q 731 387 726 395 q 747 161 731 294 q 745 159 745 161 l 745 153 l 747 148 l 745 148 l 747 121 q 745 66 745 81 q 753 58 749 58 l 780 58 q 886 45 825 58 q 991 23 979 23 l 1108 -1 l 1114 -1 q 1122 4 1115 -1 q 1124 83 1122 35 q 1122 91 1122 88 q 1124 94 1124 91 q 1122 115 1124 100 l 1124 121 l 1122 137 l 1124 151 q 1122 153 1122 151 l 1124 159 l 1122 164 l 1124 170 q 1122 178 1124 172 l 1124 178 l 1122 194 q 1127 254 1124 240 q 1124 289 1124 271 l 1124 346 l 1127 359 q 1124 362 1124 359 q 1130 397 1124 365 q 1127 406 1130 400 q 1130 408 1130 406 l 1130 416 q 1133 463 1130 431 q 1130 465 1130 463 l 1133 465 l 1130 481 q 1154 728 1149 692 q 1171 913 1154 847 q 1184 1051 1179 1034 q 1181 1054 1181 1051 l 1190 1111 q 1187 1114 1187 1111 q 1219 1312 1219 1269 l 1219 1322 l 1217 1328 q 1233 1420 1224 1340 q 1230 1423 1230 1420 q 1236 1442 1230 1442 q 1265 1577 1244 1510 q 1305 1820 1289 1743 q 1325 1965 1322 1898 q 1360 2140 1329 2032 q 1389 2317 1392 2247 q 1302 2292 1335 2298 l 1302 2295 l 1166 2271 q 1164 2273 1166 2273 q 1131 2268 1159 2271 q 1123 2271 1128 2268 q 1112 2268 1118 2268 l 1088 2268 l 1082 2265 l 1082 2268 q 1074 2265 1080 2268 l 1055 2268 q 1015 2265 1021 2265 q 998 2268 1013 2265 q 996 2265 998 2265 l 990 2268 q 979 2265 985 2265 l 977 2265 q 906 2276 965 2265 q 903 2273 906 2273 l 865 2287 q 854 2279 854 2285 q 863 2252 854 2273 q 854 2181 854 2213 l 857 2162 q 854 2159 854 2162 q 857 2148 857 2155 l 857 2113 l 860 2097 q 859 2040 859 2050 l 862 2009 q 867 1992 862 2001 q 870 1942 870 1963 l 870 1921 q 873 1877 870 1905 q 870 1869 870 1872 l 873 1864 q 872 1827 872 1849 l 872 1808 q 875 1797 872 1802 q 872 1789 872 1792 q 864 1681 872 1692 l 867 1675 l 864 1659 l 864 1626 l 867 1621 l 864 1621 l 867 1607 l 867 1561 l 864 1548 q 867 1545 867 1548 l 864 1545 q 867 1537 864 1542 q 869 1439 869 1449 q 864 1379 869 1428 l 867 1374 q 864 1371 864 1374 l 864 1352 l 861 1339 q 864 1336 864 1339 q 859 1306 864 1325 l 861 1295 l 859 1284 q 861 1282 861 1284 l 859 1282 q 853 1222 859 1253 l 848 1222 q 793 1382 823 1320 q 734 1529 756 1442 l 736 1534 q 704 1613 711 1605 q 688 1651 690 1651 q 690 1653 688 1653 q 680 1675 685 1675 q 606 1854 650 1800 l 604 1854 q 568 1740 587 1794 q 571 1732 568 1737 q 555 1691 559 1697 l 557 1686 q 536 1645 541 1662 l 541 1643 q 528 1607 536 1607 q 490 1507 518 1560 l 492 1501 l 490 1501 q 416 1282 454 1371 q 387 1208 401 1236 l 378 1214 q 381 1217 378 1217 q 378 1236 381 1225 q 381 1252 378 1238 q 378 1260 381 1255 q 381 1284 381 1275 l 381 1328 l 378 1347 q 381 1350 381 1347 q 376 1388 379 1357 l 378 1393 l 376 1407 q 381 1491 381 1456 l 381 1556 l 384 1569 q 381 1577 381 1569 l 381 1580 q 387 1648 381 1591 l 384 1664 q 387 1667 387 1664 q 381 1702 384 1671 q 384 1710 384 1708 q 381 1713 381 1710 l 384 1713 q 381 1748 384 1725 q 387 1819 381 1769 q 384 1822 384 1819 q 387 1824 387 1822 l 387 1849 l 384 1862 q 387 1865 387 1862 l 384 1870 q 387 1881 387 1875 l 387 1887 q 384 1898 387 1893 q 389 1938 386 1902 q 387 1941 387 1938 q 389 1944 389 1941 l 389 1971 q 387 2052 389 2004 q 392 2090 392 2080 l 389 2096 q 392 2098 392 2096 l 392 2158 l 389 2171 q 392 2174 392 2171 l 389 2180 q 392 2182 392 2180 l 392 2272 l 389 2277 q 392 2280 392 2277 q 387 2285 392 2285 q 389 2310 387 2295 l 387 2315 q 392 2332 392 2327 l 389 2337 q 392 2340 392 2337 l 392 2367 l 389 2372 q 392 2375 392 2372 l 392 2456 q 384 2532 392 2495 q 335 2543 384 2543 l 208 2543 q 183 2540 198 2543 q 164 2543 180 2543 l 88 2543 q 56 2554 58 2554 l 26 2554 "},"X":{"ha":1161,"x_min":20,"x_max":1141,"o":"m 475 2247 q 341 2240 404 2241 q 140 2225 279 2239 q 20 2214 84 2221 q 88 2065 64 2115 q 153 1927 125 1966 l 170 1872 q 205 1788 205 1805 q 227 1731 227 1740 q 262 1642 237 1710 q 302 1539 302 1549 q 381 1330 381 1338 q 435 1181 406 1270 q 460 1132 449 1162 l 457 1126 q 476 1075 457 1120 l 465 1013 q 433 866 433 873 q 435 858 435 861 q 411 785 419 800 q 365 622 411 782 q 305 378 325 418 l 267 237 q 237 155 243 157 q 181 -7 237 132 q 305 39 244 6 l 351 55 q 471 82 412 77 q 579 104 535 87 q 587 323 574 163 l 587 342 l 590 356 q 587 359 587 356 q 593 391 591 359 l 590 397 q 601 429 594 397 l 598 435 q 617 524 609 473 l 614 530 l 625 551 q 623 562 625 557 q 647 638 635 638 l 644 652 l 644 663 l 652 657 q 666 611 663 611 l 663 597 l 663 587 q 671 554 671 578 q 701 288 696 368 q 699 286 699 288 q 701 277 701 280 q 699 267 701 271 l 701 261 q 699 250 701 255 q 701 7 705 151 q 837 20 819 20 l 850 17 l 856 20 q 880 17 871 17 q 891 20 886 17 l 894 20 q 1019 -2 984 9 q 1084 -24 1053 -13 q 1046 77 1051 73 q 1013 153 1018 151 q 994 201 1013 179 q 997 204 994 204 q 989 226 993 226 q 875 597 921 460 q 837 749 848 717 q 815 836 831 793 l 818 842 q 804 874 809 850 l 807 880 q 793 918 801 885 q 758 1034 764 1033 q 764 1050 758 1042 l 761 1056 q 766 1064 764 1056 l 764 1069 q 777 1110 777 1105 l 774 1116 q 785 1154 779 1116 q 810 1211 810 1208 q 807 1219 810 1213 l 823 1254 l 821 1259 q 840 1303 823 1261 l 834 1303 l 834 1305 l 837 1305 l 842 1303 q 872 1387 842 1325 q 916 1479 907 1472 q 913 1487 916 1482 q 924 1506 921 1506 q 964 1596 933 1546 q 1059 1769 1004 1687 q 1119 1851 1109 1851 q 1141 1886 1135 1885 q 1130 1910 1141 1894 q 1078 1921 1099 1914 q 1070 1919 1073 1919 q 907 1965 1031 1919 q 726 2022 795 1989 q 671 2043 683 2043 q 666 2027 666 2035 l 666 1943 l 663 1929 q 666 1921 666 1929 l 666 1916 l 663 1902 q 666 1900 666 1902 q 658 1856 663 1869 l 661 1851 l 655 1818 q 658 1815 658 1818 l 642 1731 l 644 1726 q 625 1664 640 1725 l 628 1653 l 604 1541 l 598 1541 q 525 1843 533 1790 q 475 2247 488 2045 m 444 958 q 438 953 439 958 l 438 950 l 441 950 l 446 953 l 444 958 "},"Y":{"ha":1175,"x_min":20,"x_max":1154,"o":"m 1152 2589 l 1143 2589 q 1067 2567 1067 2573 q 994 2548 1034 2561 l 994 2551 q 875 2529 935 2537 q 720 2504 838 2521 l 701 2504 q 696 2499 696 2504 q 560 2496 602 2496 q 555 2491 555 2496 l 555 2423 q 528 2247 538 2289 q 530 2239 528 2244 q 506 2130 517 2169 q 509 2122 506 2127 q 471 1943 481 2026 q 473 1940 473 1943 q 457 1889 465 1931 l 457 1848 q 444 1810 450 1817 q 416 1680 427 1716 l 419 1674 l 416 1664 l 411 1664 q 397 1729 408 1695 l 400 1729 q 392 1767 397 1756 q 395 1777 392 1773 l 376 1864 q 378 1867 378 1864 q 324 2212 339 2048 q 324 2290 319 2264 q 197 2277 283 2282 l 178 2279 q 142 2274 165 2274 l 88 2274 l 83 2271 q 28 2282 83 2279 q 20 2279 26 2282 l 47 2187 l 45 2182 q 64 2122 53 2136 q 61 2114 64 2119 q 72 2089 68 2105 l 69 2084 q 91 2008 89 2010 q 151 1721 151 1731 l 180 1601 l 240 1417 q 264 1333 256 1348 q 321 1075 305 1129 l 319 1069 q 321 1059 319 1063 q 311 991 313 1033 l 313 985 q 300 890 306 890 q 297 839 300 876 l 300 833 q 281 739 289 817 q 283 736 283 739 l 281 725 q 283 690 281 724 q 278 673 283 682 q 281 663 278 667 l 278 657 q 281 649 281 652 q 270 600 270 617 l 273 595 q 270 578 270 581 q 273 570 270 576 l 270 570 l 273 551 q 262 484 264 513 q 264 481 264 484 q 243 280 243 298 l 245 269 l 224 134 l 227 128 q 208 -37 213 35 q 240 -26 240 -33 q 411 12 398 12 l 422 12 q 552 39 457 25 q 728 52 663 48 q 723 131 728 94 q 726 134 726 131 q 718 185 723 140 q 720 223 718 200 q 718 256 718 237 q 715 264 718 258 l 718 264 q 715 275 718 270 q 718 299 718 290 q 715 329 718 311 q 718 337 718 334 l 712 348 l 715 353 q 712 424 715 360 l 709 437 q 712 440 712 437 l 707 478 q 709 489 709 483 l 707 494 l 709 494 q 707 505 709 500 q 709 516 707 511 q 707 524 709 519 q 712 597 707 547 l 707 630 q 709 633 709 630 q 707 641 709 635 l 709 646 q 707 654 709 649 q 709 657 709 654 l 709 665 q 707 692 709 678 l 709 703 q 707 725 709 706 l 709 744 l 707 749 l 709 749 q 707 760 709 755 l 709 774 q 707 785 709 780 q 709 795 709 789 q 693 1187 702 903 q 815 1645 701 1260 q 875 1834 837 1695 q 943 2013 932 1997 l 940 2019 q 1029 2260 1006 2219 q 1054 2325 1036 2291 q 1133 2513 1057 2355 q 1154 2580 1154 2570 q 1152 2589 1154 2583 "},"Z":{"ha":1318,"x_min":20,"x_max":1298,"o":"m 1263 2598 q 1252 2590 1252 2593 q 1138 2576 1173 2587 l 1130 2582 l 1122 2582 q 1103 2574 1113 2582 l 1095 2574 l 1095 2576 q 1067 2568 1081 2576 l 1067 2571 q 1008 2560 1055 2571 l 978 2560 q 962 2555 970 2560 q 932 2560 962 2558 q 799 2555 852 2555 q 791 2552 796 2555 q 788 2555 791 2555 l 731 2544 q 720 2547 726 2547 l 715 2547 l 701 2544 q 699 2547 701 2547 l 680 2541 l 680 2544 q 614 2536 618 2538 q 604 2538 610 2538 l 549 2538 l 522 2536 q 519 2538 522 2538 l 514 2536 l 498 2538 l 492 2536 q 490 2538 492 2538 l 471 2538 q 441 2536 459 2538 q 433 2538 435 2538 l 427 2536 l 427 2538 q 414 2536 418 2538 q 376 2541 390 2541 q 368 2538 373 2541 q 351 2544 368 2542 l 346 2541 q 321 2547 340 2544 q 308 2544 317 2544 l 292 2547 l 286 2544 q 262 2549 269 2549 l 254 2549 l 248 2547 q 240 2549 248 2549 l 56 2568 q 37 2566 52 2566 l 26 2566 q 20 2560 21 2566 l 20 2549 l 23 2536 q 20 2533 20 2536 q 34 2438 31 2479 q 31 2427 31 2433 q 42 2305 39 2369 q 39 2302 39 2305 q 42 2292 42 2298 l 42 2270 q 45 2226 42 2254 q 42 2216 42 2222 q 45 2213 45 2216 l 42 2213 q 45 2197 45 2199 q 42 2169 45 2179 q 45 2134 45 2152 l 45 2110 l 47 2096 q 42 2083 43 2096 l 42 2034 l 39 2015 q 42 2012 42 2015 q 23 1825 28 1855 l 26 1814 q 20 1798 20 1805 l 20 1787 l 23 1782 q 88 1806 77 1798 l 142 1806 q 397 1847 353 1847 q 400 1844 397 1844 l 411 1847 q 433 1844 422 1847 q 481 1849 473 1849 q 490 1847 487 1847 l 495 1849 q 519 1847 510 1847 l 533 1849 q 536 1847 533 1847 q 547 1849 541 1849 l 576 1849 l 582 1852 l 582 1849 q 590 1852 585 1849 l 606 1849 q 661 1852 643 1852 q 669 1855 663 1852 q 671 1852 669 1852 l 726 1852 l 758 1855 l 758 1849 q 753 1844 758 1844 q 709 1733 726 1780 q 666 1651 709 1714 q 598 1489 666 1626 q 560 1426 560 1434 q 525 1364 539 1399 q 460 1255 481 1303 q 406 1152 420 1204 q 384 1114 384 1120 q 300 987 332 1051 q 221 892 286 950 q 145 824 201 863 q 104 794 116 806 q 107 786 104 791 q 104 764 107 775 q 107 715 107 739 l 107 702 q 96 602 101 616 l 99 596 l 96 591 q 99 580 96 585 q 94 482 94 526 l 96 477 q 85 401 92 461 q 88 398 88 401 q 75 325 75 328 q 80 311 77 325 q 58 89 64 194 l 58 78 l 56 64 q 58 62 58 64 q 50 18 53 53 l 53 13 q 39 -28 45 -20 q 45 -33 39 -33 l 50 -33 q 134 -17 85 -17 q 140 -14 140 -17 q 324 24 210 5 l 340 21 q 389 32 340 26 q 392 29 389 29 q 514 43 442 43 l 585 43 l 604 40 q 606 43 604 43 q 617 40 611 40 l 680 40 l 685 43 q 718 37 685 37 l 753 37 l 766 35 q 769 37 766 37 q 799 32 774 35 q 802 35 799 35 q 804 32 802 32 l 818 32 q 829 35 824 32 q 888 26 852 30 q 891 29 888 29 q 1029 13 903 26 l 1046 16 l 1078 16 q 1114 10 1101 16 q 1124 13 1118 13 l 1141 13 l 1160 10 q 1184 24 1184 18 l 1184 29 q 1179 45 1184 37 l 1181 45 q 1171 92 1181 49 l 1173 92 q 1171 102 1173 98 l 1173 113 q 1171 138 1173 123 l 1173 151 q 1168 184 1168 170 l 1168 203 l 1165 208 l 1168 208 q 1162 238 1164 233 l 1165 238 q 1160 281 1165 243 q 1162 290 1160 284 l 1160 295 q 1165 341 1160 304 q 1162 379 1165 345 q 1165 387 1162 382 q 1157 460 1160 411 q 1160 469 1160 466 l 1157 474 l 1160 479 q 1157 490 1160 486 l 1160 496 q 1154 550 1154 536 q 1157 569 1154 558 q 1154 583 1154 574 l 1154 593 l 1157 612 q 1154 618 1154 612 q 1157 626 1154 621 l 1154 631 l 1160 702 q 1154 707 1155 702 l 1154 724 q 1160 740 1154 731 q 1157 748 1160 743 q 1162 813 1160 800 q 1160 819 1160 813 l 1162 846 l 1152 857 l 1138 857 q 1057 840 1067 840 q 1035 843 1050 840 q 899 827 903 827 q 891 829 894 829 q 875 824 886 829 q 872 827 875 827 l 869 827 q 853 821 862 827 q 850 824 853 824 l 840 824 l 834 821 q 831 824 834 824 l 815 824 q 804 821 809 824 l 799 824 q 739 819 775 824 q 728 824 739 822 q 720 821 726 824 l 701 824 q 688 821 692 824 l 682 824 q 644 821 659 821 l 642 821 l 636 819 q 633 821 636 821 l 604 821 q 541 827 570 821 l 541 829 q 601 941 541 835 q 639 998 623 968 q 780 1204 780 1191 q 842 1293 841 1284 q 935 1421 901 1360 q 959 1456 959 1451 q 1127 1708 1018 1539 q 1198 1809 1185 1781 q 1233 1898 1233 1834 l 1233 1990 l 1252 2175 l 1252 2218 q 1274 2378 1274 2342 q 1287 2498 1287 2438 l 1287 2509 l 1298 2576 l 1298 2593 q 1293 2598 1298 2597 l 1263 2598 "},"[":{"ha":1025,"x_min":0,"x_max":979,"o":"m 949 3233 q 746 3218 876 3233 l 735 3221 l 711 3210 l 711 3214 l 694 3210 l 684 3214 l 578 3188 l 564 3191 q 477 3172 490 3180 l 477 3177 l 331 3154 l 282 3162 q 117 3147 276 3156 q 60 3150 107 3147 q 49 3090 52 3150 l 52 3082 q 49 3079 49 3082 l 54 3067 l 54 2992 l 52 2974 q 60 2959 57 2959 l 57 2951 l 57 2928 l 54 2906 q 60 2804 57 2906 q 57 2752 57 2757 l 65 2688 q 62 2684 62 2688 l 62 2628 l 65 2620 l 62 2620 q 68 2530 62 2589 l 65 2523 l 73 2421 q 71 2410 71 2414 q 73 2399 71 2406 q 68 2361 71 2389 q 71 2357 71 2361 l 68 2350 q 71 2335 71 2343 l 71 2286 l 73 2267 q 68 2245 71 2267 l 71 2237 q 73 2091 71 2169 q 68 2011 71 2030 q 71 1974 71 1992 l 71 1929 l 73 1910 q 71 1906 71 1910 q 73 1876 71 1891 l 71 1850 q 76 1662 73 1700 q 73 1655 73 1662 q 76 1632 76 1635 q 71 1542 76 1611 l 76 1512 q 71 1350 73 1498 l 73 1343 q 71 1339 71 1343 l 71 1267 l 68 1249 q 71 1245 71 1249 l 68 1238 l 71 1230 l 68 1230 q 73 1137 68 1158 l 71 1128 q 68 964 68 1030 q 71 911 68 943 q 65 862 65 889 q 68 851 65 859 q 65 847 65 851 l 65 802 l 68 783 l 60 696 q 62 693 62 696 q 60 682 62 689 q 62 671 60 678 q 52 498 62 602 l 54 490 q 46 408 50 458 q 49 404 49 408 q 46 389 46 397 l 49 381 q 41 302 45 381 q 43 298 43 302 l 41 298 q 43 287 41 295 q 35 212 41 224 l 38 205 q 30 115 35 127 l 33 107 q 30 92 33 98 l 33 84 q 27 58 30 58 q 16 -107 24 -65 l 16 -141 l 11 -153 l 11 -182 q 0 -254 11 -214 l 5 -258 l 57 -258 l 62 -254 l 62 -258 l 90 -254 l 130 -254 l 136 -250 l 136 -254 q 152 -246 141 -254 l 165 -250 l 212 -243 q 220 -246 217 -246 q 228 -243 225 -243 l 244 -246 l 250 -243 q 274 -246 264 -246 l 309 -246 q 326 -239 317 -246 q 328 -243 326 -243 l 355 -243 l 361 -239 l 361 -243 q 372 -239 367 -243 q 380 -243 374 -239 l 393 -239 q 469 -243 435 -243 l 477 -243 l 494 -246 q 540 -239 503 -243 q 665 -247 654 -247 l 703 -247 l 722 -250 q 724 -247 722 -247 l 730 -258 l 741 -254 q 833 -265 833 -258 l 838 -262 l 925 -277 q 933 -273 928 -277 q 944 -277 938 -277 l 949 -277 l 955 -273 q 958 -277 955 -277 l 960 -277 l 968 -269 q 960 -194 963 -206 l 963 -194 q 949 -96 955 -151 q 952 -62 949 -83 q 947 14 947 -16 q 949 43 949 41 q 947 55 947 51 q 958 163 952 128 q 955 168 955 163 q 979 344 974 271 l 977 351 q 930 355 959 351 q 898 344 926 355 l 857 344 l 852 340 l 852 344 q 795 329 836 336 q 787 333 789 333 l 781 329 l 781 333 q 504 311 753 321 l 493 315 q 474 307 493 310 l 463 311 l 431 307 q 417 341 421 307 q 420 345 420 341 l 417 352 l 420 352 l 417 390 l 417 420 l 414 427 l 417 427 q 414 506 417 464 q 420 581 417 578 q 417 596 417 588 l 417 623 q 422 675 417 647 l 420 683 l 422 683 l 420 701 l 420 709 l 422 747 q 420 750 420 747 q 422 754 422 750 l 420 762 l 429 1813 q 426 1942 426 1899 q 423 1952 426 1945 q 426 1957 426 1952 q 415 2433 410 2364 l 412 2441 q 420 2538 417 2477 q 418 2542 418 2538 q 475 2572 418 2572 l 480 2568 q 524 2580 510 2572 l 524 2576 q 534 2580 530 2576 q 543 2576 537 2580 q 562 2580 551 2576 q 610 2576 587 2576 l 624 2576 q 648 2583 631 2576 q 692 2576 663 2583 q 738 2580 729 2580 l 822 2564 l 857 2564 q 920 2553 867 2564 q 933 2564 933 2556 l 933 2666 q 944 2805 944 2711 q 939 2861 944 2825 l 944 2880 q 941 2903 941 2900 q 944 2914 941 2907 q 939 2951 941 2920 q 944 2974 939 2959 l 941 2981 q 949 3046 943 2981 l 947 3053 q 960 3165 941 3101 l 955 3165 l 955 3169 q 968 3221 968 3182 q 960 3233 964 3233 l 949 3233 "},"\\":{"ha":1454,"x_min":96,"x_max":1388,"o":"m 1355 -58 l 1379 -58 l 1388 -53 q 1364 18 1371 -21 q 1343 53 1354 26 q 1317 123 1326 66 q 1282 199 1298 153 q 1257 267 1274 211 q 1198 416 1223 328 q 1128 595 1128 583 l 1122 598 l 1124 604 q 1082 715 1084 685 q 1034 848 1062 745 q 987 945 1013 898 l 987 951 l 989 956 l 920 1152 q 872 1309 920 1159 q 844 1385 859 1366 q 823 1455 827 1455 l 825 1461 q 803 1553 816 1491 q 798 1558 798 1554 q 800 1567 797 1561 q 747 1800 768 1681 q 741 1811 745 1800 l 743 1816 q 740 1827 743 1817 q 743 1830 740 1830 q 720 1935 737 1874 q 722 1938 720 1938 q 694 2079 711 2023 l 696 2093 q 673 2218 675 2181 q 646 2334 653 2316 q 648 2345 649 2339 q 645 2356 648 2351 q 647 2367 648 2361 q 634 2399 647 2376 l 637 2405 l 636 2410 q 611 2467 633 2456 q 609 2464 608 2467 l 603 2467 l 576 2467 q 549 2464 563 2467 l 519 2470 l 519 2467 l 513 2470 l 505 2470 q 162 2540 163 2514 q 115 2559 124 2559 q 106 2557 112 2559 q 96 2559 102 2559 l 96 2549 q 148 2410 121 2499 q 175 2332 167 2368 q 202 2242 186 2325 q 231 2161 220 2203 q 260 2082 248 2137 l 258 2077 q 298 1965 267 2068 q 342 1824 309 1943 q 371 1748 355 1806 q 389 1678 380 1748 q 398 1653 392 1678 l 396 1648 q 418 1588 418 1593 q 425 1580 421 1588 q 422 1572 422 1575 q 428 1564 425 1564 q 426 1561 429 1561 q 459 1453 427 1537 q 498 1350 460 1442 q 496 1341 496 1344 l 499 1336 l 496 1331 l 520 1257 q 517 1255 520 1255 q 564 1084 544 1187 q 590 1000 583 1000 q 586 978 585 989 l 587 964 q 646 712 614 869 q 669 636 662 642 l 671 606 q 682 571 679 571 l 680 566 q 709 446 693 517 l 706 441 q 736 300 727 335 q 741 278 737 293 q 738 275 741 275 l 771 91 l 770 66 q 784 18 770 63 l 785 4 l 790 4 l 789 9 l 801 1 q 823 7 823 3 q 825 4 825 7 l 844 7 l 871 4 l 871 7 l 877 4 l 918 4 q 928 1 924 4 q 939 4 933 4 q 980 -1 954 4 l 985 1 q 1008 -4 1002 -4 l 1007 -1 q 1010 -4 1010 -1 l 1023 -1 l 1050 -1 q 1053 1 1053 -1 l 1081 -7 l 1081 -4 q 1149 -15 1096 -12 q 1276 -42 1271 -42 l 1276 -39 q 1355 -58 1307 -50 "},"]":{"ha":1025,"x_min":0,"x_max":979,"o":"m 30 -277 q 233 -262 104 -277 l 244 -265 l 269 -254 l 269 -258 l 285 -254 l 296 -258 l 401 -232 l 415 -235 q 502 -216 490 -224 l 502 -220 l 648 -198 l 697 -205 q 863 -191 703 -199 q 920 -194 872 -191 q 930 -134 927 -194 l 928 -126 q 930 -123 930 -126 l 925 -111 l 925 -36 l 928 -18 q 920 -3 922 -3 l 922 5 l 922 28 l 925 50 q 920 152 922 50 q 922 204 922 199 l 914 268 q 917 272 917 268 l 917 328 l 914 336 l 917 336 q 911 426 917 368 l 914 433 l 906 535 q 909 546 909 543 q 906 557 909 550 q 911 595 909 567 q 909 599 909 595 l 911 606 q 909 621 909 613 l 909 670 l 906 689 q 911 711 909 689 l 909 719 q 906 865 909 787 q 911 945 909 926 q 909 982 909 964 l 909 1027 l 906 1046 q 909 1050 909 1046 q 906 1080 909 1065 l 909 1106 q 903 1294 906 1256 q 906 1301 906 1294 q 903 1324 903 1321 q 909 1414 903 1345 l 903 1444 q 909 1606 906 1458 l 906 1613 q 909 1617 909 1613 l 909 1689 l 911 1707 q 909 1711 909 1707 l 911 1718 l 909 1726 l 911 1726 q 906 1820 911 1799 l 909 1828 q 911 1992 911 1926 q 909 2045 911 2013 q 914 2094 914 2067 q 911 2105 914 2098 q 914 2109 914 2105 l 914 2155 l 911 2173 l 920 2260 q 917 2263 917 2260 q 920 2275 917 2267 q 917 2285 920 2278 q 928 2458 917 2355 l 925 2466 q 933 2549 930 2498 q 930 2553 930 2549 q 933 2568 933 2559 l 930 2575 q 939 2654 934 2575 q 936 2658 936 2654 l 939 2658 q 936 2669 939 2661 q 944 2744 939 2732 l 941 2751 q 949 2842 945 2829 l 947 2849 q 949 2865 947 2858 l 947 2872 q 952 2898 949 2898 q 963 3063 955 3021 l 963 3097 l 968 3109 l 968 3139 q 979 3210 968 3170 l 974 3214 l 922 3214 l 917 3210 l 917 3214 l 890 3210 l 849 3210 l 844 3206 l 844 3210 q 827 3202 838 3210 l 814 3206 l 768 3199 q 760 3202 762 3202 q 751 3199 754 3199 l 735 3202 l 730 3199 q 705 3202 715 3202 l 670 3202 q 654 3195 663 3202 q 651 3199 654 3199 l 624 3199 l 618 3195 l 618 3199 q 608 3195 612 3199 q 600 3199 605 3195 l 586 3195 q 510 3199 545 3199 l 502 3199 l 486 3202 q 439 3195 477 3200 q 315 3203 326 3203 l 277 3203 l 258 3206 q 255 3203 258 3203 l 250 3214 l 239 3210 q 146 3221 146 3214 l 141 3218 l 54 3233 q 46 3229 52 3233 q 35 3233 41 3233 l 30 3233 l 24 3229 q 22 3233 24 3233 l 19 3233 l 11 3225 q 19 3150 16 3162 l 16 3150 q 30 3052 24 3107 q 27 3018 30 3039 q 33 2943 33 2972 q 30 2913 30 2915 q 33 2901 33 2905 q 22 2793 27 2828 q 24 2789 24 2793 q 0 2612 5 2685 l 3 2605 q 49 2601 20 2605 q 81 2612 53 2601 l 122 2612 l 127 2616 l 127 2612 q 184 2627 144 2620 q 193 2623 190 2623 l 198 2627 l 198 2623 q 475 2646 227 2635 l 486 2641 q 505 2649 486 2646 l 516 2646 l 549 2649 q 562 2615 558 2649 q 559 2612 559 2615 l 562 2604 l 559 2604 l 562 2566 l 562 2536 l 565 2529 l 562 2529 q 565 2450 562 2492 q 559 2375 562 2378 q 562 2360 562 2368 l 562 2334 q 557 2281 562 2309 l 559 2273 l 557 2273 l 559 2255 l 559 2247 l 557 2209 q 559 2206 559 2209 q 557 2202 557 2206 l 559 2195 l 551 1143 q 553 1015 553 1057 q 556 1004 553 1011 q 553 1000 553 1004 q 564 524 570 592 l 567 515 q 559 418 562 479 q 562 414 562 418 q 505 385 562 385 l 499 388 q 456 376 469 385 l 456 380 q 445 376 450 380 q 437 380 442 376 q 418 376 429 380 q 369 380 392 380 l 355 380 q 331 373 349 380 q 288 380 316 373 q 241 376 250 376 l 157 392 l 122 392 q 60 403 112 392 q 46 392 46 400 l 46 290 q 35 151 35 245 q 41 95 35 131 l 35 76 q 38 54 38 56 q 35 42 38 50 q 41 5 38 36 q 35 -18 41 -3 l 38 -25 q 30 -90 36 -25 l 33 -97 q 19 -209 38 -145 l 24 -209 l 24 -213 q 11 -265 11 -226 q 19 -277 15 -277 l 30 -277 "},"^":{"ha":1012,"x_min":197,"x_max":1008,"o":"m 612 3250 l 608 3250 q 555 3196 570 3198 q 501 3144 555 3191 q 378 3026 415 3050 q 317 2974 323 2974 q 197 2884 208 2894 l 277 2804 q 340 2715 300 2783 q 376 2648 369 2654 q 417 2677 392 2662 q 460 2711 456 2711 l 513 2768 q 585 2842 526 2776 q 653 2802 589 2842 q 721 2749 715 2749 q 859 2666 771 2715 q 884 2747 874 2696 q 920 2804 916 2802 q 939 2831 926 2820 l 970 2890 q 1008 2949 981 2915 q 1002 2963 1006 2962 q 854 3035 952 2979 q 816 3067 821 3067 q 692 3180 699 3168 q 648 3217 648 3212 q 612 3250 643 3217 "},"_":{"ha":1677,"x_min":-17,"x_max":1653,"o":"m -12 -186 q 38 -178 38 -180 q 261 -159 242 -164 q 475 -142 356 -159 l 498 -148 q 572 -137 572 -144 q 676 -134 592 -137 l 694 -137 q 741 -132 694 -134 l 749 -134 l 768 -129 q 772 -132 768 -132 l 781 -132 q 845 -126 811 -132 q 850 -129 845 -129 l 877 -123 l 987 -129 q 991 -126 987 -126 l 991 -129 q 1293 -123 1096 -123 l 1502 -123 l 1534 -126 q 1544 -123 1534 -123 q 1566 -53 1566 -123 l 1566 -23 q 1598 142 1566 -18 q 1594 145 1594 142 q 1607 210 1607 172 l 1607 229 q 1626 294 1626 290 q 1621 297 1621 294 q 1653 362 1653 358 l 1648 368 q 1251 349 1411 349 q 1233 343 1244 349 l 1114 343 q 996 332 1062 343 q 763 321 808 326 q 745 324 753 321 q 659 321 694 321 l 517 321 q 416 324 485 321 q 412 321 416 321 l 412 324 q 334 321 358 321 l 216 321 q 120 330 135 327 q 102 327 112 327 l 88 327 q 38 332 43 332 q 28 327 28 332 l 28 159 q 33 45 28 117 q 24 37 24 45 q -3 -145 -3 -123 l -17 -183 q -12 -186 -12 -183 "},"`":{"ha":694,"x_min":279,"x_max":1016,"o":"m 527 3248 l 524 3247 q 469 3151 497 3205 q 419 3094 460 3149 q 336 3010 388 3057 q 281 2955 279 2961 l 282 2951 q 456 2851 392 2896 q 516 2816 463 2853 q 616 2754 605 2757 q 688 2700 634 2735 q 747 2659 690 2696 q 818 2609 774 2636 q 823 2603 822 2606 l 827 2605 q 869 2675 832 2620 q 934 2782 894 2724 q 988 2853 964 2834 l 1016 2884 q 962 2924 1010 2900 q 802 3021 804 3018 q 663 3126 689 3101 q 594 3185 652 3130 q 527 3248 564 3204 "},"a":{"ha":625,"x_min":0,"x_max":0,"o":""},"b":{"ha":675,"x_min":0,"x_max":0,"o":""},"c":{"ha":614,"x_min":0,"x_max":0,"o":""},"d":{"ha":705,"x_min":0,"x_max":0,"o":""},"e":{"ha":616,"x_min":0,"x_max":0,"o":""},"f":{"ha":379,"x_min":0,"x_max":0,"o":""},"g":{"ha":610,"x_min":0,"x_max":0,"o":""},"h":{"ha":749,"x_min":0,"x_max":0,"o":""},"i":{"ha":349,"x_min":0,"x_max":0,"o":""},"j":{"ha":346,"x_min":0,"x_max":0,"o":""},"k":{"ha":696,"x_min":0,"x_max":0,"o":""},"l":{"ha":354,"x_min":0,"x_max":0,"o":""},"m":{"ha":1064,"x_min":0,"x_max":0,"o":""},"n":{"ha":751,"x_min":0,"x_max":0,"o":""},"o":{"ha":1024,"x_min":39,"x_max":971,"o":"m 597 2443 l 597 2440 l 591 2443 q 588 2440 588 2443 l 583 2443 l 537 2443 q 534 2440 534 2443 l 528 2443 q 526 2440 526 2443 q 517 2443 520 2443 q 347 2405 422 2439 q 199 2303 255 2357 q 85 2137 138 2251 q 56 1868 60 2052 q 54 1775 56 1859 l 56 1768 q 48 1710 54 1762 l 51 1710 l 48 1703 q 42 1611 45 1611 l 45 1604 q 39 1515 39 1536 q 42 1512 39 1512 l 39 1494 l 39 1251 q 42 1238 39 1243 q 39 1223 39 1231 l 42 1217 q 39 1203 39 1211 l 42 1185 l 39 1179 l 42 1172 l 39 1158 l 42 1152 l 39 1145 l 42 1138 q 39 1135 42 1135 l 42 1118 l 42 1103 l 39 1080 l 42 1080 q 39 1076 42 1076 l 42 1059 l 42 994 l 45 973 q 42 960 42 967 q 45 926 45 930 q 42 922 45 922 l 45 905 l 45 895 q 54 774 45 806 l 54 730 q 59 696 54 696 l 56 689 q 59 572 59 617 l 68 504 l 65 487 q 87 367 77 401 q 85 363 87 363 q 142 195 85 328 q 270 48 201 93 q 415 -7 285 28 q 475 -10 425 -7 l 480 -7 q 492 -10 485 -10 l 492 -7 l 497 -10 l 500 -10 q 503 -7 503 -10 l 509 -10 q 559 3 559 -2 q 568 -3 568 0 q 608 3 600 1 l 619 -3 l 705 14 q 819 117 785 52 q 912 343 890 212 q 947 586 932 443 l 943 586 l 955 699 q 964 1303 971 982 q 958 1577 955 1553 l 952 1611 q 955 1631 952 1613 q 947 1748 951 1748 q 949 1775 949 1767 q 941 1885 943 1821 l 943 1892 l 929 1981 l 929 2001 q 916 2063 926 2063 l 918 2070 q 887 2214 918 2117 q 890 2224 890 2220 q 884 2231 884 2224 l 887 2238 q 795 2375 879 2271 q 597 2443 697 2443 m 644 1772 q 642 1768 644 1768 l 644 1751 l 644 1737 q 656 1488 650 1576 q 652 1477 652 1480 l 656 1477 l 652 1470 l 652 1350 q 650 1337 652 1342 q 652 1322 652 1331 q 650 1303 652 1320 l 652 1303 q 650 1292 650 1295 q 656 1227 650 1272 q 652 1203 652 1213 l 656 1203 l 652 1196 q 656 1148 652 1177 q 652 1145 656 1145 q 656 1135 652 1141 q 650 1000 650 1014 l 652 1000 q 650 998 652 998 l 652 981 l 652 945 q 647 926 652 937 q 650 916 647 922 q 601 377 646 486 q 553 332 581 332 q 463 531 505 329 q 454 606 463 575 q 456 610 454 610 q 451 699 451 644 q 454 764 451 732 q 451 836 451 788 l 451 850 l 454 871 q 451 888 451 876 q 454 908 451 890 q 451 911 454 911 l 454 928 q 448 994 452 994 q 451 998 448 998 l 448 1028 q 454 1138 451 1138 l 451 1158 l 451 1172 q 445 1258 450 1258 l 448 1265 l 448 1267 q 445 1272 448 1272 l 454 1322 l 451 1347 l 451 1409 l 454 1442 q 451 1446 451 1442 q 456 1453 456 1446 q 451 1460 456 1460 q 459 1491 454 1483 q 456 1494 459 1494 q 459 1505 459 1501 q 456 1515 459 1508 q 468 1631 468 1608 l 465 1631 l 468 1638 l 468 1655 l 473 1655 l 471 1679 l 471 1690 l 473 1714 l 471 1714 q 485 1809 482 1801 q 482 1823 482 1815 q 490 1847 489 1823 l 485 1851 q 539 2077 514 2009 q 565 2121 561 2121 l 568 2121 q 625 1981 589 2121 q 644 1772 625 1927 "},"p":{"ha":685,"x_min":0,"x_max":0,"o":""},"q":{"ha":694,"x_min":0,"x_max":0,"o":""},"r":{"ha":469,"x_min":0,"x_max":0,"o":""},"s":{"ha":476,"x_min":0,"x_max":0,"o":""},"t":{"ha":457,"x_min":0,"x_max":0,"o":""},"u":{"ha":718,"x_min":0,"x_max":0,"o":""},"v":{"ha":673,"x_min":0,"x_max":0,"o":""},"w":{"ha":960,"x_min":0,"x_max":0,"o":""},"x":{"ha":685,"x_min":0,"x_max":0,"o":""},"y":{"ha":589,"x_min":0,"x_max":0,"o":""},"z":{"ha":493,"x_min":0,"x_max":0,"o":""},"{":{"ha":688,"x_min":0,"x_max":0,"o":""},"|":{"ha":688,"x_min":30,"x_max":456,"o":"m 456 3047 q 77 2968 277 2949 q 82 2190 83 2512 q 52 752 65 1003 q 30 -139 35 194 q 252 81 126 -12 q 304 96 285 96 q 456 130 316 96 q 456 318 456 198 q 456 1740 453 816 q 454 2429 456 1845 q 456 3047 454 2471 "},"}":{"ha":688,"x_min":0,"x_max":0,"o":""},"~":{"ha":1175,"x_min":146,"x_max":1178,"o":"m 1141 3244 q 1089 3229 1132 3236 l 1084 3232 l 1035 3225 l 1030 3227 q 990 3222 1019 3227 l 985 3225 l 976 3220 q 973 3222 976 3222 l 968 3220 q 966 3222 968 3222 l 963 3222 l 958 3220 l 958 3222 q 880 3220 901 3220 l 865 3217 q 815 3225 834 3220 l 812 3225 q 808 3220 808 3225 l 808 3207 q 798 3124 808 3166 l 800 3111 q 793 3082 797 3082 q 749 3012 793 3038 q 707 3027 731 3012 q 672 3084 701 3027 q 593 3198 652 3147 q 435 3237 561 3215 l 420 3234 l 374 3234 q 368 3229 369 3234 q 285 3198 326 3224 q 191 3091 228 3172 q 154 2953 171 3040 q 157 2951 157 2953 q 146 2839 149 2919 q 149 2808 149 2818 l 146 2803 l 157 2736 q 154 2734 154 2736 l 157 2729 q 154 2726 154 2729 l 154 2721 q 169 2689 156 2705 q 307 2699 273 2699 q 332 2696 328 2696 q 356 2699 345 2699 q 391 2694 377 2699 l 396 2696 q 423 2694 417 2694 q 433 2696 429 2694 q 477 2692 436 2694 q 487 2741 487 2695 q 477 2845 477 2799 q 479 2877 477 2856 q 526 2906 479 2906 q 581 2874 548 2906 q 665 2776 612 2833 q 692 2746 677 2751 q 840 2699 712 2717 q 862 2701 854 2701 l 892 2701 q 1040 2726 935 2701 q 1128 2797 1099 2745 q 1178 3050 1178 2874 q 1175 3086 1175 3074 l 1178 3097 q 1173 3151 1177 3102 q 1175 3153 1175 3151 l 1168 3193 q 1171 3195 1171 3193 l 1168 3200 l 1171 3205 q 1148 3244 1171 3244 l 1141 3244 "},"":{"ha":596,"x_min":17,"x_max":555,"o":"m 22 -7 q 150 34 78 -7 l 269 69 l 394 94 q 397 91 394 91 l 410 91 l 416 94 q 478 88 416 90 q 500 113 495 88 l 500 123 q 492 199 494 149 l 494 216 q 489 297 489 279 l 492 330 q 484 392 486 330 q 486 452 486 439 q 481 506 486 467 q 484 511 484 506 l 481 517 q 484 519 484 517 l 484 549 l 481 555 l 484 555 q 481 582 481 578 q 486 604 481 593 l 484 614 q 489 639 484 629 q 478 753 484 650 l 478 758 l 475 764 q 478 766 478 764 l 478 774 q 484 826 478 780 l 484 859 q 478 864 484 864 q 484 886 478 869 q 481 956 481 931 l 481 962 q 492 1095 481 1030 q 486 1122 490 1118 q 497 1208 489 1180 q 494 1211 494 1208 q 503 1230 500 1212 l 503 1249 l 500 1282 q 503 1284 503 1282 q 500 1293 500 1290 q 503 1314 500 1299 l 500 1320 l 503 1331 q 505 1444 503 1358 l 503 1463 l 505 1477 q 503 1583 503 1548 q 500 1591 503 1586 q 505 1624 504 1591 l 505 1626 q 467 1607 467 1615 q 231 1534 294 1548 l 134 1510 q 98 1482 98 1510 l 101 1472 l 98 1458 q 101 1455 98 1455 q 109 1374 104 1383 q 106 1363 106 1369 l 106 1358 l 109 1344 q 104 1336 106 1344 q 106 1328 104 1333 q 104 1325 104 1328 l 104 1298 l 106 1293 l 104 1293 q 101 1241 104 1267 q 104 1225 101 1239 l 98 1184 l 101 1179 q 96 1154 101 1175 l 98 1149 q 96 1141 98 1146 q 101 1124 96 1135 l 98 1114 q 101 1097 98 1112 l 96 1089 q 104 1059 104 1061 q 98 1054 98 1059 l 98 1002 q 101 956 98 988 q 98 951 98 956 q 104 945 103 951 q 96 878 96 938 q 101 845 96 855 q 90 802 98 817 q 93 793 90 799 q 82 690 93 766 l 85 685 q 77 652 79 669 l 79 647 l 68 479 l 71 473 q 68 471 68 473 l 71 465 q 55 343 55 401 l 60 335 l 60 332 q 50 311 54 332 q 41 210 50 269 q 44 208 44 210 l 41 208 q 28 64 41 143 q 31 61 31 64 q 17 1 17 12 l 22 -7 m 129 1916 q 429 1938 184 1933 q 508 1930 456 1938 q 503 2071 501 2013 q 532 2332 519 2286 q 555 2493 550 2433 q 267 2443 458 2470 q 215 2440 234 2440 q 129 2444 203 2440 q 128 2410 128 2432 q 128 2153 132 2320 q 131 2028 128 2134 q 129 1916 131 2020 "},"":{"ha":772,"x_min":0,"x_max":0,"o":""},"":{"ha":688,"x_min":0,"x_max":0,"o":""},"":{"ha":688,"x_min":0,"x_max":0,"o":""}}}
